<?xml version="1.0" standalone="no"?>
<!DOCTYPE svg PUBLIC "-//W3C//DTD SVG 20010904//EN"
 "http://www.w3.org/TR/2001/REC-SVG-20010904/DTD/svg10.dtd">
<svg version="1.0" xmlns="http://www.w3.org/2000/svg"
 width="640.000000pt" height="640.000000pt" viewBox="0 0 640.000000 640.000000"
 preserveAspectRatio="xMidYMid meet">
<metadata>
Created by potrace 1.11, written by Peter Selinger 2001-2013
</metadata>
<g transform="translate(0.000000,640.000000) scale(0.100000,-0.100000)"
fill="#000000" stroke="none">
<path d="M5610 5256 c-52 -18 -120 -44 -150 -56 -110 -45 -228 -82 -405 -126
-267 -67 -388 -102 -731 -213 -361 -117 -729 -245 -763 -268 -13 -8 -31 -33
-40 -54 -16 -38 -18 -40 -141 -79 -69 -23 -392 -129 -718 -236 -557 -184 -594
-195 -626 -183 -24 9 -41 9 -64 1 -27 -9 -39 -5 -117 35 -112 58 -132 63 -245
63 -132 0 -222 -29 -273 -89 -21 -25 -36 -32 -81 -37 -31 -4 -59 -11 -62 -16
-3 -4 -10 -5 -16 -2 -6 4 -23 7 -38 6 l-26 -1 -12 136 c-6 75 -17 142 -23 149
-14 17 -43 1 -156 -83 -40 -29 -73 -48 -73 -40 0 14 100 182 156 262 32 45 35
55 30 98 -3 26 -15 79 -28 118 -25 79 -35 84 -94 40 -49 -36 -243 -234 -317
-322 -113 -136 -209 -299 -221 -373 -4 -21 -8 -42 -11 -46 -3 -5 -6 -58 -7
-118 -2 -101 0 -113 24 -160 34 -65 167 -229 252 -311 84 -80 73 -100 -15 -28
-129 107 -235 239 -265 331 -12 35 -19 45 -25 34 -8 -15 -1 -44 47 -198 15
-47 42 -139 61 -205 34 -118 118 -315 135 -315 4 0 8 -5 8 -11 0 -14 116 -154
204 -246 l70 -73 60 0 c34 0 86 7 116 15 69 19 220 21 254 3 30 -16 80 -77 94
-115 5 -15 25 -75 43 -133 l33 -105 131 -131 c203 -203 271 -253 374 -275 42
-9 63 -7 130 10 145 38 182 60 305 183 87 87 119 128 143 178 117 245 122 263
123 381 0 73 -21 172 -39 184 -5 3 -3 -19 5 -47 16 -63 16 -58 7 -58 -5 0 -21
24 -37 53 -48 85 -74 114 -124 135 -34 15 -60 19 -95 16 -31 -4 -47 -2 -47 6
0 6 -17 18 -38 27 -20 8 -93 54 -162 101 l-124 86 -87 -2 c-73 -1 -91 1 -112
18 -33 26 -41 53 -26 82 13 26 116 128 129 128 4 0 14 8 21 17 12 14 12 16 -1
9 -8 -4 -4 1 9 11 13 10 48 26 77 36 51 18 53 17 105 -4 30 -12 78 -30 108
-40 64 -22 317 -153 346 -179 11 -10 59 -36 107 -58 48 -22 165 -83 260 -134
95 -52 198 -107 228 -123 68 -34 138 -81 165 -109 37 -38 135 -178 135 -192 0
-8 8 -14 18 -15 9 0 12 -3 6 -5 -14 -6 36 -134 120 -310 44 -91 60 -116 86
-129 27 -14 37 -15 59 -5 69 32 130 45 217 44 65 0 80 -5 165 -49 234 -119
440 -182 635 -191 158 -8 163 -6 183 102 20 106 16 116 -49 129 -71 15 -108
34 -89 46 8 5 26 6 42 3 28 -6 36 6 15 23 -7 6 -29 13 -48 17 -20 3 -41 15
-48 27 -8 12 -9 18 -3 14 6 -3 11 1 11 10 0 10 -5 13 -12 9 -9 -5 -8 -2 1 10
13 15 12 18 -7 23 -12 3 -22 10 -22 15 0 5 5 6 12 2 7 -4 2 7 -11 24 -12 18
-19 32 -15 32 4 0 -3 11 -16 25 -31 33 -14 32 20 0 24 -23 30 -25 54 -14 23
11 32 10 59 -6 35 -21 206 -162 251 -206 16 -16 60 -50 98 -76 60 -39 74 -45
96 -37 44 16 93 129 91 214 0 32 -1 33 -11 13 -19 -39 -48 -40 -79 -2 -15 19
-27 36 -27 39 1 20 -3 30 -12 25 -5 -3 -7 0 -4 8 2 7 -10 36 -29 64 -34 50
-49 79 -52 98 0 6 -6 9 -13 7 -7 -1 -11 1 -11 5 3 20 -2 34 -11 28 -14 -8 -13
8 1 22 9 9 7 10 -10 6 -13 -3 -21 -1 -21 6 0 7 5 9 13 5 8 -5 8 -3 -2 9 -7 9
-18 14 -25 10 -6 -4 -5 1 3 10 14 18 40 19 54 2 5 -6 7 -4 4 5 -2 8 -9 15 -15
15 -22 0 -35 22 -23 42 10 16 10 15 8 -7 -1 -17 3 -24 12 -22 7 1 20 -3 29
-10 13 -12 14 -10 3 10 -7 12 -17 20 -23 16 -7 -4 -8 -3 -4 5 4 6 12 9 17 6 5
-4 9 -2 9 4 0 5 -6 11 -12 14 -10 3 -10 7 -1 19 15 18 7 29 -15 21 -13 -4 -12
-2 2 9 19 15 19 15 0 26 -10 6 -13 12 -6 12 12 0 3 12 -58 78 -14 15 -21 24
-15 20 18 -15 25 -8 13 12 -7 11 -18 18 -25 16 -8 -3 -10 1 -6 11 5 12 3 14
-7 8 -9 -6 -11 -4 -6 4 11 18 -20 48 -68 65 -32 12 -109 16 -341 20 -621 9
-868 50 -1195 196 -103 46 -840 417 -853 430 -5 4 40 25 100 48 59 22 227 86
373 142 417 160 568 212 555 191 -3 -7 0 -8 9 -5 9 3 13 11 10 16 -4 6 1 6 13
-1 14 -7 24 -7 33 2 7 7 10 7 7 1 -7 -12 26 -17 118 -18 42 0 87 9 150 31 50
18 146 48 215 68 195 56 384 123 510 180 116 53 292 125 304 125 4 0 148 56
319 124 172 69 357 140 411 160 54 19 108 44 120 55 12 10 57 32 101 47 50 17
92 40 111 59 36 35 60 101 51 137 -22 81 -112 156 -224 187 -107 28 -142 27
-253 -13z m-525 -2336 c3 -5 1 -10 -4 -10 -6 0 -11 5 -11 10 0 6 2 10 4 10 3
0 8 -4 11 -10z m15 -200 c0 -5 -4 -10 -10 -10 -5 0 -10 5 -10 10 0 6 5 10 10
10 6 0 10 -4 10 -10z m-334 -466 c1 -9 0 -13 -4 -10 -3 4 -7 14 -8 22 -1 9 0
13 4 10 3 -4 7 -14 8 -22z"/>
<path d="M316 3849 c-9 -45 -7 -139 2 -139 4 0 8 38 8 85 0 47 -1 85 -2 85 -1
0 -4 -14 -8 -31z"/>
<path d="M3770 3551 c0 -9 -9 -12 -27 -8 -16 3 -39 -1 -53 -8 l-25 -13 28 -13
c15 -7 27 -19 27 -27 0 -9 7 -13 20 -9 12 3 23 -1 28 -10 5 -8 18 -13 28 -11
10 2 24 -3 30 -11 10 -13 14 -13 28 -2 14 12 19 11 30 -5 11 -15 17 -16 29 -6
13 11 17 10 25 -4 9 -16 12 -16 27 -4 15 12 18 12 27 -3 7 -14 13 -15 30 -6
17 9 23 8 30 -5 8 -14 13 -15 24 -5 11 9 17 9 29 -1 8 -6 23 -9 34 -5 13 4 23
0 29 -12 9 -15 12 -15 27 -3 15 12 18 12 27 -4 8 -14 13 -15 24 -5 11 9 18 8
32 -4 14 -13 21 -14 30 -5 9 9 16 8 30 -5 14 -13 21 -14 31 -4 9 9 14 9 20 -2
6 -9 18 -11 33 -8 14 4 28 4 32 0 4 -4 14 -8 24 -9 144 -20 168 -29 198 -74
32 -49 48 -50 64 -7 13 37 26 207 16 207 -4 0 -22 -11 -40 -25 -38 -29 -80
-31 -196 -11 -41 8 -79 12 -86 9 -6 -2 -19 3 -28 12 -9 9 -16 12 -16 6 0 -16
-16 -14 -34 4 -8 8 -17 11 -20 6 -8 -12 -46 -2 -46 12 0 8 -3 8 -11 0 -12 -12
-39 -6 -51 11 -5 8 -8 7 -8 -1 0 -9 -7 -10 -26 -3 -14 6 -36 10 -50 10 -13 0
-24 4 -24 9 0 4 -12 6 -26 3 -16 -3 -30 1 -35 9 -6 10 -9 10 -9 2 0 -9 -7 -10
-26 -3 -14 6 -36 10 -49 10 -13 0 -26 6 -28 13 -4 9 -6 9 -6 -1 -1 -7 -5 -10
-11 -7 -5 3 -26 8 -47 11 -20 2 -41 10 -45 17 -6 9 -8 9 -8 0 0 -16 -32 -17
-48 -1 -9 9 -12 9 -12 -1z m977 -133 c-3 -8 -6 -5 -6 6 -1 11 2 17 5 13 3 -3
4 -12 1 -19z"/>
<path d="M2231 3059 c13 -12 40 -29 59 -39 19 -10 50 -30 69 -44 34 -25 71
-35 71 -18 0 13 -194 122 -218 122 -3 0 6 -9 19 -21z"/>
</g>
</svg>
