<svg xmlns="http://www.w3.org/2000/svg" viewBox="0 0 104 104">
    <circle cx="52" cy="52" r="52" fill="#f19210"/>
    <g fill="#FFF">
        <path d="M31.4 68.2c-4.2-4.4-6.5-10.1-6.5-16.2s2.3-11.8 6.5-16.2l1.3 1.3c-3.9 4-6 9.2-6 14.8s2.1 10.8 6 14.8l-1.3 1.5z"/>
        <path d="M24.7 72.8c-5.4-5.6-8.3-13-8.3-20.8 0-7.8 3-15.2 8.3-20.8l1.4 1.4c-5 5.2-7.7 12.1-7.7 19.3 0 7.2 2.7 14.1 7.7 19.3l-1.4 1.6zm12-10.2C34 59.7 32.5 56 32.5 52s1.5-7.7 4.2-10.6l1.3 1.3c-2.3 2.5-3.6 5.8-3.6 9.3 0 3.5 1.3 6.7 3.6 9.3l-1.3 1.3z"/>
    </g>
    <g fill="#fff">
        <path d="M72.946 35.986c4.2 4.4 6.5 10.1 6.5 16.2s-2.3 11.8-6.5 16.2l-1.3-1.3c3.9-4 6-9.2 6-14.8 0-5.6-2.1-10.8-6-14.8z"/>
        <path d="M79.646 31.386c5.4 5.6 8.3 13 8.3 20.8 0 7.8-3 15.2-8.3 20.8l-1.4-1.4c5-5.2 7.7-12.1 7.7-19.3 0-7.2-2.7-14.1-7.7-19.3zm-12 10.2c2.7 2.9 4.2 6.6 4.2 10.6s-1.5 7.7-4.2 10.6l-1.3-1.3c2.3-2.5 3.6-5.8 3.6-9.3 0-3.5-1.3-6.7-3.6-9.3z"/>
    </g>
    <path d="M51.955 38.572c4.146 0 7.519-3.448 7.519-7.686 0-4.237-3.373-7.685-7.519-7.685-4.145 0-7.518 3.448-7.518 7.685 0 4.238 3.373 7.686 7.518 7.686zm15.458 11.724l-5.948-8.473c-.58-.825-1.767-1.448-2.76-1.448H45.167c-.994 0-2.18.623-2.76 1.448l-5.95 8.473c-.598.852-.672 2.236-.168 3.15l4.816 8.74c.494.896 1.668 1.598 2.674 1.598h.254v21.128c0 1.956 1.556 3.547 3.47 3.547h.244c1.913 0 3.47-1.591 3.47-3.547V66.354h1.474v18.559c0 1.955 1.556 3.546 3.47 3.546h.243c1.913 0 3.47-1.59 3.47-3.546V63.784h.217c1.006 0 2.18-.701 2.674-1.597l4.816-8.74c.504-.915.43-2.299-.169-3.151zm-23.378 6.936l-2.358-3.928c-.256-.426-.234-1.186.045-1.596l2.313-3.394zm15.84-8.864l2.277 3.339c.279.41.3 1.17.045 1.597l-2.322 3.866z" fill="#fff"/>
</svg>
