<svg xmlns="http://www.w3.org/2000/svg" viewBox="0 0 104 104">
    <circle cx="52" cy="52" r="52" fill="#f1da10"/>
    <g fill="#fff">
        <path d="M31.4 68.2c-4.2-4.4-6.5-10.1-6.5-16.2s2.3-11.8 6.5-16.2l1.3 1.3c-3.9 4-6 9.2-6 14.8s2.1 10.8 6 14.8l-1.3 1.5z"/>
        <path d="M24.7 72.8c-5.4-5.6-8.3-13-8.3-20.8s3-15.2 8.3-20.8l1.4 1.4c-5 5.2-7.7 12.1-7.7 19.3s2.7 14.1 7.7 19.3l-1.4 1.6zm12-10.2C34 59.7 32.5 56 32.5 52s1.5-7.7 4.2-10.6l1.3 1.3c-2.3 2.5-3.6 5.8-3.6 9.3s1.3 6.7 3.6 9.3l-1.3 1.3z"/>
    </g>
    <g fill="#fff">
        <path d="M72.946 35.986c4.2 4.4 6.5 10.1 6.5 16.2s-2.3 11.8-6.5 16.2l-1.3-1.3c3.9-4 6-9.2 6-14.8s-2.1-10.8-6-14.8l1.3-1.5z"/>
        <path d="M79.646 31.386c5.4 5.6 8.3 13 8.3 20.8s-3 15.2-8.3 20.8l-1.4-1.4c5-5.2 7.7-12.1 7.7-19.3s-2.7-14.1-7.7-19.3l1.4-1.6zm-12 10.2c2.7 2.9 4.2 6.6 4.2 10.6s-1.5 7.7-4.2 10.6l-1.3-1.3c2.3-2.5 3.6-5.8 3.6-9.3s-1.3-6.7-3.6-9.3l1.3-1.3z"/>
    </g>
    <path d="M51.934 38.592c4.163 0 7.493-3.476 7.493-7.66.07-4.256-3.33-7.731-7.493-7.731s-7.493 3.475-7.493 7.66 3.4 7.73 7.493 7.73zm15.472 11.703l-5.967-8.44c-.555-.852-1.734-1.419-2.775-1.419H45.135c-.972 0-2.151.638-2.776 1.419l-5.966 8.44c-.625.851-.694 2.27-.14 3.12l4.857 8.796c.486.922 1.666 1.63 2.706 1.63h.278v21.066c0 1.986 1.526 3.547 3.469 3.547h.208c1.943 0 3.47-1.56 3.47-3.547V66.324h1.456v18.583c0 1.986 1.526 3.547 3.47 3.547h.277c1.942 0 3.469-1.56 3.469-3.547V63.771h.208c.971 0 2.15-.71 2.706-1.631l4.787-8.724c.486-.851.416-2.27-.208-3.121zm-23.382 6.95l-2.358-3.9c-.278-.426-.209-1.206.069-1.632l2.29-3.404v8.937zm15.82-8.865l2.289 3.333c.277.426.277 1.135.07 1.632l-2.29 3.9-.07-8.865z" fill="#fff"/>
</svg>
