<svg xmlns="http://www.w3.org/2000/svg" viewBox="0 0 104 104">
    <circle cx="52" cy="52" r="52" fill="#f1da10"/>
    <g fill="#fff" transform="matrix(-1 0 0 1 104.183 0)">
        <circle cx="63.5" cy="23" r="5.9"/>
        <path d="M81.2 49c-3.3-1.9-6.6-3.8-9.8-5.8-.1-.1-.1-.3-.2-.4-.5-1-1-2.1-1.4-3.1-.8-1.8-1.7-3.6-2.5-5.4-.2-.3-.4-.6-.6-.8-1.5-2.7-5.9-5-9.6-2.3-.2.1-.3.2-.5.3-3.1 2.3-6.2 4.6-9.2 6.9-1.7 1.2-1.7 4-2.2 5.9-.4 2-.9 3.9-1.3 5.9-.7 3.2 4.2 4.6 4.9 1.4.7-3.2 1.4-6.3 2.1-9.5 1.5-1.1 2.9-2.2 4.4-3.3l-3.5 14.9c-.1.2-.2.4-.2.6-.6 2.5-1.3 5-1.9 7.5-.4 1.5-.8 3-1.1 4.5-.1.2-.1.5-.2.7-2.7 4.7-5.5 9.5-8.2 14.2-2.2 3.7 3.6 7.1 5.8 3.4 2.7-4.7 5.5-9.5 8.2-14.2 1.1-1.9 1.3-4.2 1.9-6.3.4-1.7.8-3.3 1.3-5L67 69.3c.1.5.1 1 .2 1.5.3 1.8.5 3.6.8 5.4l1.2 8.1c.3 1.8 2.5 2.8 4.1 2.3 1.9-.5 2.6-2.3 2.3-4.1l-1.2-8.1c-.3-1.8-.5-3.6-.8-5.4-.2-1.3-.2-2.6-1.2-3.6-3.1-3.4-6.3-6.7-9.4-10.1l.4-1.2 2.1-12c.7 1.5 1.3 4.1 2.8 5 3.5 2 7 4.1 10.5 6.1 2.7 1.9 5.3-2.5 2.4-4.2z"/>
    </g>
    <g fill="#fff">
        <path d="M71 68.2c4.2-4.4 6.5-10.1 6.5-16.2S75.2 40.2 71 35.8l-1.3 1.3c3.9 4 6 9.2 6 14.8s-2.1 10.8-6 14.8l1.3 1.5z"/>
        <path d="M77.7 72.8c5.4-5.6 8.3-13 8.3-20.8s-3-15.2-8.3-20.8l-1.4 1.4c5 5.2 7.7 12.1 7.7 19.3S81.3 66 76.3 71.2l1.4 1.6zM65.7 62.6c2.7-2.9 4.2-6.6 4.2-10.6s-1.5-7.7-4.2-10.6l-1.3 1.3c2.3 2.5 3.6 5.8 3.6 9.3s-1.3 6.7-3.6 9.3l1.3 1.3z"/>
    </g>
</svg>
