<?xml version="1.0" encoding="utf-8"?>
<!-- Generator: Adobe Illustrator 21.0.0, SVG Export Plug-In . SVG Version: 6.00 Build 0)  -->
<svg version="1.1"
	 id="svg2" inkscape:version="0.48.5 r10040" sodipodi:docname="–≤–Р–£вАУвЙ†–≤–Р–£вАУ–Ъ–≤–Р–£–≤–Щ¬І–≤–Р–§вАУ–Ђ–≤–Р–£вАФ–§ –≤–Р–£вАФ–¶–≤–Р–£вАУ–Ъ–≤–Р–£вАУ–Ч–≤–Р–§вАУ–£–≤–Р–£вАУ–Щ–≤–Р–£¬ђ¬µ–≤–Р–£вАФ–©–≤–Р–§вАУ–Ґ 1" xmlns:cc="http://creativecommons.org/ns#" xmlns:dc="http://purl.org/dc/elements/1.1/" xmlns:inkscape="http://www.inkscape.org/namespaces/inkscape" xmlns:rdf="http://www.w3.org/1999/02/22-rdf-syntax-ns#" xmlns:sodipodi="http://sodipodi.sourceforge.net/DTD/sodipodi-0.dtd" xmlns:svg="http://www.w3.org/2000/svg"
	 xmlns="http://www.w3.org/2000/svg" xmlns:xlink="http://www.w3.org/1999/xlink" x="0px" y="0px" viewBox="0 0 100 100"
	 style="enable-background:new 0 0 100 100;" xml:space="preserve">
<style type="text/css">
	.st0{fill:#FF0000;}
	.st1{fill:#FFFFFF;}
</style>
<sodipodi:namedview  bordercolor="#666666" borderopacity="1.0" fit-margin-bottom="0" fit-margin-left="0" fit-margin-right="0" fit-margin-top="0" id="base" inkscape:current-layer="layer1" inkscape:cx="28.757904" inkscape:cy="11.582174" inkscape:document-units="px" inkscape:pageopacity="0.0" inkscape:pageshadow="2" inkscape:window-height="846" inkscape:window-maximized="1" inkscape:window-width="1440" inkscape:window-x="-3" inkscape:window-y="-3" inkscape:zoom="2.8" pagecolor="#ffffff" showgrid="false">
	</sodipodi:namedview>
<g id="layer1" transform="translate(-334.82563,-261.77081)" inkscape:groupmode="layer" inkscape:label="Layer 1">
	<path id="path2996" inkscape:connector-curvature="0" class="st0" d="M379.9,361.5c-27.2-2.3-47.6-27.3-44.8-54.9
		c2.4-23.4,21-42.3,44.1-44.6c25.2-2.6,48,13.1,54.3,37.3c2.6,10.1,1.5,22.9-2.8,32.7c-4.4,10-13.6,19.6-23.6,24.7
		c-3.7,1.9-11.4,4.1-15.5,4.4c-2.3,0.2-4.7,0.4-5.4,0.5C385.4,361.9,382.6,361.8,379.9,361.5L379.9,361.5z"/>
</g>
<g transform="translate(0.000000,512.000000) scale(0.100000,-0.100000)">
	<path class="st1" d="M484.5,4918c-19.2-5.2-36.2-19.3-44.6-36.9c-5.6-11.8-7.3-19.1-7.3-31.6v-9.1l-27.2-0.5
		c-22.7-0.2-27.9-0.7-30.8-2.3c-16.4-9-16.7-32.6-0.6-40.7c4.2-2.1,6.9-2.3,31.6-2.3h26.9v-10.4v-10.4l-27.2-0.5
		c-22.7-0.2-27.9-0.7-30.8-2.3c-9.3-5-14.1-15.1-12.1-25.3c1.2-6.6,3.2-9.6,8.7-13.9l4.3-3.3l28.6-0.4l28.5-0.4v-10.4v-10.5h-23.4
		c-12.8,0-26-0.6-29.4-1.3c-13.7-2.9-21-16.6-16.3-30.8c1.4-4.4,7.4-10.5,12.1-12.3c2-0.8,14.1-1.3,30.2-1.3h26.8v-10.5v-10.5h-23.4
		c-27.9,0-33.8-1.1-40.2-6.9c-11.5-10.8-8.2-31.1,5.9-37.1c2.8-1.3,10.4-1.6,30.8-1.6h26.9v-12.8v-12.9l-6.7-4.8
		c-26-18.5-46-48.6-52.6-79c-10.4-47.9,3.9-95.1,38.9-128.2c20-19.1,45.1-31.3,71.8-35.1c15.3-2.3,41.5-0.9,55,2.8
		c45.7,12.6,80.9,46.6,94.3,90.9c4.1,13.8,5.5,24,5.5,40.4c0,27.6-7.3,51.2-22.7,74.4c-7.1,10.8-25.8,29.4-35.6,35.7l-7.3,4.7
		l-0.4,147l-0.4,147l-3.2,8.8c-8.2,22.2-26.6,39.3-48.5,45C512,4920.3,492.9,4920.3,484.5,4918z M515.4,4865.2
		c6.3-2.2,12.2-8.9,15.7-17.6l2.8-6.9l0.4-156.6l0.2-156.6l6-1.9c28.2-9.4,47-37.6,47.2-70.8c0-13.9-1.6-21.2-8.1-34.5
		c-6.1-12.6-13.5-22.1-22.6-29.3c-34.2-26.8-80.8-24.5-110.9,5.9c-10.8,10.8-16.9,20.6-21.3,34c-3.9,11.9-4.4,31.8-1.2,43.9
		c5.7,21.7,19.1,38.1,38.2,47.1l10.7,5v152.9c0,101.4,0.5,155,1.2,159.5C477.9,4862.4,494.4,4872.6,515.4,4865.2z"/>
	<path class="st1" d="M493.8,4856c-5.6-2.3-9.4-10-10.8-21.7c-0.8-6-1.3-38.4-1.3-82.2v-72.4h21.1H524l-0.4,81.1
		c-0.4,72.8-0.6,81.5-2.3,85.1c-2.5,5.2-6.2,9.3-10,10.7C507.3,4858.2,498.2,4857.9,493.8,4856z"/>
	<path class="st1" d="M544.2,4481.8c-6.4-1.9-8.4-5.7-8.4-16.6c0.1-16.2-3.7-26.8-15.2-42.3c-6.3-8.5-7.1-11.5-4.1-15.7
		c2.8-4,8-6.1,15.1-6.1c8.8,0,12.2,2,19.2,11.4c11.8,15.9,17.7,32.6,17.7,50.8c0,9.3-0.4,10.5-2.9,13.7c-1.8,2.1-4.8,4-8.1,4.8
		C551.3,4483.3,549.3,4483.3,544.2,4481.8z"/>
</g>
</svg>
