<svg xmlns="http://www.w3.org/2000/svg" viewBox="0 0 100 100">
    <path d="M45.074 99.73c-27.2-2.3-47.6-27.3-44.8-54.9 2.4-23.4 21-42.3 44.1-44.6 25.2-2.6 48 13.1 54.3 37.3 2.6 10.1 1.5 22.9-2.8 32.7-4.4 10-13.6 19.6-23.6 24.7-3.7 1.9-11.4 4.1-15.5 4.4-2.3.2-4.7.4-5.4.5-.8.3-3.6.2-6.3-.1z"
          fill="#00adef"/>
    <path fill="#fff"
          d="M48.45 20.2c-1.92.52-3.62 1.93-4.46 3.69-.56 1.18-.73 1.91-.73 3.16v.91l-2.72.05c-2.27.02-2.79.07-3.08.23-1.64.9-1.67 3.26-.06 4.07.42.21.69.23 3.16.23h2.69v2.08l-2.72.05c-2.27.02-2.79.07-3.08.23-.93.5-1.41 1.51-1.21 2.53.12.66.32.96.87 1.39l.43.33 2.86.04 2.85.04v2.09h-2.34c-1.28 0-2.6.06-2.94.13-1.37.29-2.1 1.66-1.63 3.08.14.44.74 1.05 1.21 1.23.2.08 1.41.13 3.02.13h2.68v2.1h-2.34c-2.79 0-3.38.11-4.02.69-1.15 1.08-.82 3.11.59 3.71.28.13 1.04.16 3.08.16h2.69v2.57l-.67.48c-2.6 1.85-4.6 4.86-5.26 7.9-1.04 4.79.39 9.51 3.89 12.82 2 1.91 4.51 3.13 7.18 3.51 1.53.23 4.15.09 5.5-.28 4.57-1.26 8.09-4.66 9.43-9.09.41-1.38.55-2.4.55-4.04 0-2.76-.73-5.12-2.27-7.44-.71-1.08-2.58-2.94-3.56-3.57l-.73-.47-.04-14.7-.04-14.7-.32-.88c-.82-2.22-2.66-3.93-4.85-4.5-.86-.19-2.77-.19-3.61.04zm3.09 5.28c.63.22 1.22.89 1.57 1.76l.28.69.04 15.66.02 15.66.6.19c2.82.94 4.7 3.76 4.72 7.08 0 1.39-.16 2.12-.81 3.45-.61 1.26-1.35 2.21-2.26 2.93-3.42 2.68-8.08 2.45-11.09-.59-1.08-1.08-1.69-2.06-2.13-3.4-.39-1.19-.44-3.18-.12-4.39.57-2.17 1.91-3.81 3.82-4.71l1.07-.5V44.02c0-10.14.05-15.5.12-15.95.42-2.31 2.07-3.33 4.17-2.59z"/>
    <path fill="#fff"
          d="M49.38 26.4c-.56.23-.94 1-1.08 2.17-.08.6-.13 3.84-.13 8.22v7.24h4.23l-.04-8.11c-.04-7.28-.06-8.15-.23-8.51-.25-.52-.62-.93-1-1.07-.4-.16-1.31-.13-1.75.06zm5.04 37.42c-.64.19-.84.57-.84 1.66.01 1.62-.37 2.68-1.52 4.23-.63.85-.71 1.15-.41 1.57.28.4.8.61 1.51.61.88 0 1.22-.2 1.92-1.14 1.18-1.59 1.77-3.26 1.77-5.08 0-.93-.04-1.05-.29-1.37a1.6 1.6 0 00-.81-.48c-.62-.15-.82-.15-1.33 0z"/>
</svg>
