<svg version="1.1" id="svg2" xmlns="http://www.w3.org/2000/svg" x="0" y="0" viewBox="0 0 100 100" xml:space="preserve">
    <g id="layer1" transform="translate(-334.826 -261.77)"><path id="path2996" d="M379.9 361.5c-27.2-2.3-47.6-27.3-44.8-54.9 2.4-23.4 21-42.3 44.1-44.6 25.2-2.6 48 13.1 54.3 37.3 2.6 10.1 1.5 22.9-2.8 32.7-4.4 10-13.6 19.6-23.6 24.7-3.7 1.9-11.4 4.1-15.5 4.4-2.3.2-4.7.4-5.4.5-.8.3-3.6.2-6.3-.1z" fill="#00adef"/></g>
    <path fill="#fff"
          d="M484.5 4918c-19.2-5.2-36.2-19.3-44.6-36.9-5.6-11.8-7.3-19.1-7.3-31.6v-9.1l-27.2-.5c-22.7-.2-27.9-.7-30.8-2.3-16.4-9-16.7-32.6-.6-40.7 4.2-2.1 6.9-2.3 31.6-2.3h26.9v-20.8l-27.2-.5c-22.7-.2-27.9-.7-30.8-2.3-9.3-5-14.1-15.1-12.1-25.3 1.2-6.6 3.2-9.6 8.7-13.9l4.3-3.3 28.6-.4 28.5-.4v-20.9h-23.4c-12.8 0-26-.6-29.4-1.3-13.7-2.9-21-16.6-16.3-30.8 1.4-4.4 7.4-10.5 12.1-12.3 2-.8 14.1-1.3 30.2-1.3h26.8v-21h-23.4c-27.9 0-33.8-1.1-40.2-6.9-11.5-10.8-8.2-31.1 5.9-37.1 2.8-1.3 10.4-1.6 30.8-1.6h26.9V4568.8l-6.7-4.8c-26-18.5-46-48.6-52.6-79-10.4-47.9 3.9-95.1 38.9-128.2 20-19.1 45.1-31.3 71.8-35.1 15.3-2.3 41.5-.9 55 2.8 45.7 12.6 80.9 46.6 94.3 90.9 4.1 13.8 5.5 24 5.5 40.4 0 27.6-7.3 51.2-22.7 74.4-7.1 10.8-25.8 29.4-35.6 35.7l-7.3 4.7-.4 147-.4 147-3.2 8.8c-8.2 22.2-26.6 39.3-48.5 45-8.6 1.9-27.7 1.9-36.1-.4zm30.9-52.8c6.3-2.2 12.2-8.9 15.7-17.6l2.8-6.9.4-156.6.2-156.6 6-1.9c28.2-9.4 47-37.6 47.2-70.8 0-13.9-1.6-21.2-8.1-34.5-6.1-12.6-13.5-22.1-22.6-29.3-34.2-26.8-80.8-24.5-110.9 5.9-10.8 10.8-16.9 20.6-21.3 34-3.9 11.9-4.4 31.8-1.2 43.9 5.7 21.7 19.1 38.1 38.2 47.1l10.7 5v152.9c0 101.4.5 155 1.2 159.5 4.2 23.1 20.7 33.3 41.7 25.9z"
          transform="matrix(.1 0 0 -.1 0 512)"/>
    <path fill="#fff"
          d="M493.8 4856c-5.6-2.3-9.4-10-10.8-21.7-.8-6-1.3-38.4-1.3-82.2v-72.4H524l-.4 81.1c-.4 72.8-.6 81.5-2.3 85.1-2.5 5.2-6.2 9.3-10 10.7-4 1.6-13.1 1.3-17.5-.6zM544.2 4481.8c-6.4-1.9-8.4-5.7-8.4-16.6.1-16.2-3.7-26.8-15.2-42.3-6.3-8.5-7.1-11.5-4.1-15.7 2.8-4 8-6.1 15.1-6.1 8.8 0 12.2 2 19.2 11.4 11.8 15.9 17.7 32.6 17.7 50.8 0 9.3-.4 10.5-2.9 13.7-1.8 2.1-4.8 4-8.1 4.8-6.2 1.5-8.2 1.5-13.3 0z"
          transform="matrix(.1 0 0 -.1 0 512)"/></svg>