<!-- Created with Inkscape (http://www.inkscape.org/) -->
<svg xmlns="http://www.w3.org/2000/svg" height="100.03438" width="100" version="1.1">
    <g transform="translate(-334.82563,-261.77081)">
        <path fill="#00adef"
              d="M49.03125,0c-1.554333,0.01997948-3.110281,0.12138313-4.6875,0.28125-23.04714,2.33605-41.71634,21.20662-44.09375,44.59375-2.80193,27.56348,17.60876,52.55721,44.8125,54.875,2.72113,0.23189,5.50722,0.3415,6.1875,0.25s3.10004-0.33288,5.375-0.53125c4.14803-0.3617,11.89567-2.56374,15.5625-4.4375,10.01993-5.12021,19.1848-14.71808,23.59375-24.6875,4.33963-9.81267,5.43724-22.62188,2.8125-32.75-5.890294-22.728928-26.247504-37.89344224-49.5625-37.59375zm11.90625,34.875h3.40625v3h-3.4375c-1.289073,0.000027-2.179697,0.260444-2.6875,0.78125-0.4948,0.520859-0.750008,1.458358-0.75,2.8125v1.9375h9.875v-1.53125c-0.000018-2.43487,0.554669-4.205702,1.6875-5.3125,1.132792-1.119762,2.91404-1.68747,5.375-1.6875h3.40625v3h-3.4375c-1.289086,0.000027-2.17971,0.260444-2.6875,0.78125-0.494813,0.520859-0.750021,1.458358-0.75,2.8125v1.9375h5.9375v2.78125h-5.9375v19.09375h-3.59375v-19.09375h-9.875v19.09375h-3.625v-19.09375h-3.4375v-2.78125h3.4375v-1.53125c-0.000004-2.43487,0.585933-4.205702,1.71875-5.3125,1.132805-1.119762,2.914054-1.68747,5.375-1.6875zm-27.15625,0.71875c4.088522,0.00003,7.36456,1.377632,9.8125,4.125,2.447889,2.734398,3.656221,6.390644,3.65625,11-0.000029,4.596364-1.208361,8.28386-3.65625,11.03125-2.44794,2.734376-5.723978,4.093749-9.8125,4.09375-4.101574-0.000001-7.382821-1.359374-9.84375-4.09375-2.44792-2.734369-3.687502-6.421865-3.6875-11.03125-0.000002-4.609356,1.23958-8.265602,3.6875-11,2.460929-2.747368,5.742176-4.12497,9.84375-4.125zm0,3.1875c-2.864596,0.000026-5.151052,1.083359-6.84375,3.21875-1.679695,2.135438-2.531256,5.033872-2.53125,8.71875-0.000006,3.671886,0.851555,6.583341,2.53125,8.71875,1.692698,2.13542,3.979154,3.187503,6.84375,3.1875,2.864565,0.000003,5.114562-1.05208,6.78125-3.1875,1.679663-2.135409,2.531225-5.046864,2.53125-8.71875-0.000025-3.684878-0.851587-6.583312-2.53125-8.71875-1.666688-2.135391-3.916685-3.218724-6.78125-3.21875z"
              transform="translate(334.82563,261.77081)"/>
    </g>
</svg>
