<!-- Created with Inkscape (http://www.inkscape.org/) -->
<svg xmlns="http://www.w3.org/2000/svg" height="100.03438" width="100" version="1.1">
    <g transform="translate(-334.82563,-261.77081)">
        <path fill="#00adef"
              d="M49.03125,0c-1.554333,0.01997948-3.110281,0.12138313-4.6875,0.28125-23.04714,2.33605-41.71634,21.20662-44.09375,44.59375-2.80193,27.56348,17.60876,52.55721,44.8125,54.875,2.72113,0.23189,5.50722,0.3415,6.1875,0.25s3.10004-0.33288,5.375-0.53125c4.14803-0.3617,11.89567-2.56374,15.5625-4.4375,10.01993-5.12021,19.1848-14.71808,23.59375-24.6875,4.33963-9.81267,5.43724-22.62188,2.8125-32.75-5.890294-22.728928-26.247504-37.89344224-49.5625-37.59375zm-18.875,21.9375l2.8125,2.78125,2.78125,2.78125,0.375-0.21875c3.177147-1.953845,6.667915-3.186987,10.40625-3.6875,1.805838-0.24178,3.86375-0.282486,5.71875-0.125,4.994059,0.423988,9.720129,2.221857,13.75,5.25,1.034405,0.77726,1.820238,1.445266,2.84375,2.46875,0.728863,0.728895,1.106882,1.160753,1.625,1.78125,2.138206,2.560688,3.815386,5.588878,4.84375,8.71875,0.705381,2.146838,1.111337,4.254834,1.28125,6.625,0.01556,0.21669,0.05426,0.782865,0.0625,1.28125,0.05031,2.952098-0.396833,5.829875-1.3125,8.65625-0.265033,0.818109-0.848758,2.360027-0.90625,2.375-0.01282,0.0032-1.030469-0.581737-2.28125-1.3125l-2.28125-1.34375,0.09375-0.25c0.817207-2.10733,1.274009-4.271408,1.40625-6.5625,0.03479-0.600901,0.01453-2.211095-0.03125-2.75-0.241826-2.8457-0.90855-5.372157-2.125-7.84375-2.354168-4.7833-6.431691-8.539728-11.40625-10.5-2.064692-0.813618-4.282426-1.295074-6.59375-1.4375-0.545079-0.0336-1.884273-0.002855-2.4375,0.03125-3.114799,0.190929-6.145405,1.037111-8.84375,2.5-0.173347,0.09398-0.337158,0.181554-0.34375,0.1875-0.0069,0.006,1.389805,1.389718,3.09375,3.09375l3.09375,3.09375h-7.8125-7.8125v-7.78125-7.8125zm-4.75,17.8125c0.01282,0,1.06355,0.622247,2.3125,1.375l2.25,1.375-0.0625,0.15625c-0.539174,1.43255-0.952829,3.147444-1.15625,4.75-0.183646,1.446973-0.205909,3.220171-0.0625,4.6875,0.444788,4.550392,2.269462,8.710339,5.34375,12.1875,0.17971,0.203283,0.561231,0.592463,0.84375,0.875,3.424232,3.424205,7.831401,5.566911,12.59375,6.125,0.994079,0.116495,1.297072,0.126144,2.5625,0.125,1.258929-0.000915,1.640305-0.000983,2.625-0.125,2.03384-0.256193,4.012328-0.835221,5.9375-1.6875,0.459024-0.203197,1.258119-0.576044,1.625-0.78125l0.1875-0.125-3.09375-3.09375-3.09375-3.09375h7.8125,7.8125v7.8125c0,4.290445-0.02945,7.78125-0.03125,7.78125-0.0046,0-1.249141-1.249127-2.78125-2.78125l-2.78125-2.78125-0.5,0.28125c-2.322767,1.402412-4.665633,2.40742-7.25,3.0625-2.15386,0.545958-4.292493,0.8125-6.5,0.8125-5.04615,0-9.936389-1.426006-14.21875-4.125-2.890001-1.821443-5.461596-4.231383-7.46875-7.03125-4.886443-6.816299-6.248324-15.550437-3.71875-23.5625,0.252537-0.799808,0.764895-2.21875,0.8125-2.21875z"
              transform="translate(334.82563,261.77081)"/>
    </g>
</svg>
