<!-- Created with Inkscape (http://www.inkscape.org/) -->
<svg xmlns="http://www.w3.org/2000/svg" height="100.03438" width="100" version="1.1">
    <g transform="translate(-334.82563,-261.77081)">
        <path fill="#00adef" transform="translate(334.82563,261.77081)"
              d="M49.03125,0c-1.554333,0.019979482-3.110281,0.12138313-4.6875,0.28125-23.04714,2.33605-41.71634,21.20662-44.09375,44.59375-2.80193,27.56348,17.60876,52.55721,44.8125,54.875,2.72113,0.23189,5.50722,0.3415,6.1875,0.25s3.10004-0.33288,5.375-0.53125c4.14803-0.3617,11.89567-2.56374,15.5625-4.4375,10.01993-5.12021,19.1848-14.71808,23.59375-24.6875,4.33963-9.81267,5.43724-22.62188,2.8125-32.75-5.890294-22.728928-26.247504-37.89344224-49.5625-37.59375zm-12.71875,35.375c4.088522,0.00003,7.36456,1.377632,9.8125,4.125,2.447889,2.734398,3.656221,6.390644,3.65625,11-0.000029,4.596364-1.208361,8.28386-3.65625,11.03125-2.44794,2.734376-5.723978,4.093749-9.8125,4.09375-4.101574-0.000001-7.382821-1.359374-9.84375-4.09375-2.44792-2.734369-3.656252-6.421865-3.65625-11.03125-0.000002-4.609356,1.20833-8.265602,3.65625-11,2.460929-2.747368,5.742176-4.12497,9.84375-4.125zm0,3.21875c-2.864596,0.000026-5.151052,1.052109-6.84375,3.1875-1.679695,2.135438-2.500006,5.033872-2.5,8.71875-0.000006,3.671886,0.820305,6.583341,2.5,8.71875,1.692698,2.13542,3.979154,3.218753,6.84375,3.21875,2.864565,0.000003,5.145812-1.08333,6.8125-3.21875,1.679663-2.135409,2.499975-5.046864,2.5-8.71875-0.000025-3.684878-0.820337-6.583312-2.5-8.71875-1.666688-2.135391-3.947935-3.187474-6.8125-3.1875zm30.03125,4.0625c2.513004,0.000022,4.429669,0.781272,5.71875,2.34375,1.289041,1.549498,1.937478,3.854183,1.9375,6.875v13.1875h-3.59375v-13.09375c-0.000018-2.070297-0.411476-3.596337-1.21875-4.625-0.807308-1.028627-2.010432-1.562481-3.625-1.5625-1.940116,0.000019-3.473968,0.638039-4.59375,1.875-1.119799,1.236995-1.687507,2.895848-1.6875,5.03125v12.375h-3.59375v-21.875h3.59375v3.40625c0.859367-1.315084,1.872387-2.317688,3.03125-2.96875,1.171864-0.65102,2.5078-0.968728,4.03125-0.96875z"/>
    </g>
</svg>
