<svg xmlns="http://www.w3.org/2000/svg" height="100.034" width="100">
    <path fill="#00adef" d="M49.031 0c-1.554.02-3.11.121-4.687.281C21.297 2.617 2.627 21.488.25 44.875-2.552 72.438 17.859 97.432 45.063 99.75c2.72.232 5.507.342 6.187.25s3.1-.333 5.375-.531c4.148-.362 11.896-2.564 15.563-4.438 10.02-5.12 19.184-14.718 23.593-24.687 4.34-9.813 5.437-22.622 2.813-32.75C92.704 14.864 72.346-.3 49.03 0zM36.313 35.375c4.088 0 7.364 1.378 9.812 4.125 2.448 2.734 3.656 6.39 3.656 11 0 4.596-1.208 8.284-3.656 11.031-2.448 2.735-5.724 4.094-9.813 4.094-4.101 0-7.382-1.36-9.843-4.094-2.448-2.734-3.657-6.422-3.657-11.031 0-4.61 1.209-8.266 3.657-11 2.46-2.747 5.742-4.125 9.843-4.125zm0 3.219c-2.865 0-5.152 1.052-6.844 3.187-1.68 2.136-2.5 5.034-2.5 8.719 0 3.672.82 6.583 2.5 8.719 1.692 2.135 3.979 3.219 6.843 3.218 2.865 0 5.146-1.083 6.813-3.218 1.68-2.136 2.5-5.047 2.5-8.719 0-3.685-.82-6.583-2.5-8.719-1.667-2.135-3.948-3.187-6.813-3.187zm30.03 4.062c2.514 0 4.43.782 5.72 2.344C73.352 46.55 74 48.854 74 51.875v13.188h-3.594V51.968c0-2.07-.411-3.597-1.219-4.625-.807-1.029-2.01-1.563-3.624-1.563-1.94 0-3.474.638-4.594 1.875s-1.688 2.896-1.688 5.032v12.374h-3.593V43.189h3.593v3.406c.86-1.315 1.873-2.318 3.032-2.969 1.171-.651 2.507-.969 4.03-.969z"/>
</svg>
