<svg xmlns="http://www.w3.org/2000/svg" height="100.034" width="100">
    <path fill="#00adef" d="M49.031 0c-1.554.02-3.11.121-4.687.281C21.297 2.617 2.627 21.488.25 44.875-2.552 72.438 17.859 97.432 45.063 99.75c2.72.232 5.507.342 6.187.25s3.1-.333 5.375-.531c4.148-.362 11.896-2.564 15.563-4.438 10.02-5.12 19.184-14.718 23.593-24.687 4.34-9.813 5.437-22.622 2.813-32.75C92.704 14.864 72.346-.3 49.03 0zM30.156 21.938l2.813 2.78L35.75 27.5l.375-.219c3.177-1.954 6.668-3.187 10.406-3.687a27.324 27.324 0 015.719-.125A26.525 26.525 0 0166 28.719a24.497 24.497 0 012.844 2.468c.729.73 1.107 1.161 1.625 1.782a26.834 26.834 0 014.844 8.718c.705 2.147 1.11 4.255 1.28 6.626.016.216.055.782.063 1.28.05 2.953-.397 5.83-1.312 8.657-.265.818-.849 2.36-.906 2.375-.013.003-1.031-.582-2.282-1.313l-2.281-1.343.094-.25a21.332 21.332 0 001.406-6.563c.035-.6.015-2.21-.031-2.75-.242-2.845-.909-5.372-2.125-7.843a21.523 21.523 0 00-11.406-10.5 21.545 21.545 0 00-6.594-1.438c-.545-.034-1.885-.003-2.438.031-3.115.191-6.145 1.037-8.843 2.5-.174.094-.338.182-.344.188-.007.006 1.39 1.39 3.093 3.093l3.094 3.094H30.156V21.937zm-4.75 17.812c.013 0 1.064.622 2.313 1.375l2.25 1.375-.063.156c-.539 1.433-.953 3.148-1.156 4.75a22.443 22.443 0 00-.063 4.688c.445 4.55 2.27 8.71 5.344 12.187.18.204.561.593.844.875 3.424 3.424 7.831 5.567 12.594 6.125.994.117 1.297.126 2.562.125 1.26 0 1.64 0 2.625-.125 2.034-.256 4.013-.835 5.938-1.687.459-.203 1.258-.576 1.625-.781l.187-.126-3.093-3.093-3.094-3.094h15.625v7.813c0 4.29-.03 7.78-.031 7.78-.005 0-1.25-1.248-2.782-2.78L64.25 72.53l-.5.281c-2.323 1.403-4.666 2.408-7.25 3.063a26.185 26.185 0 01-6.5.813 26.574 26.574 0 01-14.219-4.126 26.867 26.867 0 01-7.468-7.03c-4.887-6.817-6.249-15.551-3.72-23.563.253-.8.766-2.219.813-2.219z"/>
</svg>
