<svg xmlns="http://www.w3.org/2000/svg" height="100.034" width="100">
    <path fill="#00adef" d="M49.031 0c-1.554.02-3.11.121-4.687.281C21.297 2.617 2.627 21.488.25 44.875-2.552 72.438 17.859 97.432 45.063 99.75c2.72.232 5.507.342 6.187.25s3.1-.333 5.375-.531c4.148-.362 11.896-2.564 15.563-4.438 10.02-5.12 19.184-14.718 23.593-24.687 4.34-9.813 5.437-22.622 2.813-32.75C92.704 14.864 72.346-.3 49.03 0zm11.907 34.875h3.406v3h-3.438c-1.289 0-2.18.26-2.687.781-.495.521-.75 1.459-.75 2.813v1.937h9.875v-1.531c0-2.435.554-4.206 1.687-5.313 1.133-1.12 2.914-1.687 5.375-1.687h3.406v3h-3.437c-1.29 0-2.18.26-2.688.781-.494.521-.75 1.459-.75 2.813v1.937h5.938v2.782h-5.938V65.28h-3.593V46.187h-9.875v19.094h-3.625V46.187h-3.438v-2.78h3.438v-1.532c0-2.435.586-4.206 1.718-5.313 1.133-1.12 2.915-1.687 5.376-1.687zm-27.157.719c4.089 0 7.365 1.377 9.813 4.125 2.448 2.734 3.656 6.39 3.656 11 0 4.596-1.208 8.284-3.656 11.031-2.448 2.734-5.724 4.094-9.813 4.094-4.101 0-7.383-1.36-9.843-4.094-2.448-2.734-3.688-6.422-3.688-11.031 0-4.61 1.24-8.266 3.688-11 2.46-2.748 5.742-4.125 9.843-4.125zm0 3.187c-2.864 0-5.15 1.084-6.843 3.219-1.68 2.135-2.532 5.034-2.532 8.719 0 3.672.852 6.583 2.532 8.718 1.692 2.136 3.979 3.188 6.843 3.188 2.865 0 5.115-1.052 6.782-3.188 1.68-2.135 2.53-5.046 2.53-8.718 0-3.685-.85-6.584-2.53-8.719-1.667-2.135-3.917-3.219-6.782-3.219z"/>
</svg>
