<?xml version="1.0" encoding="utf-8"?>
<svg viewBox="0 0 425 170" xmlns="http://www.w3.org/2000/svg">
  <g style="" transform="matrix(1, 0, -0.013876, 1, 5.24029, 4.658709)">
      <svg viewBox="0 0 640 400" preserveAspectRatio="xMidYMid meet" height="400" width="640" xmlns="http://www.w3.org/2000/svg" data-background-color="#fefefe" style="">
            <rect width="413.593" height="158.346" opacity="1" id="background" style="fill: rgba(254, 254, 254, 0);"/>
            <g id="tight-bounds" transform="matrix(1, 0, 0, 1, 11.072955, 10.323219)">
              <svg viewBox="0 0 395.5199999999999 137.87714738445064" height="137.87714738445064" width="395.5199999999999" style="">
                <g>
                  <svg viewBox="0 0 684.5197569591597 238.62164092290251" height="137.87714738445064" width="395.5199999999999">
                    <g>
                      <rect width="8.233723247246441" height="238.62164092290251" x="263.3983263789919" y="0" fill="#fff" opacity="1" stroke-width="0" stroke="transparent" fill-opacity="1" class="rect-borderrectangle-0"  rx="1%" id="borderrectangle-0"/>
                    </g>
                    <g transform="matrix(1,0,0,1,293.1862989645798,0.5935861714499993)">
                      <svg viewBox="0 0 391.33345799457993 237.43446858000252" height="237.43446858000252" width="391.33345799457993">
                        <g id="textblocktransform">
                          <svg viewBox="0 0 391.33345799457993 237.43446858000252" height="237.43446858000252" width="391.33345799457993" id="textblock">
                            <g>
                              <svg viewBox="0 0 391.33345799457993 198.764" height="198.764" width="391.33345799457993">
                                <g transform="matrix(1,0,0,1,0,0)">
                                  <svg width="391.33345799457993" viewBox="1.9000000953674316 -33.29999923706055 145.3000030517578 70.80000305175781" height="198.764" data-palette-color="#111111">
                                    <svg/>
                                    <svg/>
                                    <g class="wordmark-text-0" id="text-0">
                                      <path xmlns="http://www.w3.org/2000/svg" d="M13.7 0.6v0c-2.2 0-4.323-0.417-6.37-1.25-2.053-0.833-3.863-2.017-5.43-3.55v0l3.4-3.95c1.167 1.1 2.5 1.99 4 2.67 1.5 0.687 3 1.03 4.5 1.03v0c1.867 0 3.283-0.383 4.25-1.15 0.967-0.767 1.45-1.783 1.45-3.05v0c0-0.667-0.123-1.233-0.37-1.7-0.253-0.467-0.607-0.877-1.06-1.23-0.447-0.347-0.977-0.67-1.59-0.97-0.62-0.3-1.297-0.6-2.03-0.9v0l-4.5-1.95c-0.8-0.333-1.59-0.75-2.37-1.25-0.787-0.5-1.497-1.1-2.13-1.8-0.633-0.7-1.14-1.517-1.52-2.45-0.387-0.933-0.58-2-0.58-3.2v0c0-1.3 0.273-2.51 0.82-3.63 0.553-1.113 1.313-2.087 2.28-2.92 0.967-0.833 2.127-1.483 3.48-1.95 1.347-0.467 2.82-0.7 4.42-0.7v0c1.9 0 3.733 0.373 5.5 1.12 1.767 0.753 3.283 1.763 4.55 3.03v0l-2.95 3.7c-1.067-0.867-2.167-1.55-3.3-2.05-1.133-0.5-2.4-0.75-3.8-0.75v0c-1.567 0-2.817 0.34-3.75 1.02-0.933 0.687-1.4 1.63-1.4 2.83v0c0 0.633 0.143 1.173 0.43 1.62 0.28 0.453 0.663 0.853 1.15 1.2 0.48 0.353 1.037 0.67 1.67 0.95 0.633 0.287 1.283 0.563 1.95 0.83v0l4.45 1.85c0.967 0.4 1.85 0.867 2.65 1.4 0.8 0.533 1.493 1.15 2.08 1.85 0.58 0.7 1.037 1.507 1.37 2.42 0.333 0.92 0.5 1.98 0.5 3.18v0c0 1.333-0.267 2.583-0.8 3.75-0.533 1.167-1.307 2.193-2.32 3.08-1.02 0.88-2.253 1.577-3.7 2.09-1.453 0.52-3.097 0.78-4.93 0.78zM36.65 0h-5.25v-32.7h6.55l5.8 16c0.367 1.033 0.717 2.09 1.05 3.17 0.333 1.087 0.683 2.163 1.05 3.23v0h0.2c0.367-1.067 0.71-2.143 1.03-3.23 0.313-1.08 0.653-2.137 1.02-3.17v0l5.65-16h6.6v32.7h-5.35v-14.95c0-0.767 0.027-1.6 0.08-2.5 0.047-0.9 0.103-1.81 0.17-2.73 0.067-0.913 0.15-1.813 0.25-2.7 0.1-0.88 0.183-1.703 0.25-2.47v0h-0.2l-2.65 7.6-5.35 14.7h-3.45l-5.4-14.7-2.6-7.6h-0.2c0.067 0.767 0.143 1.59 0.23 2.47 0.08 0.887 0.163 1.787 0.25 2.7 0.08 0.92 0.147 1.83 0.2 2.73 0.047 0.9 0.07 1.733 0.07 2.5v0zM75.35-17.4v0l-1.15 4h8.35l-1.15-4c-0.533-1.733-1.04-3.517-1.52-5.35-0.487-1.833-0.963-3.65-1.43-5.45v0h-0.2c-0.467 1.833-0.933 3.657-1.4 5.47-0.467 1.82-0.967 3.597-1.5 5.33zM70.3 0h-5.9l10.65-32.7h6.8l10.65 32.7h-6.1l-2.55-8.85h-11zM102.35 0h-5.8v-32.7h11.05c1.7 0 3.283 0.167 4.75 0.5 1.467 0.333 2.733 0.873 3.8 1.62 1.067 0.753 1.91 1.747 2.53 2.98 0.613 1.233 0.92 2.767 0.92 4.6v0c0 2.5-0.59 4.517-1.77 6.05-1.187 1.533-2.763 2.633-4.73 3.3v0l7.8 13.65h-6.5l-7.05-12.8h-5zM102.35-28.05v10.65h4.65c2.233 0 3.943-0.467 5.13-1.4 1.18-0.933 1.77-2.333 1.77-4.2v0c0-1.9-0.59-3.217-1.77-3.95-1.187-0.733-2.897-1.1-5.13-1.1v0zM137.75 0h-5.8v-27.8h-9.45v-4.9h24.7v4.9h-9.45z" fill="#fff" fill-rule="nonzero" stroke="none" stroke-width="1" stroke-linecap="butt" stroke-linejoin="miter" stroke-miterlimit="10" stroke-dasharray="" stroke-dashoffset="0" font-family="none" font-weight="none" font-size="none" text-anchor="none" style="mix-blend-mode: normal" data-fill-palette-color="primary" opacity="1"/>
                                      <path xmlns="http://www.w3.org/2000/svg" d="M9.95 36.9h-5.8v-32.7h5.8v13.15h13.25v-13.15h5.8v32.7h-5.8v-14.5h-13.25zM50 37.5v0c-2.133 0-4.083-0.393-5.85-1.18-1.767-0.78-3.283-1.913-4.55-3.4-1.267-1.48-2.25-3.27-2.95-5.37-0.7-2.1-1.05-4.483-1.05-7.15v0c0-2.633 0.35-4.993 1.05-7.08 0.7-2.08 1.683-3.837 2.95-5.27 1.267-1.433 2.783-2.533 4.55-3.3 1.767-0.767 3.717-1.15 5.85-1.15v0c2.133 0 4.083 0.383 5.85 1.15 1.767 0.767 3.29 1.867 4.57 3.3 1.287 1.433 2.28 3.19 2.98 5.27 0.7 2.087 1.05 4.447 1.05 7.08v0c0 2.667-0.35 5.05-1.05 7.15-0.7 2.1-1.693 3.89-2.98 5.37-1.28 1.487-2.803 2.62-4.57 3.4-1.767 0.787-3.717 1.18-5.85 1.18zM50 32.45v0c1.3 0 2.467-0.283 3.5-0.85 1.033-0.567 1.917-1.377 2.65-2.43 0.733-1.047 1.3-2.313 1.7-3.8 0.4-1.48 0.6-3.137 0.6-4.97v0c0-3.667-0.76-6.543-2.28-8.63-1.513-2.08-3.57-3.12-6.17-3.12v0c-2.6 0-4.657 1.04-6.17 3.12-1.52 2.087-2.28 4.963-2.28 8.63v0c0 1.833 0.2 3.49 0.6 4.97 0.4 1.487 0.967 2.753 1.7 3.8 0.733 1.053 1.617 1.863 2.65 2.43 1.033 0.567 2.2 0.85 3.5 0.85zM76.25 36.9h-5.25v-32.7h6.55l5.8 16c0.367 1.033 0.717 2.09 1.05 3.17 0.333 1.087 0.683 2.163 1.05 3.23v0h0.2c0.367-1.067 0.707-2.143 1.02-3.23 0.32-1.08 0.663-2.137 1.03-3.17v0l5.65-16h6.6v32.7h-5.35v-14.95c0-0.767 0.023-1.6 0.07-2.5 0.053-0.9 0.113-1.81 0.18-2.73 0.067-0.913 0.15-1.813 0.25-2.7 0.1-0.88 0.183-1.703 0.25-2.47v0h-0.2l-2.65 7.6-5.35 14.7h-3.45l-5.4-14.7-2.6-7.6h-0.2c0.067 0.767 0.14 1.59 0.22 2.47 0.087 0.887 0.17 1.787 0.25 2.7 0.087 0.92 0.153 1.83 0.2 2.73 0.053 0.9 0.08 1.733 0.08 2.5v0zM128.45 36.9h-20.2v-32.7h19.7v4.9h-13.9v8.35h11.75v4.9h-11.75v9.65h14.4z" fill="#fff" fill-rule="nonzero" stroke="none" stroke-width="1" stroke-linecap="butt" stroke-linejoin="miter" stroke-miterlimit="10" stroke-dasharray="" stroke-dashoffset="0" font-family="none" font-weight="none" font-size="none" text-anchor="none" style="mix-blend-mode: normal" data-fill-palette-color="primary" opacity="1"/>
                                    </g>
                                  </svg>
                                </g>
                              </svg>
                            </g>
                            <g transform="matrix(1,0,0,1,0,220.31824933834147)">
                              <svg viewBox="0 0 229.75187318861785 17.116219241661042" height="17.116219241661042" width="229.75187318861785">
                                <g transform="matrix(1,0,0,1,0,0)">
                                  <svg width="229.75187318861785" viewBox="3.1700000762939453 -34.88999938964844 474.80999755859375 35.380001068115234" height="17.116219241661042" data-palette-color="#aaaaaa">
                                    <path d="M14.4-24.58L14.4-24.58Q14.92-24.58 15.37-24.57 15.82-24.56 16.25-24.51 16.67-24.46 16.98-24.44 17.29-24.41 17.69-24.34 18.09-24.27 18.27-24.23 18.46-24.19 18.88-24.08 19.31-23.97 19.41-23.95 19.51-23.93 19.98-23.78 20.46-23.63 20.53-23.61L20.53-23.61 19.51-20.56Q16.24-21.46 13.75-21.46L13.75-21.46Q12.3-21.46 11.19-21.17 10.08-20.87 9.48-20.46 8.89-20.04 8.51-19.49 8.13-18.95 8.02-18.53 7.91-18.12 7.91-17.72L7.91-17.72Q7.91-16.72 8.95-15.94 9.99-15.16 11.54-14.67 13.09-14.18 14.89-13.51 16.7-12.84 18.25-12.1 19.8-11.35 20.84-10.01 21.88-8.67 21.88-6.91L21.88-6.91Q21.88-5.91 21.62-4.97 21.36-4.03 20.64-3 19.92-1.98 18.79-1.23 17.65-0.49 15.75 0 13.84 0.49 11.38 0.49L11.38 0.49Q7.64 0.49 3.17-1.34L3.17-1.34 4.3-4.37Q6.81-3.44 8.41-3.05 10.01-2.66 11.55-2.66L11.55-2.66Q17.5-2.66 17.5-6.45L17.5-6.45Q17.5-7.28 16.92-7.91 16.33-8.54 15.36-8.95 14.38-9.35 13.15-9.78 11.91-10.21 10.63-10.57 9.35-10.94 8.12-11.54 6.88-12.13 5.91-12.85 4.93-13.57 4.35-14.72 3.76-15.87 3.76-17.31L3.76-17.31Q3.76-18.19 4.04-19.1 4.32-20.02 5.09-21.03 5.86-22.05 7.01-22.81 8.15-23.58 10.07-24.08 11.99-24.58 14.4-24.58ZM39.72-24.58L39.72-24.58Q44.72-24.58 47.96-21.39 51.19-18.19 51.19-12.55L51.19-12.55Q51.19-6.57 47.89-3.04 44.58 0.49 39.33 0.49L39.33 0.49Q34.32 0.49 31.15-2.82 27.98-6.13 27.98-11.79L27.98-11.79Q27.98-17.63 31.21-21.11 34.45-24.58 39.72-24.58ZM39.38-21.17L39.38-21.17Q36.37-21.17 34.13-18.85 31.88-16.53 31.88-12.48L31.88-12.48Q31.88-8.45 34.08-5.69 36.28-2.93 39.77-2.93L39.77-2.93Q42.99-2.93 45.14-5.37 47.29-7.81 47.29-11.74L47.29-11.74Q47.29-13.99 46.59-15.82 45.9-17.65 44.76-18.8 43.63-19.95 42.23-20.56 40.84-21.17 39.38-21.17ZM70.53-31.54L70.53-31.54Q69.09-31.54 68.04-31.14 66.99-30.74 66.46-30.21 65.94-29.69 65.63-28.94 65.33-28.2 65.27-27.72 65.2-27.25 65.2-26.73L65.2-26.73 65.2-24.12 73.29-24.12 73.29-20.97 65.2-20.97 65.2 0 61.15 0 61.15-20.97 57.66-20.97 57.66-24.12 61.15-24.12 61.15-26.56Q61.15-29.74 62.1-31.4L62.1-31.4Q63.06-33.08 64.91-33.98 66.77-34.89 69.21-34.89L69.21-34.89Q71.82-34.89 75-33.94L75-33.94 74.38-30.96Q72.11-31.54 70.53-31.54ZM91.03-3.15L91.59-0.42Q88.05 0.49 86.08 0.49 84.1 0.49 82.73-0.15 81.36-0.78 80.66-1.95 79.95-3.13 79.64-4.48 79.34-5.83 79.34-7.59L79.34-7.59 79.34-20.97 76.09-20.97 76.09-24.12 79.34-24.12 79.34-31.03 83.34-31.03 83.34-24.12 90.69-24.12 90.69-20.97 83.34-20.97 83.34-7.64Q83.34-2.64 87.3-2.64L87.3-2.64Q88.01-2.64 91.03-3.15L91.03-3.15ZM103.33 0L94.77-24.12 99.04-24.12 105.58-3.88 111.78-24.12 115.71-24.12 122.16-3.91 128.7-24.12 132.97-24.12 124.16 0 120.13 0 113.71-19.56 107.36 0 103.33 0ZM146.81-24.58L146.81-24.58Q149.5-24.58 151.37-23.96 153.23-23.34 154.25-22.14 155.26-20.95 155.7-19.48 156.14-18.02 156.14-16.11L156.14-16.11 156.14 0 153.31 0 152.38-2.2Q149.43 0.49 145.59 0.49L145.59 0.49Q142.18 0.49 139.81-1.57 137.44-3.64 137.44-6.4L137.44-6.4Q137.44-7.86 137.98-9.03 138.51-10.21 139.53-10.99 140.54-11.77 141.83-12.32 143.13-12.87 144.85-13.16 146.57-13.45 148.3-13.57 150.04-13.7 152.11-13.7L152.11-13.7 152.11-15.6Q152.11-16.43 152.05-17.04 151.99-17.65 151.65-18.51 151.31-19.36 150.72-19.91 150.13-20.46 148.96-20.86 147.79-21.26 146.18-21.26L146.18-21.26Q143.69-21.26 139.73-20.17L139.73-20.17 138.98-23.1Q142.98-24.58 146.81-24.58ZM152.11-5.13L152.11-10.67 150.62-10.67Q149.23-10.67 148.21-10.62 147.18-10.57 145.8-10.34 144.42-10.11 143.54-9.69 142.66-9.28 142.04-8.48 141.42-7.69 141.42-6.59L141.42-6.59Q141.42-5.05 142.97-3.86 144.52-2.66 146.67-2.66L146.67-2.66Q149.82-2.66 152.11-5.13L152.11-5.13ZM167.73-24.12L168.49-22.31Q171.54-24.58 175.23-24.58L175.23-24.58Q177.77-24.58 179.84-23.63L179.84-23.63 178.62-20.43Q176.72-21.17 174.67-21.17L174.67-21.17Q171.62-21.17 168.93-19.48L168.93-19.48 168.93 0 164.93 0 164.93-24.12 167.73-24.12ZM194.86-24.58L194.86-24.58Q196.61-24.58 198.02-24.16 199.42-23.73 200.35-23.07 201.28-22.41 201.95-21.35 202.62-20.29 202.97-19.3 203.33-18.31 203.52-16.92 203.72-15.53 203.77-14.5 203.82-13.48 203.82-12.08L203.82-12.08 203.82-10.18 187.24-10.18Q187.24-8.86 187.84-7.56 188.43-6.25 189.52-5.16 190.61-4.08 192.38-3.39 194.15-2.71 196.3-2.71L196.3-2.71Q198.84-2.71 201.79-3.59L201.79-3.59 202.5-0.85Q198.57 0.49 194.78 0.49L194.78 0.49Q192.12 0.49 190.06-0.22 188-0.93 186.74-2.06 185.48-3.2 184.67-4.79 183.87-6.37 183.56-7.95 183.26-9.52 183.26-11.28L183.26-11.28Q183.26-13.99 183.92-16.24 184.58-18.48 185.7-20.01 186.82-21.53 188.32-22.58 189.83-23.63 191.47-24.11 193.12-24.58 194.86-24.58ZM194-21.12L194-21.12Q191.85-21.12 190.3-19.93 188.75-18.75 188.04-16.99 187.34-15.23 187.34-13.21L187.34-13.21 199.93-13.21Q199.93-21.12 194-21.12ZM233.03-24.58L233.03-24.58Q235.72-24.58 237.59-23.96 239.46-23.34 240.47-22.14 241.48-20.95 241.92-19.48 242.36-18.02 242.36-16.11L242.36-16.11 242.36 0 239.53 0 238.6-2.2Q235.65 0.49 231.81 0.49L231.81 0.49Q228.4 0.49 226.03-1.57 223.66-3.64 223.66-6.4L223.66-6.4Q223.66-7.86 224.2-9.03 224.73-10.21 225.75-10.99 226.76-11.77 228.05-12.32 229.35-12.87 231.07-13.16 232.79-13.45 234.52-13.57 236.26-13.7 238.33-13.7L238.33-13.7 238.33-15.6Q238.33-16.43 238.27-17.04 238.21-17.65 237.87-18.51 237.53-19.36 236.94-19.91 236.35-20.46 235.18-20.86 234.01-21.26 232.4-21.26L232.4-21.26Q229.91-21.26 225.95-20.17L225.95-20.17 225.2-23.1Q229.2-24.58 233.03-24.58ZM238.33-5.13L238.33-10.67 236.84-10.67Q235.45-10.67 234.43-10.62 233.4-10.57 232.02-10.34 230.64-10.11 229.76-9.69 228.88-9.28 228.26-8.48 227.64-7.69 227.64-6.59L227.64-6.59Q227.64-5.05 229.19-3.86 230.74-2.66 232.89-2.66L232.89-2.66Q236.04-2.66 238.33-5.13L238.33-5.13ZM267.09-4.98L267.09-24.12 271.09-24.12 271.09 0 268.29 0 267.43-2.03Q262.82 0.49 258.91 0.49L258.91 0.49Q256.93 0.49 255.47-0.13 254-0.76 253.2-1.68 252.39-2.61 251.9-4.04 251.42-5.47 251.28-6.76 251.15-8.06 251.15-9.72L251.15-9.72 251.15-24.12 255.15-24.12 255.15-9.42Q255.15-3.1 260.64-3.1L260.64-3.1Q263.48-3.1 267.09-4.98L267.09-4.98ZM292.14-3.15L292.7-0.42Q289.16 0.49 287.18 0.49 285.2 0.49 283.83-0.15 282.47-0.78 281.76-1.95 281.05-3.13 280.75-4.48 280.44-5.83 280.44-7.59L280.44-7.59 280.44-20.97 277.19-20.97 277.19-24.12 280.44-24.12 280.44-31.03 284.45-31.03 284.45-24.12 291.79-24.12 291.79-20.97 284.45-20.97 284.45-7.64Q284.45-2.64 288.4-2.64L288.4-2.64Q289.11-2.64 292.14-3.15L292.14-3.15ZM309.32-24.58L309.32-24.58Q314.33-24.58 317.56-21.39 320.8-18.19 320.8-12.55L320.8-12.55Q320.8-6.57 317.49-3.04 314.18 0.49 308.93 0.49L308.93 0.49Q303.93 0.49 300.75-2.82 297.58-6.13 297.58-11.79L297.58-11.79Q297.58-17.63 300.81-21.11 304.05-24.58 309.32-24.58ZM308.98-21.17L308.98-21.17Q305.98-21.17 303.73-18.85 301.48-16.53 301.48-12.48L301.48-12.48Q301.48-8.45 303.68-5.69 305.88-2.93 309.37-2.93L309.37-2.93Q312.59-2.93 314.74-5.37 316.89-7.81 316.89-11.74L316.89-11.74Q316.89-13.99 316.19-15.82 315.5-17.65 314.36-18.8 313.23-19.95 311.84-20.56 310.44-21.17 308.98-21.17ZM338-20.9L338-20.9Q335.91-20.9 332.36-19.04L332.36-19.04 332.36 0 328.36 0 328.36-24.12 331.17-24.12 332.02-22.12Q336.39-24.58 339.59-24.58L339.59-24.58Q343.28-24.58 345.38-21.9L345.38-21.9Q350.16-24.56 353.95-24.56L353.95-24.56Q355.78-24.56 357.17-24.06 358.56-23.56 359.43-22.69 360.29-21.83 360.84-20.52 361.39-19.21 361.6-17.76 361.81-16.31 361.81-14.48L361.81-14.48 361.81 0 357.8 0 357.8-14.75Q357.8-15.19 357.78-15.56 357.76-15.94 357.66-16.61 357.56-17.29 357.36-17.81 357.17-18.33 356.79-18.95 356.41-19.56 355.88-19.96 355.34-20.36 354.51-20.63 353.68-20.9 352.65-20.9L352.65-20.9Q350.41-20.9 346.72-18.99L346.72-18.99Q347.06-17.55 347.06-14.31L347.06-14.31 347.06 0 343.06 0 343.06-14.84Q343.06-15.48 343.01-16.05 342.96-16.63 342.67-17.58 342.37-18.53 341.89-19.2 341.4-19.87 340.38-20.39 339.37-20.9 338-20.9ZM378.68-24.58L378.68-24.58Q381.36-24.58 383.23-23.96 385.1-23.34 386.11-22.14 387.12-20.95 387.56-19.48 388-18.02 388-16.11L388-16.11 388 0 385.17 0 384.24-2.2Q381.29 0.49 377.46 0.49L377.46 0.49Q374.04 0.49 371.67-1.57 369.3-3.64 369.3-6.4L369.3-6.4Q369.3-7.86 369.84-9.03 370.38-10.21 371.39-10.99 372.4-11.77 373.7-12.32 374.99-12.87 376.71-13.16 378.43-13.45 380.17-13.57 381.9-13.7 383.97-13.7L383.97-13.7 383.97-15.6Q383.97-16.43 383.91-17.04 383.85-17.65 383.51-18.51 383.17-19.36 382.58-19.91 382-20.46 380.82-20.86 379.65-21.26 378.04-21.26L378.04-21.26Q375.55-21.26 371.6-20.17L371.6-20.17 370.84-23.1Q374.84-24.58 378.68-24.58ZM383.97-5.13L383.97-10.67 382.48-10.67Q381.09-10.67 380.07-10.62 379.04-10.57 377.66-10.34 376.28-10.11 375.4-9.69 374.53-9.28 373.9-8.48 373.28-7.69 373.28-6.59L373.28-6.59Q373.28-5.05 374.83-3.86 376.38-2.66 378.53-2.66L378.53-2.66Q381.68-2.66 383.97-5.13L383.97-5.13ZM409.04-3.15L409.61-0.42Q406.07 0.49 404.09 0.49 402.11 0.49 400.74-0.15 399.38-0.78 398.67-1.95 397.96-3.13 397.66-4.48 397.35-5.83 397.35-7.59L397.35-7.59 397.35-20.97 394.1-20.97 394.1-24.12 397.35-24.12 397.35-31.03 401.35-31.03 401.35-24.12 408.7-24.12 408.7-20.97 401.35-20.97 401.35-7.64Q401.35-2.64 405.31-2.64L405.31-2.64Q406.02-2.64 409.04-3.15L409.04-3.15ZM415.34-30.08L415.34-34.69 420.08-34.69 420.08-30.08 415.34-30.08ZM415.71 0L415.71-24.12 419.71-24.12 419.71 0 415.71 0ZM439.02-24.58L439.02-24.58Q444.02-24.58 447.26-21.39 450.49-18.19 450.49-12.55L450.49-12.55Q450.49-6.57 447.19-3.04 443.88 0.49 438.63 0.49L438.63 0.49Q433.62 0.49 430.45-2.82 427.28-6.13 427.28-11.79L427.28-11.79Q427.28-17.63 430.51-21.11 433.75-24.58 439.02-24.58ZM438.68-21.17L438.68-21.17Q435.68-21.17 433.43-18.85 431.18-16.53 431.18-12.48L431.18-12.48Q431.18-8.45 433.38-5.69 435.58-2.93 439.07-2.93L439.07-2.93Q442.29-2.93 444.44-5.37 446.59-7.81 446.59-11.74L446.59-11.74Q446.59-13.99 445.89-15.82 445.2-17.65 444.06-18.8 442.93-19.95 441.53-20.56 440.14-21.17 438.68-21.17ZM458.06 0L458.06-24.12 460.87-24.12 461.75-22.07Q466.41-24.61 470.24-24.61L470.24-24.61Q472.22-24.61 473.69-23.99 475.15-23.36 475.96-22.42 476.76-21.48 477.24-20.06 477.71-18.63 477.85-17.33 477.98-16.04 477.98-14.38L477.98-14.38 477.98 0 473.98 0 473.98-14.65Q473.98-21 468.51-21L468.51-21Q465.68-21 462.06-19.12L462.06-19.12 462.06 0 458.06 0Z" opacity="1" transform="matrix(1,0,0,1,0,0)" fill="#aaaaaa" class="slogan-text-1" data-fill-palette-color="secondary" id="text-1"/>
                                  </svg>
                                </g>
                              </svg>
                            </g>
                          </svg>
                        </g>
                      </svg>
                    </g>
                  </svg>
                </g>
              </svg>
              <rect width="395.5199999999999" height="137.87714738445064" fill="none" stroke="none" visibility="hidden"/>
            </g>
          </svg>
  </g>
  <g class="layer" transform="matrix(0.244217, -0.000229, 0.000218, 0.233136, -217.463608, -213.396622)" style="transform-origin: 300.332px 295.804px;">
    <g id="layer1">
      <g fill="#aaaaaa" id="g3111">
        <path d="m300.22,25c-1.77,0 -3.5,0.46 -6.56,1.38c-4.85,1.45 -6.1,2.42 -19.44,14.9c-3.59,3.36 -19.34,17.98 -35,32.5c-15.66,14.53 -31.65,29.38 -35.53,33c-3.88,3.63 -10.45,9.75 -14.56,13.6c-12.8,11.96 -36.06,33.69 -43.38,40.5c-3.84,3.57 -10.37,9.68 -14.5,13.56c-7.85,7.37 -20.21,18.86 -23.03,21.44c-0.91,0.82 -7.18,6.67 -13.97,13c-6.79,6.32 -12.84,11.95 -13.44,12.5c-0.59,0.55 -7.61,7.06 -15.59,14.47c-7.98,7.4 -16.94,15.73 -19.94,18.5c-2.99,2.76 -9.29,8.66 -14,13.09c-4.7,4.43 -11.14,10.46 -14.31,13.41c-4.65,4.32 -6.09,6.43 -7.37,10.84c-1.73,5.93 -1.32,11.44 1.18,16.28c2.35,4.53 33.26,37.18 37.32,39.41c4.43,2.43 15.23,2.7 19.28,0.47c1.45,-0.81 8.2,-6.61 15,-12.88l12.34,-11.41l0.5,114.41c0.46,105.19 0.66,114.68 2.22,117.53c2.26,4.12 8.17,9.22 11.56,9.97c1.5,0.33 3.17,0.75 3.72,0.94c0.55,0.19 32.21,0.25 70.34,0.15l69.35,-0.18l2.4,-2.82l2.41,-2.78l0,-67.03c0,-43.19 -0.35,-67.66 -1,-68.87c-0.56,-1.04 -16.31,-17.25 -35,-36.03l-34,-34.16l0,-15.88l0,-15.9l4.84,-2.44c11.82,-5.99 18.42,-16.75 18.5,-30.09c0.13,-20.21 -18.28,-35.81 -38.4,-32.57c-11.04,1.78 -19.2,7.81 -24.13,17.82c-2.95,6 -3.32,7.62 -3.31,15.25c0.01,7.41 0.39,9.27 2.94,14.31c3.43,6.79 9.81,13.03 16.09,15.72l4.47,1.9l0,19.1c0,14.64 0.34,19.71 1.44,21.78c0.79,1.48 16.54,17.74 35,36.12l33.56,33.41l0,57.34l0,57.35l-61.75,-0.25l-61.75,-0.28l-0.5,-125.35l-0.5,-125.31l-2.81,-2.44c-1.79,-1.54 -4.06,-2.4 -6.25,-2.4c-3.54,0 -9.57,4.92 -30.91,25.15c-9.78,9.27 -14.91,13.82 -15.65,13.85c-0.36,0.01 -6.2,-5.94 -13,-13.19c-6.8,-7.25 -13.62,-14.46 -15.13,-16.03c-1.51,-1.57 -2.75,-3.23 -2.75,-3.69c0,-0.46 2.14,-2.79 4.75,-5.16c5.85,-5.31 25.73,-23.78 45.72,-42.5c8.26,-7.73 31.68,-29.51 52.03,-48.4c20.35,-18.9 46.9,-43.62 59,-54.94c12.1,-11.32 24.21,-22.62 26.91,-25.09c2.69,-2.48 6.08,-5.63 7.53,-7c9.5,-9.03 26.33,-24.66 39.12,-36.41c3.55,-3.26 12.07,-11.21 18.94,-17.66c6.88,-6.44 13.98,-12.91 15.78,-14.4l3.25,-2.72l5.25,4.47c2.88,2.46 16.19,14.76 29.6,27.34c13.4,12.59 25.78,23.66 27.5,24.6c5.1,2.78 10.95,2.3 14.96,-1.22c4.88,-4.28 5.58,-8.4 5.5,-32.32c-0.03,-11.43 0.25,-21.12 0.63,-21.5c0.38,-0.38 12.93,-0.68 27.87,-0.68l27.16,0l0.5,59.5c0.46,55 0.64,59.87 2.38,64.5c2.96,7.91 6.48,12.22 21.78,26.56c7.88,7.39 17.49,16.39 21.34,20c3.85,3.61 9.92,9.24 13.5,12.53c3.58,3.29 14.15,13.18 23.5,21.97c9.35,8.78 24.76,23.09 34.25,31.81c9.49,8.72 17.25,16.28 17.25,16.78c0,1.47 -29.52,32.85 -30.91,32.85c-0.73,0 -4.41,-3.24 -15.59,-13.78c-17.22,-16.26 -21.11,-19.88 -24.31,-22.5c-4.27,-3.5 -9.04,-3.62 -12.88,-0.32l-2.81,2.44l-0.5,125.31l-0.5,125.35l-61.75,0.28l-61.75,0.25l0,-57.31l0,-57.32l33.53,-33.43c18.45,-18.4 34.2,-34.68 35,-36.16c1.14,-2.1 1.47,-6.92 1.47,-21.66l0,-18.97l4.75,-2.31c6.76,-3.27 12.61,-9.03 15.88,-15.65c2.4,-4.89 2.81,-6.96 2.84,-14.22c0.03,-7.15 -0.4,-9.38 -2.63,-14.13c-9.59,-20.47 -35.71,-25.87 -52.21,-10.78c-11.86,10.83 -14.72,27.09 -7.1,40.44c3.07,5.38 11.22,12.88 15.78,14.53l3.69,1.34l0,16.57l0,16.53l-35,35l-35,35l0,67.68l0,67.72l2.41,2.78l2.43,2.82l70.32,0c38.68,0 71.59,-0.33 73.09,-0.75c1.5,-0.42 4.36,-2.23 6.38,-4c7.34,-6.45 6.81,2.45 7.37,-124.03l0.5,-113.79l4.5,4.13c23.37,21.48 25.25,22.67 34.09,21.62c2.65,-0.31 6.34,-1.38 8.22,-2.37c4.74,-2.5 35.46,-35.58 37.78,-40.69c2.31,-5.08 2.39,-9.82 0.32,-15.9c-1.4,-4.09 -4.67,-7.55 -27.22,-28.44c-14.12,-13.08 -29.96,-27.8 -35.19,-32.72c-5.23,-4.92 -13.12,-12.35 -17.53,-16.5c-4.42,-4.16 -13.6,-12.74 -20.44,-19.06c-26.38,-24.4 -28.82,-26.91 -30.47,-31.75c-1.35,-3.96 -1.57,-12.63 -1.59,-62.66c-0.02,-54.39 -0.14,-58.35 -1.88,-62.09c-1.01,-2.2 -3.13,-5.2 -4.71,-6.66c-5.52,-5.08 -9.32,-5.6 -40.69,-5.69c-31.78,-0.09 -34.11,0.26 -40.41,6.16c-5.77,5.41 -6.28,7.64 -6.28,27.09c0,9.68 -0.24,17.6 -0.53,17.6c-0.29,0 -4.23,-3.55 -8.75,-7.88c-4.52,-4.33 -16.03,-15.12 -25.59,-24c-14.79,-13.72 -18.16,-16.35 -22.44,-17.62c-3.12,-0.93 -4.92,-1.38 -6.69,-1.38zm-122.09,245.16c3.8,0.08 7.71,1.32 11.34,4.06c12.64,9.55 10.62,28.29 -3.75,34.81c-4.28,1.95 -11.51,2.33 -15.28,0.82c-4.45,-1.79 -9.54,-6.47 -11.34,-10.44c-6.78,-14.91 5.44,-29.54 19.03,-29.25zm245,0c4.45,0.08 8.97,1.68 12.75,5c11.18,9.81 9.33,26.65 -3.63,33.22c-16.32,8.27 -33.74,-6.22 -28.62,-23.82c2.67,-9.2 10.99,-14.55 19.5,-14.4z" fill="#aaaaaa" id="path3068" style="stroke: rgb(209, 209, 209); paint-order: stroke;"/>
        <path d="m300.19,257.41c-4.9,0.02 -9.84,1.11 -14.44,3.37c-7.02,3.46 -12.16,8.69 -15.78,16.03c-1.87,3.79 -2.23,6.21 -2.22,14.07c0.01,8.34 0.32,10.1 2.66,14.5c3.5,6.58 8.84,11.9 14.81,14.72c2.99,1.41 5.08,3.12 5.44,4.46c0.32,1.2 0.55,54.92 0.53,119.38c-0.04,111.34 0.04,117.29 1.75,119.19c0.99,1.09 2.68,2.37 3.78,2.84c3.06,1.31 7.72,0.15 10.5,-2.62l2.5,-2.5l0.19,-119.07l0.19,-119.03l4.96,-2.47c6.85,-3.41 13.39,-10.68 16.13,-17.93c1.83,-4.86 2.14,-7.43 1.81,-13.97c-0.47,-9.4 -3.61,-16.31 -10.09,-22.16c-6.46,-5.83 -14.55,-8.84 -22.72,-8.81zm-0.31,12.69c1.67,-0.03 3.33,0.18 4.97,0.62c5.6,1.5 8.97,4.01 12.62,9.41c2.23,3.29 2.75,5.16 2.75,9.93c0,9.21 -4.26,15.96 -12.22,19.29c-4.14,1.72 -11,1.93 -14.75,0.43c-11.24,-4.48 -16.26,-17.56 -10.97,-28.5c3.27,-6.74 10.36,-11.06 17.6,-11.18z" fill="#aaaaaa" id="path3062" style="paint-order: stroke; stroke: rgb(209, 209, 209);"/>
      </g>
    </g>
  </g>
</svg>
