<svg xmlns="http://www.w3.org/2000/svg" width="100" height="100.019">
    <path d="M47.557 100c-2.89-.193-5.14-.48-7.724-.987-2.284-.447-6.694-1.772-8.257-2.481a3.969 3.969 0 00-.46-.189c-.057 0-1.021-.409-1.725-.732-.837-.383-3.925-1.95-4.06-2.06a14.332 14.332 0 00-.905-.545c-2.16-1.231-4.77-3.103-7.06-5.065-2.767-2.37-6.316-6.255-8.136-8.906-1.114-1.623-1.59-2.358-2.191-3.38a50.634 50.634 0 00-.576-.957c-.404-.643-2.15-4.183-2.52-5.111-.208-.52-.497-1.23-.642-1.577-.724-1.734-1.924-5.834-2.352-8.039-.288-1.483-.733-4.619-.851-5.99-.13-1.515-.13-6.57 0-7.999.375-4.108 1.215-8.191 2.432-11.822.687-2.049 2.09-5.47 2.627-6.403.043-.076.313-.59.6-1.143.286-.553.6-1.129.697-1.28.098-.152.304-.507.458-.789.471-.86 2.107-3.332 2.833-4.28.983-1.286 1.234-1.609 1.633-2.093 2.298-2.798 5.998-6.327 8.686-8.286 1.464-1.068 2.95-2.058 4.125-2.75.433-.256.93-.552 1.103-.66.174-.106.768-.429 1.32-.716a77.255 77.255 0 001.143-.602c.382-.219 2.19-1.024 3.46-1.54 3.509-1.425 7.349-2.486 10.943-3.024C45.712.06 46.478.003 49.921 0c3.154 0 4.339.072 6.857.433 4.536.65 7.983 1.565 12.058 3.202 1.446.58 5.019 2.303 5.81 2.8.227.143.631.383.899.535.956.542 3.284 2.081 4.194 2.773 2.443 1.856 4.41 3.6 6.437 5.706 1.466 1.523 2.241 2.436 4.043 4.762.68.876 2.433 3.541 2.93 4.453.166.303.348.606.404.672.143.168 2.119 4.103 2.31 4.598.271.705.63 1.578.749 1.823.118.243.503 1.333 1.057 2.995.409 1.226 1.129 3.976 1.382 5.28.288 1.486.734 4.621.85 5.99.132 1.532.132 6.407 0 7.96-.218 2.566-.83 6.19-1.424 8.433-.72 2.71-1.235 4.274-2.174 6.58-.46 1.132-1.475 3.357-1.69 3.705-.04.065-.258.473-.484.906a45.602 45.602 0 01-1.792 3.074c-1.137 1.758-2.466 3.648-3.02 4.295-.168.195-.596.71-.95 1.143-.862 1.05-1.785 2.057-2.993 3.265-1.452 1.452-2.22 2.14-4.27 3.829-1.285 1.059-4.15 3.02-5.648 3.867-.368.208-.723.422-.788.476-.065.053-1.022.553-2.128 1.111-3.32 1.674-6.234 2.783-9.812 3.731-2.622.695-5.9 1.263-8.63 1.495-.989.084-5.73.163-6.541.109zm29.102-17.807c.921-.16 1.689-.429 2.329-.813a6.758 6.758 0 003.104-4.11l.18-.67.023-26.283c.026-28.639.05-26.873-.394-28.175-.645-1.89-2.218-3.451-4.087-4.054-1.303-.421.24-.4-27.853-.4-22.887 0-26.084.015-26.639.12-.828.157-1.557.392-2.072.67-.627.337-1.61 1.1-1.873 1.454-1.012 1.365-1.273 1.91-1.528 3.196l-.164.826.022 26.324c.021 24.836.03 26.352.161 26.835.651 2.406 2.158 4.083 4.311 4.8 1.21.403-.156.384 27.742.393 23.068.01 26.127-.01 26.738-.113zm-48.49-8.167c-1.072-.34-1.808-1.057-2.168-2.117l-.196-.577v-21.29c0-19.35.011-21.33.127-21.719.38-1.282 1.108-2.01 2.39-2.39.388-.115 2.369-.127 21.727-.127h21.3l.576.206c1.084.387 1.768 1.097 2.104 2.187l.167.54v42.593l-.195.57c-.36 1.06-1.041 1.741-2.1 2.101l-.57.194H50.006c-21.296 0-21.325 0-21.837-.166zm19.142-2.331c-.005-.033-.005-1.079 0-2.325l.01-2.266h5.359l.013 2.148c.007 1.18.012 2.227.01 2.325-.001.216.093.221 1.05.057 3.817-.658 7.605-2.452 10.591-5.015 1.067-.917 2.316-2.24 3.067-3.25l.533-.718c.097-.13.326-.484.51-.788.185-.303.414-.658.51-.788.15-.205 1.078-2.077 1.367-2.758.286-.676.877-2.554 1.054-3.35.348-1.566.456-2.497.502-4.308.1-3.916-.553-6.995-2.186-10.312-.839-1.702-1.808-3.25-1.972-3.15-.04.026-.056 0-.036-.057.037-.102-.415-.72-1.182-1.614-.653-.762-2.549-2.51-3.389-3.124-2.145-1.568-4.075-2.544-6.71-3.393-.888-.285-2.444-.631-3.28-.729l-.452-.053V32.9h-5.36v-2.325c0-2.232-.005-2.325-.15-2.325-.266 0-1.967.31-2.627.478-.62.158-2.206.688-3.015 1.007-.603.238-2.488 1.21-2.798 1.443a4.88 4.88 0 01-.591.367c-.407.207-1.824 1.26-2.514 1.867-1.576 1.387-3.294 3.371-4.076 4.708a8.622 8.622 0 01-.42.652c-.245.326-1.18 2.22-1.498 3.034a22.91 22.91 0 00-1.362 5.065c-.192 1.256-.193 5.003-.002 6.264a22.05 22.05 0 00.926 3.842c.454 1.332.441 1.3 1.114 2.69.791 1.632 1.995 3.481 2.97 4.561 2.368 2.625 4.243 4.077 7.069 5.473 1.82.9 3.545 1.481 5.517 1.86.991.19 1.464.234 1.448.134zM37.705 54.29c-.46-.122-1.196-.454-1.36-.613a6.133 6.133 0 00-.403-.326 3.86 3.86 0 01-.618-.654c-1.47-1.99-1.114-4.699.813-6.196 1.337-1.038 3.193-1.206 4.766-.431.565.278 1.425 1.098 1.77 1.69.78 1.334.778 3.123-.006 4.494-.543.949-1.677 1.784-2.774 2.043-.62.146-1.623.143-2.187-.01zm22.257-.02c-.761-.225-1.336-.568-1.92-1.146-.904-.897-1.286-1.822-1.29-3.123-.002-1.283.383-2.221 1.286-3.13.922-.925 2.01-1.33 3.39-1.261.924.047 1.57.27 2.31.798a4.788 4.788 0 011.376 1.586c.6 1.18.6 2.837 0 4.012-.464.91-1.459 1.801-2.405 2.154-.722.268-2.035.322-2.747.11z" fill="#00adef"/>
</svg>
