<!-- Created with Inkscape (http://www.inkscape.org/) -->
<svg xmlns:rdf="http://www.w3.org/1999/02/22-rdf-syntax-ns#" xmlns="http://www.w3.org/2000/svg" height="100.01414" width="99.999977" version="1.1" xmlns:cc="http://creativecommons.org/ns#" xmlns:dc="http://purl.org/dc/elements/1.1/">
 <metadata>
  <rdf:RDF>
   <cc:Work rdf:about="">
    <dc:format>image/svg+xml</dc:format>
    <dc:type rdf:resource="http://purl.org/dc/dcmitype/StillImage"/>
    <dc:title/>
   </cc:Work>
  </rdf:RDF>
 </metadata>
 <g transform="translate(-153.62198,-797.70324)">
  <path style="fill:#ff0000;" d="m200.30692,897.61033c-15.65119-1.01289-30.1352-9.53943-38.70856-22.78719-4.20612-6.4994-6.77631-13.66249-7.71863-21.5117-0.30836-2.56852-0.34745-7.92454-0.0771-10.56071,2.28014-22.2313,18.96474-40.3093,40.86892-44.28204,3.25065-0.58957,5.41215-0.77176,9.07916-0.76528,3.76274,0.007,6.29692,0.25775,9.86344,0.97729,12.0117,2.42336,22.80065,9.32591,30.22809,19.33935,10.21882,13.77668,12.6155,32.00382,6.31001,47.98863-1.80698,4.58078-4.34154,8.93469-7.55637,12.98044-1.58199,1.99087-5.81659,6.20704-7.85077,7.81662-9.89573,7.83012-21.95208,11.61267-34.43822,10.80459zm19.09756-13.92509c0.17219-0.17219,0.31307-0.51624,0.31307-0.76456,0-0.75598-1.16074-2.82318-2.55916-4.55771-1.77227-2.19823-2.62387-2.99422-5.0329-4.70423-2.9864-2.11986-3.81729-2.8159-4.19479-3.51398-0.31151-0.57602-0.34655-0.9332-0.43756-4.46131-0.0568-2.20114-0.17698-4.08181-0.28212-4.41405-0.10077-0.31838-0.41965-0.93021-0.70862-1.35962-0.4183-0.62158-0.47845-0.79875-0.29516-0.86909,0.12664-0.0486,2.46382-0.0883,5.19375-0.0883,5.40324,0,6.06975-0.0792,7.57855-0.90037,1.04803-0.57042,2.30149-1.85842,2.89834-2.97823,0.93033-1.74549,0.96549-2.13293,0.96879-10.67937l0.003-7.7486,1.83863-0.002c1.53358-0.002,1.92173-0.052,2.33942-0.30298,2.30811-1.38713,2.097-6.04955-0.3153-6.96355-0.28058-0.10631-2.36796-0.16697-5.74578-0.16697h-5.30513l-0.0461-7.6312-0.0461-7.63119-0.46962-0.93923c-0.61347-1.22695-1.28503-1.69762-2.28892-1.60422-0.95156,0.0885-1.58473,0.56258-2.08066,1.55776l-0.4048,0.81235v7.71787,7.71786h-6.41804-6.41803l-0.002-7.47466c0-4.52437-0.063-7.69818-0.15818-8.04095-0.35708-1.28553-1.47209-2.33011-2.4861-2.32906-1.00367,0.001-2.08666,0.94369-2.49896,2.17516-0.1234,0.36853-0.17815,2.85877-0.17815,8.10081l0.00006,7.5687h-5.62516c-3.60451,0-5.78345,0.06-6.06582,0.16696-1.13164,0.42877-1.92382,1.83331-1.92624,3.41524-0.002,1.4159,0.27005,2.16826,1.09127,3.01604,0.62437,0.64456,0.80929,0.74279,1.57584,0.83699,0.47765,0.0587,1.37595,0.0828,1.9962,0.0535l1.12775-0.0532,0.00078,7.51379c0.00047,4.29819,0.0687,7.94924,0.15949,8.53129,0.32703,2.09717,1.82477,4.26417,3.6814,5.32643,1.46522,0.83831,2.19683,0.93481,7.10894,0.93764,4.34432,0.002,4.48483,0.0123,5.09371,0.35562,0.68974,0.3889,1.54161,1.53711,1.80413,2.43172,0.32263,1.09944,0.34823,2.91429,0.0798,5.65941-0.43136,4.41141-0.22922,5.13379,1.91096,6.82916,0.74963,0.59381,2.60329,2.28323,4.11926,3.75426,2.74614,2.66473,4.00216,3.61345,6.41533,4.84573,2.21137,1.12922,4.07545,1.46883,4.68985,0.85442z"/>
 </g>
</svg>
