<svg xmlns="http://www.w3.org/2000/svg" height="100.014" width="100">
    <path d="M46.685 99.907C31.034 98.894 16.55 90.367 7.976 77.12 3.77 70.62 1.2 63.457.258 55.608-.051 53.04-.09 47.684.18 45.048 2.46 22.815 19.145 4.737 41.05.764 44.3.175 46.462-.006 50.129 0c3.762.007 6.297.258 9.863.977 12.012 2.424 22.8 9.326 30.228 19.34 10.22 13.776 12.616 32.004 6.31 47.988-1.807 4.581-4.341 8.935-7.556 12.98-1.582 1.992-5.817 6.208-7.85 7.817-9.897 7.83-21.953 11.613-34.44 10.805zm19.097-13.925a1.24 1.24 0 00.314-.765c0-.756-1.161-2.823-2.56-4.557-1.772-2.199-2.623-2.994-5.032-4.705-2.987-2.12-3.818-2.815-4.195-3.513-.312-.577-.347-.934-.438-4.462-.057-2.2-.177-4.082-.282-4.414-.1-.318-.42-.93-.709-1.36-.418-.621-.478-.798-.295-.869.127-.048 2.464-.088 5.194-.088 5.403 0 6.07-.08 7.579-.9 1.048-.57 2.301-1.859 2.898-2.978.93-1.746.965-2.133.969-10.68l.003-7.748 1.838-.002c1.534-.002 1.922-.052 2.34-.303 2.308-1.388 2.097-6.05-.316-6.964-.28-.106-2.368-.167-5.745-.167H62.04l-.047-7.631-.046-7.631-.47-.94c-.613-1.226-1.284-1.697-2.288-1.604-.952.089-1.585.563-2.08 1.558l-.406.812v15.436H43.867l-.002-7.475c0-4.524-.063-7.698-.158-8.04-.357-1.286-1.472-2.33-2.486-2.33-1.004.001-2.087.944-2.499 2.176-.123.368-.178 2.858-.178 8.1v7.57h-5.625c-3.605 0-5.784.06-6.066.166-1.132.429-1.924 1.833-1.926 3.415-.002 1.416.27 2.169 1.091 3.016.624.645.81.743 1.576.837.477.059 1.376.083 1.996.054l1.128-.053v7.513c.001 4.299.07 7.95.16 8.532.327 2.097 1.825 4.264 3.681 5.326 1.466.838 2.197.935 7.11.938 4.344.002 4.484.012 5.093.355.69.39 1.542 1.537 1.804 2.432.323 1.1.348 2.914.08 5.66-.431 4.41-.23 5.133 1.911 6.829.75.593 2.603 2.283 4.12 3.754 2.745 2.665 4.001 3.613 6.415 4.846 2.21 1.129 4.075 1.468 4.69.854z"
          fill="#00adef"/>
</svg>
