<!-- Created with Inkscape (http://www.inkscape.org/) -->
<svg xmlns:rdf="http://www.w3.org/1999/02/22-rdf-syntax-ns#" xmlns="http://www.w3.org/2000/svg" height="100.01856" width="100" version="1.1" xmlns:cc="http://creativecommons.org/ns#" xmlns:dc="http://purl.org/dc/elements/1.1/">
 <metadata>
  <rdf:RDF>
   <cc:Work rdf:about="">
    <dc:format>image/svg+xml</dc:format>
    <dc:type rdf:resource="http://purl.org/dc/dcmitype/StillImage"/>
    <dc:title/>
   </cc:Work>
  </rdf:RDF>
 </metadata>
 <g transform="translate(20.061335,-1172.4626)">
  <path style="fill:#808080;" d="m27.495655,1272.4633c-2.890866-0.1934-5.139885-0.4808-7.723604-0.9872-2.284815-0.4477-6.694331-1.7729-8.257746-2.4816-0.228753-0.1037-0.435603-0.1885-0.459657-0.1885-0.05678,0-1.020958-0.4091-1.7252246-0.732-0.8366712-0.3836-3.9243632-1.9511-4.0588327-2.0606-0.06502-0.053-0.4728738-0.2983-0.9063413-0.5452-2.1600399-1.2307-4.76967231-3.1027-7.0595712-5.0641-2.7667526-2.3699-6.3160797-6.2553-8.1356432-8.906-1.114342-1.6233-1.591125-2.3586-2.191793-3.3804-0.203864-0.3467-0.463038-0.7776-0.575936-0.9574-0.403567-0.6429-2.148928-4.1828-2.520047-5.1111-0.207946-0.5202-0.496604-1.2295-0.641453-1.5762-0.724388-1.7342-1.923713-5.8339-2.351711-8.0389-0.287957-1.4835-0.733829-4.6191-0.85174-5.9897-0.130364-1.5154-0.130143-6.5716,0-7.9995,0.375477-4.1084,1.215703-8.1916,2.43269-11.8218,0.687007-2.0494,2.090094-5.4706,2.626183-6.4036,0.0436-0.076,0.313547-0.5901,0.59988-1.1427,0.286325-0.5527,0.600337-1.129,0.697788-1.2807,0.09746-0.1517,0.303498-0.5064,0.457868-0.7881,0.471195-0.86,2.107062-3.3325,2.832514-4.2811,0.9829862-1.2853,1.2346338-1.6078,1.632959-2.0926,2.2982845-2.7972,5.9981588-6.3265,8.68635129-8.2859,1.46452931-1.0675,2.94940791-2.0575,4.12486961-2.75,0.4334675-0.2554,0.9299849-0.5519,1.103372-0.6589,0.173387-0.1071,0.767411-0.4296,1.3200506-0.7169,0.5526475-0.2872,1.0668977-0.5579,1.1427781-0.6015,0.3817904-0.2194,2.1900043-1.0242,3.4591814-1.5397,3.509425-1.4255,7.349616-2.487,10.943819-3.0252,3.553615-0.5321,4.320907-0.5907,7.76301-0.5936,3.153973,0,4.338514,0.072,6.856669,0.433,4.536759,0.6502,7.983827,1.5655,12.05828,3.2018,1.445827,0.5807,5.018916,2.3029,5.810523,2.8006,0.226538,0.1425,0.630782,0.3831,0.898318,0.5348,0.955709,0.542,3.283785,2.0811,4.194043,2.7727,2.443465,1.8566,4.409454,3.5992,6.436955,5.7057,1.465995,1.523,2.241461,2.4364,4.04322,4.7621,0.679157,0.8767,2.433038,3.5416,2.930564,4.4529,0.165655,0.3034,0.347286,0.6061,0.403621,0.6727,0.142382,0.1682,2.118813,4.1032,2.309405,4.5979,0.271721,0.7053,0.630514,1.578,0.749339,1.8225,0.118156,0.2432,0.502972,1.3336,1.056928,2.9949,0.409099,1.2269,1.128663,3.9768,1.38169,5.2804,0.288524,1.4865,0.734066,4.6211,0.851346,5.9897,0.131286,1.5322,0.130639,6.407-0.001,7.9601-0.217648,2.5666-0.829728,6.1906-1.42428,8.4329-0.718721,2.7105-1.23506,4.2741-2.173178,6.5808-0.460035,1.1312-1.475839,3.357-1.690476,3.7042-0.0402,0.065-0.258158,0.4729-0.484365,0.9063-0.457568,0.8769-1.247882,2.2326-1.791719,3.0737-1.136804,1.7581-2.465894,3.648-3.020693,4.2953-0.167193,0.195-0.594726,0.7093-0.950067,1.1428-0.861386,1.0507-1.783805,2.0574-2.991667,3.2649-1.45266,1.4522-2.220961,2.1412-4.270491,3.8293-1.285366,1.0586-4.150831,3.0206-5.647728,3.8668-0.368448,0.2083-0.723103,0.4226-0.788123,0.4762-0.06502,0.053-1.02259,0.5535-2.127932,1.1111-3.319266,1.6742-6.234438,2.7827-9.81213,3.7311-2.621627,0.6949-5.899533,1.2628-8.629945,1.495-0.988929,0.084-5.730063,0.1627-6.54142,0.1085zm29.102091-17.8072c0.921347-0.1611,1.688853-0.4291,2.328817-0.8131,1.558553-0.9352,2.635546-2.3608,3.104558-4.1096l0.179669-0.6699,0.02319-26.2839c0.02528-28.6389,0.05001-26.8726-0.394361-28.1754-0.64459-1.8898-2.218188-3.4507-4.086851-4.054-1.303571-0.4208,0.239637-0.3987-27.853342-0.3988-22.8870248,0-26.0837141,0.014-26.6385526,0.1192-0.8279389,0.1566-1.5572599,0.3921-2.0724243,0.6694-0.6267468,0.3373-1.6102138,1.1015-1.87250897,1.4551-1.01269063,1.365-1.27296813,1.9093-1.52836723,3.1959l-0.1639375,0.8259,0.022257,26.3233c0.021003,24.8367,0.030091,26.3522,0.1609268,26.8356,0.6511471,2.4055,2.15751001,4.0827,4.3112764,4.8003,1.2093982,0.403-0.1568601,0.3836,27.7419244,0.3925,23.067213,0.01,26.126431-0.01,26.737722-0.1125zm-48.489913-8.1673c-1.0723594-0.3393-1.8077174-1.0573-2.1681181-2.1169l-0.1962505-0.577v-21.2906c0-19.3502,0.01157-21.3297,0.127006-21.7187,0.3802535-1.2816,1.1079825-2.0094,2.3895885-2.3896,0.3890569-0.1154,2.3692081-0.127,21.7277911-0.127h21.299721l0.576087,0.2055c1.083976,0.3868,1.76772,1.0975,2.103839,2.1869l0.166703,0.5402v21.2967,21.2966l-0.194075,0.5706c-0.360038,1.0585-1.041615,1.7401-2.100158,2.1001l-0.570609,0.1941h-21.324627c-21.2955995,0-21.3253196,0-21.836898-0.1665zm19.142054-2.3314c-0.0051-0.033-0.0051-1.0787,0-2.3249l0.0093-2.2659h2.679617,2.679618l0.01292,2.1477c0.0071,1.1812,0.01214,2.2274,0.01118,2.3249-0.0021,0.2167,0.09166,0.2217,1.049244,0.057,3.817068-0.6576,7.605393-2.4514,10.590873-5.0149,1.067521-0.9166,2.315545-2.2391,3.067359-3.2504,0.196479-0.2643,0.436194-0.5869,0.532692-0.717,0.0965-0.13,0.326299-0.4847,0.510672-0.7881,0.184374-0.3034,0.413276-0.6581,0.508678-0.7881,0.150445-0.2051,1.078137-2.0766,1.367346-2.7585,0.286436-0.6753,0.877764-2.5539,1.054414-3.3498,0.34746-1.5655,0.455992-2.4969,0.501885-4.3074,0.09927-3.9166-0.553515-6.9952-2.186513-10.312-0.838382-1.7028-1.807741-3.2512-1.971844-3.1498-0.04002,0.025-0.05589,0-0.03525-0.058,0.03706-0.1013-0.415751-0.7193-1.182098-1.6132-0.653188-0.7619-2.549301-2.5098-3.388928-3.1239-2.14501-1.5689-4.075076-2.5448-6.711079-3.3932-0.887284-0.2856-2.443622-0.6316-3.278378-0.7288l-0.453171-0.053v2.3358,2.3358h-2.679618-2.679617v-2.325c0-2.2319-0.006-2.3249-0.149799-2.3249-0.266638,0-1.968085,0.3093-2.627436,0.4776-0.619969,0.1583-2.206405,0.6884-3.015468,1.0075-0.602922,0.2378-2.487592,1.2094-2.797931,1.4424-0.151667,0.1138-0.417611,0.2792-0.590998,0.3675-0.406742,0.2071-1.824102,1.2597-2.514135,1.8672-1.575584,1.3869-3.293463,3.3711-4.075652,4.7075-0.133673,0.2284-0.322894,0.5217-0.420495,0.6517-0.244956,0.3264-1.1804344,2.2213-1.4979691,3.0343-0.6667125,1.707-1.087846,3.2738-1.3613719,5.0647-0.1918528,1.2562-0.1933738,5.0039-0.00252,6.2644,0.20544,1.357,0.5114996,2.6268,0.9260207,3.8419,0.4543528,1.3319,0.4413252,1.3004,1.1144923,2.6897,0.791031,1.6326,1.994416,3.4814,2.968977,4.5614,2.368995,2.6252,4.243679,4.0766,7.069415,5.4731,1.820193,0.8995,3.545205,1.4809,5.51686,1.8591,0.991797,0.1903,1.464356,0.2344,1.448696,0.1352zm-9.605767-17.405c-0.460571-0.1222-1.196505-0.4537-1.359843-0.6124-0.054-0.053-0.235744-0.1993-0.403866-0.3264-0.168122-0.127-0.446322-0.4213-0.618211-0.654-1.469731-1.9895-1.113862-4.699,0.813768-6.196,1.336333-1.0377,3.192615-1.2056,4.765952-0.4311,0.564651,0.278,1.42432,1.0986,1.76973,1.6893,0.780864,1.3353,0.778421,3.124-0.0061,4.4953-0.54256,0.9483-1.677165,1.7836-2.774067,2.0422-0.620197,0.1462-1.622335,0.1431-2.187316-0.01zm22.256676-0.019c-0.761469-0.2255-1.336365-0.5691-1.919647-1.1472-0.904252-0.8964-1.286445-1.8217-1.289574-3.1221-0.0031-1.2834,0.382342-2.2218,1.285342-3.1296,0.921347-0.9262,2.010375-1.3317,3.389701-1.2621,0.923845,0.047,1.569728,0.2697,2.310004,0.798,0.539493,0.3849,1.084118,1.0129,1.375763,1.5863,0.600061,1.1798,0.600439,2.8368,0.000945,4.012-0.464511,0.9105-1.459359,1.8011-2.405682,2.1536-0.721534,0.2687-2.035146,0.3219-2.746813,0.1111z"/>
 </g>
</svg>
