<?xml version="1.0" encoding="UTF-8" standalone="no"?>
<!-- Created with Inkscape (http://www.inkscape.org/) -->

<svg
   xmlns:dc="http://purl.org/dc/elements/1.1/"
   xmlns:cc="http://creativecommons.org/ns#"
   xmlns:rdf="http://www.w3.org/1999/02/22-rdf-syntax-ns#"
   xmlns:svg="http://www.w3.org/2000/svg"
   xmlns="http://www.w3.org/2000/svg"
   xmlns:sodipodi="http://sodipodi.sourceforge.net/DTD/sodipodi-0.dtd"
   xmlns:inkscape="http://www.inkscape.org/namespaces/inkscape"
   width="100"
   height="100.05711"
   id="svg2"
   version="1.1"
   inkscape:version="0.48.5 r10040"
   sodipodi:docname="Новый документ 1">
  <defs
     id="defs4" />
  <sodipodi:namedview
     id="base"
     pagecolor="#ffffff"
     bordercolor="#666666"
     borderopacity="1.0"
     inkscape:pageopacity="0.0"
     inkscape:pageshadow="2"
     inkscape:zoom="2.8"
     inkscape:cx="3.641649"
     inkscape:cy="32.502427"
     inkscape:document-units="px"
     inkscape:current-layer="layer1"
     showgrid="false"
     fit-margin-top="0"
     fit-margin-left="0"
     fit-margin-right="0"
     fit-margin-bottom="0"
     inkscape:window-width="1440"
     inkscape:window-height="846"
     inkscape:window-x="-3"
     inkscape:window-y="-3"
     inkscape:window-maximized="1" />
  <metadata
     id="metadata7">
    <rdf:RDF>
      <cc:Work
         rdf:about="">
        <dc:format>image/svg+xml</dc:format>
        <dc:type
           rdf:resource="http://purl.org/dc/dcmitype/StillImage" />
        <dc:title></dc:title>
      </cc:Work>
    </rdf:RDF>
  </metadata>
  <g
     inkscape:label="Layer 1"
     inkscape:groupmode="layer"
     id="layer1"
     transform="translate(-434.16767,-410.11704)">
    <path
       style="fill:#00adef;fill-opacity:1"
       d="m 478.00158,509.82665 c -10.20865,-1.28311 -20.10626,-5.94369 -27.84728,-13.11269 -17.10211,-15.83837 -20.91069,-40.93517 -9.34935,-61.60791 3.30031,-5.90124 11.518,-14.28788 17.42251,-17.78069 20.6756,-12.23063 46.41782,-8.626 62.50801,8.75289 14.97076,16.16981 17.69581,39.75633 6.82158,59.0437 -3.1227,5.53864 -10.81789,13.58188 -16.49559,17.24167 -9.30298,5.9966 -21.97233,8.85662 -33.05988,7.46303 z m -5.13306,-29.46095 c 2.85754,1.44523 7.90119,1.65512 11.92151,0.49611 2.42951,-0.7004 4.12776,-1.90177 8.03324,-5.68284 l 4.95244,-4.79468 -11.88806,-11.91384 -11.88806,-11.91384 -4.30365,4.27066 c -5.26191,5.2216 -7.045,8.88567 -6.97625,14.33552 0.0303,2.40528 0.48689,4.7029 1.24715,6.27645 l 1.19928,2.48223 -5.16383,5.13701 -5.16383,5.137 2.60231,2.65156 2.6023,2.65156 5.27161,-5.14358 5.27161,-5.14358 2.28223,1.15426 z m 8.06829,-6.14749 c -1.53199,-0.29508 -1.73833,-0.82259 -0.72006,-1.84086 0.48178,-0.48178 0.26454,-1.29648 -0.77243,-2.89668 -0.79351,-1.2245 -1.60282,-2.2298 -1.79848,-2.23401 -0.19565,-0.004 -1.00882,0.68753 -1.80705,1.5372 -0.79823,0.84967 -1.67148,1.54486 -1.94057,1.54486 -0.26909,0 -1.60028,-2.012 -2.9582,-4.4711 l -2.46895,-4.47109 1.63668,-1.70833 c 0.90017,-0.93957 1.84851,-1.70831 2.10742,-1.70831 0.25892,0 0.95451,1.53464 1.54577,3.41031 l 1.075,3.41031 2.33435,-2.27943 c 1.69885,-1.65888 2.41837,-2.04056 2.64298,-1.402 2.90388,8.2556 3.14933,8.64601 4.55311,7.24222 0.86608,-0.86607 0.96256,0.24893 0.34491,3.98573 -0.39166,2.36951 -0.62788,2.48724 -3.77448,1.88118 z m 25.11873,-5.37079 c 2.03347,-2.07195 2.53326,-2.95562 2.10472,-3.72137 -0.76226,-1.3621 -27.42,-28.12032 -28.72353,-28.83181 -1.66774,-0.91028 -6.81056,3.66108 -6.52698,5.80172 0.19266,1.45426 28.25231,29.46864 29.51628,29.46864 0.52954,0 2.16282,-1.22273 3.62951,-2.71718 z m 3.04766,-16.06418 c 2.43651,-2.51278 4.43002,-5.06307 4.43002,-5.6673 0,-1.425 -1.76197,-3.35871 -3.06042,-3.35871 -0.55828,0 -3.16371,2.13479 -5.78986,4.74396 l -4.7748,4.74396 1.99023,2.0534 c 1.09462,1.12937 2.16676,2.05339 2.38252,2.05339 0.21576,0 2.3858,-2.05591 4.82231,-4.5687 z m -8.54675,-18.95729 c 0,-1.59501 -2.22911,-3.24086 -3.83724,-2.8332 -0.77839,0.19732 -3.35052,2.312 -5.71583,4.69929 l -4.30058,4.34052 2.11413,2.18123 2.11413,2.18122 4.81269,-4.78447 c 2.64699,-2.63145 4.8127,-5.23452 4.8127,-5.78459 z"
       id="path2996"
       inkscape:connector-curvature="0" />
  </g>
</svg>
