<svg xmlns="http://www.w3.org/2000/svg" height="100.057" width="100">
    <path d="M43.834 99.71c-10.209-1.283-20.106-5.944-27.847-13.113-17.102-15.838-20.911-40.935-9.35-61.608 3.3-5.901 11.518-14.288 17.423-17.78C44.735-5.023 70.478-1.419 86.568 15.96c14.97 16.17 17.696 39.757 6.821 59.044-3.122 5.539-10.818 13.582-16.495 17.242-9.303 5.996-21.973 8.856-33.06 7.463zM38.7 70.249c2.857 1.445 7.901 1.655 11.921.496 2.43-.7 4.128-1.902 8.034-5.683l4.952-4.795L51.72 48.353 39.832 36.44l-4.304 4.27c-5.262 5.222-7.045 8.886-6.976 14.336.03 2.405.487 4.703 1.247 6.276l1.2 2.482-5.164 5.137-5.164 5.137 2.602 2.652 2.602 2.652 5.272-5.144 5.272-5.144L38.7 70.25zm8.068-6.148c-1.532-.295-1.738-.822-.72-1.84.482-.482.265-1.297-.772-2.897-.794-1.225-1.603-2.23-1.799-2.234-.195-.004-1.009.687-1.807 1.537s-1.671 1.545-1.94 1.545-1.6-2.012-2.959-4.471l-2.469-4.472 1.637-1.708c.9-.94 1.849-1.708 2.108-1.708.258 0 .954 1.534 1.545 3.41l1.075 3.41 2.335-2.279c1.698-1.659 2.418-2.04 2.643-1.402 2.903 8.256 3.149 8.646 4.553 7.242.866-.866.962.25.345 3.986-.392 2.37-.628 2.487-3.775 1.881zm25.119-5.37c2.033-2.073 2.533-2.956 2.105-3.722-.763-1.362-27.42-28.12-28.724-28.832-1.668-.91-6.81 3.661-6.527 5.802.193 1.454 28.252 29.469 29.516 29.469.53 0 2.163-1.223 3.63-2.718zm3.048-16.065c2.436-2.513 4.43-5.063 4.43-5.667 0-1.425-1.762-3.359-3.06-3.359-.56 0-3.165 2.135-5.79 4.744l-4.776 4.744 1.99 2.054c1.095 1.129 2.167 2.053 2.383 2.053s2.386-2.056 4.823-4.569zM66.389 23.71c0-1.595-2.23-3.241-3.837-2.833-.779.197-3.351 2.312-5.716 4.699l-4.3 4.34 2.113 2.182 2.114 2.181 4.813-4.785c2.647-2.631 4.813-5.234 4.813-5.784z" fill="gray"/>
</svg>
