<svg xmlns:rdf="http://www.w3.org/1999/02/22-rdf-syntax-ns#" xmlns="http://www.w3.org/2000/svg" height="92" width="112" version="1.1" xmlns:xlink="http://www.w3.org/1999/xlink" xmlns:dc="http://purl.org/dc/elements/1.1/">

<!-- cause actions -->
<rect ng-if="data.type['status'] == 'cause_actions'" class="cause_actions" rx="10" ry="10" height="80" width="100" stroke="#000" y="6" x="6" stroke-width="4px" fill="#fff"/>
<!-- /cause actions -->

<!-- transaction -->
<g ng-if="data.type['status'] == 'transaction'" class="transaction" transform="translate(6.0030479,5.9993294)" stroke="#000" stroke-dasharray="none" stroke-miterlimit="4" fill="none">
<rect rx="11.370948" ry="11.370948" height="83.94677" width="103.94006" y="-1.9727143" x="-1.9730797" stroke-width="1px" display="block" fill="none"/>
<rect class="rect48" rx="10" ry="10" height="80" width="100" y="0" x="0" stroke-width="1" display="block" fill="#fff"/>
</g>
<!-- /transaction -->

<!-- base -->
<rect ng-if="data.type['status'] == '' || data.type['status'] == 'event' || !data.type['status']" ng-class="{dashed: data.type['status'] == 'event'}" class="base" rx="10" ry="10" height="80" width="100" stroke="#000" y="6" x="6" stroke-width="2px" display="block" fill="#fff"/>
<!-- /base -->

 <g class="user" ng-if="data.type['action'] == 'user'" transform="translate(6,6)" display="block">
    <path fill="none" d="m15,12c0.909-0.845,1.594-2.049,1.594-3.385,0-2.554-1.805-4.622-4.357-4.622s-4.288,2.068-4.288,4.622c0,1.348,0.974,2.562,1.896,3.405-0.529,0.187-5.669,2.097-5.794,4.756v6.718h17v-6.718c0-2.298-5.528-4.595-6.051-4.776zm-8,6,0,5.5m11,0,0-5"/>
    <path fill="none" d="m15,12m2.162,1.009c0,2.447001-2.158,4.431-4.821,4.431-2.665,0-4.822-1.980999-4.822-4.431"/>
    <path fill="#000" d="M15,12m-6.9-3.8s2.251-2.358,4.274-1.177c2.024,1.181,4.221,1.537,4.124,0.965-0.098-0.57-0.117-3.791-4.191-4.136-3.575,0.001-4.208,3.367-4.207,4.348z"/>
 </g>
 <g class="manual" ng-if="data.type['action'] == 'manual'"  transform="translate(6,6)" display="block">
    <path d="m17,15c0.234-0.01,5.604,0.008,8.029,0.004,0.808,0,1.271-0.172,1.417-0.752,0.227-0.898-0.334-1.314-1.338-1.316-2.467-0.01-7.886-0.004-8.108-0.004-0.014-0.079,0.016-0.533,0-0.61,0.195-0.042,8.507,0.006,9.616,0.002,0.877-0.007,1.35-0.438,1.353-1.208,0.003-0.768-0.479-1.09-1.35-1.091-2.968-0.002-9.619-0.013-9.619-0.013v-0.591s5.052-0.016,7.225-0.016c0.888-0.002,1.354-0.416,1.351-1.193-0.006-0.761-0.492-1.196-1.361-1.196-3.473-0.005-10.86-0.003-11.082999-0.003-0.022-0.047-0.045-0.094-0.069-0.139,0.394-0.319,2.041-1.626,2.415-2.017,0.469-0.4870005,0.519-1.1650005,0.162-1.6040005-0.414-0.511-0.973-0.5-1.48-0.236-1.461,0.764-6.6000005,3.6430005-7.7330005,4.2710005-0.9,0.499-1.516,1.253-1.882,2.19-0.37,0.95-0.17,2.01-0.166,2.979,0.004,0.718-0.273,1.345-0.055,2.063,0.629,2.087,2.425,3.312,4.859,3.318,4.6179995,0.014,9.2379995-0.139,13.8569995-0.158,0.755-0.004,1.171-0.301,1.182-1.033,0.012-0.754-0.423-0.969-1.183-0.973-1.778-0.01-5.824-0.004-6.04-0.004,0.001-0.084,0.003-0.586,0.001-0.67z" stroke="#000" stroke-width="0.25px" fill="#FFF"/>
 </g>
 <g class="service" ng-if="data.type['action'] == 'service'" transform="translate(6,6)" display="block">
    <path d="m12,18v-1.71335c0.352326-0.0705,0.703932-0.17838,1.047628-0.32133,0.344416-0.14465,0.665822-0.32133,0.966377-0.52145l1.19431,1.18005,1.567487-1.57688-1.195028-1.18014c0.403376-0.61394,0.683079-1.29908,0.825447-2.01824l1.622133-0.01v-2.2196l-1.636514,0.01c-0.07333-0.35153-0.178319-0.70024-0.323564-1.04372-0.145244-0.34406-0.321407-0.6644-0.522735-0.96217l1.131035-1.13631-1.583305-1.56293-1.129598,1.13589c-0.614052-0.40108-1.302883-0.68093-2.022633-0.82247l0.0093-1.61852h-2.241173l0.0042,1.63124c-0.353763,0.0736-0.705369,0.17977-1.049785,0.32371-0.344415,0.14437-0.665102,0.32092-0.9635006,0.52046l-1.1698628-1.15823-1.5667691,1.5792,1.1684265,1.15669c-0.4026573,0.61283-0.68308,1.29797-0.8247287,2.01713l-1.6588041,0.003v2.22174l1.6724648-0.006c0.073327,0.35077,0.1797598,0.70243,0.3242851,1.04472,0.1452428,0.34448,0.3214064,0.6644,0.5227339,0.96066l-1.1993431,1.19723,1.5840256,1.56011,1.1964668-1.19348c0.6140517,0.40346,1.3028827,0.68232,2.0233517,0.82331l0.000719,1.69892h2.226848zm0.221462-3.9957c-1.788948,0.7502-3.8576-0.0928-4.6097055-1.87438-0.7521065-1.78321,0.090598-3.84627,1.8802645-4.59604,1.78823-0.74936,3.856881,0.0929,4.608987,1.87437,0.752106,1.78165-0.0906,3.84612-1.879546,4.59605z" stroke="#000" stroke-width="1px" fill="none"/>
    <path fill="#FFF" d="m17.2,18c-1.788948,0.7502-3.8576-0.0928-4.609706-1.87438-0.752106-1.78321,0.0906-3.84627,1.880265-4.59604,1.78823-0.74936,3.856881,0.0929,4.608987,1.87437,0.752106,1.78165-0.0906,3.84612-1.879546,4.59605z"/>
    <path d="m17,22v-1.71335c0.352326-0.0705,0.703932-0.17838,1.047628-0.32133,0.344416-0.14465,0.665822-0.32133,0.966377-0.52145l1.19431,1.18005,1.567487-1.57688-1.195028-1.18014c0.403376-0.61394,0.683079-1.29908,0.825447-2.01824l1.622133-0.01v-2.2196l-1.636514,0.01c-0.07333-0.35153-0.178319-0.70024-0.323564-1.04372-0.145244-0.34406-0.321407-0.6644-0.522735-0.96217l1.131035-1.13631-1.583305-1.56293-1.129598,1.13589c-0.614052-0.40108-1.302883-0.68093-2.022633-0.82247l0.0093-1.61852h-2.241173l0.0042,1.63124c-0.353763,0.0736-0.705369,0.17977-1.049785,0.32371-0.344415,0.14437-0.665102,0.32092-0.963501,0.52046l-1.169862-1.15823-1.5667695,1.5792,1.1684265,1.15669c-0.402657,0.61283-0.68308,1.29797-0.824729,2.01713l-1.6588038,0.003v2.22174l1.6724648-0.006c0.07333,0.35077,0.17976,0.70243,0.324285,1.04472,0.145243,0.34448,0.321407,0.6644,0.522734,0.96066l-1.1993431,1.19723,1.5840261,1.56011,1.196466-1.19348c0.614052,0.40346,1.302883,0.68232,2.023352,0.82331l0.000719,1.69892h2.226848zm0.221462-3.9957c-1.788948,0.7502-3.8576-0.0928-4.609706-1.87438-0.752106-1.78321,0.0906-3.84627,1.880265-4.59604,1.78823-0.74936,3.856881,0.0929,4.608987,1.87437,0.752106,1.78165-0.0906,3.84612-1.879546,4.59605z" stroke="#000" stroke-width="1px" fill="#FFF"/>
 </g>
 <g class="script" ng-if="data.type['action'] == 'script'" transform="translate(6,6)" display="block">
    <path d="M15,20c9.966553-6.27276-8.000926-7.91932,2.968968-14.938h-8.802728c-10.969894,7.01868,6.997585,8.66524-2.968967,14.938zm-7-12,5,0m-4.5,3,4.5,0m-3,3,5,0m-4,3,5,0" stroke="#000" stroke-width="1px" fill="none"/>
 </g>
 <g class="subprocess" ng-if="data.type['action'] == 'subprocess'" transform="translate(6,6)" display="block" stroke="#000">
    <rect transform="translate(42.5,60)" rx="0" ry="0" height="14" width="14" y="0" x="0" stroke-width="1px" fill="#FFF"/>
    <path d="m42.5,60m7,2,0,10m-5-5,10,0" stroke-width="2px" fill="none"/>
 </g>
 <g class="parallel-mi" ng-if="data.type['action'] == 'parallel-mi'" transform="translate(6,6)" display="block">
    <path d="m44,60m3,2,0,10m3-10,0,10m3-10,0,10" stroke="#000" stroke-width="2px" fill="none"/>
 </g>
 <g class="sequential-mi" ng-if="data.type['action'] == 'sequential-mi'" transform="translate(6,6)" display="block">
    <path d="m47,61m0,3,10,0m-10,3,10,0m-10,3,10,0" stroke="#000" stroke-width="2px" fill="none"/>
 </g>
 <g class="cycle" ng-if="data.type['action'] == 'cycle'" transform="translate(6,6)" display="block">
    <path d="m50,73c3.526979,0,6.386161-2.829858,6.386161-6.320661,0-3.490806-2.859182-6.320661-6.386161-6.320661-3.526978,0-6.38616,2.829855-6.38616,6.320661,0,1.745402,0.714797,3.325567,1.870463,4.469381,0.577834,0.571908,1.265885,1.034728,2.029916,1.35457l-0.718163-3.909793m0.718163,3.909793-3.885211,0.802902" stroke="#000" stroke-linecap="round" stroke-miterlimit="0.5" stroke-width="2px" fill="none"/>
 </g>
 <g class="business_rule" ng-if="data.type['action'] == 'business_rule'" transform="translate(6,6)" display="block" >
    <path class="head" fill="AAA" d="m8,8,0,4,20,0,0-4z"/>
    <path fill="none" d="m8,8,0,12,20,0,0-12zm0,8,20,0m-13-4,0,8"/>
 </g>
 <g class="receive" ng-if="data.type['action'] == 'receive'" transform="translate(6,6)" display="block">
    <path d="m6.3,5.6,0,12.6,18.9,0,0-12.6zm9.45,5.4,9.77022-5.4-19.625425,0z" stroke="#000" stroke-width="1px" fill="none"/>
 </g>
 <g class="send" ng-if="data.type['action'] == 'send'">
    <path d="m11.985,10.998,0,14,21,0,0-14zm10.5,6,10.5-6-20.959047,0z" stroke="#FFF" stroke-width="1px" fill="#000"/>
 </g>
    <g>
        <div class="inner">
            <span ng-if="data.title" class="title" ng-bind="data.title"></span>
        </div>
        <span ng-if="data.label" class="label label-default" ng-bind="data.label"></span>
        <div class="ep"></div>
        <div ng-if="data.info" class="info" ng-bind="data.info"></div>
    </g>
</svg>