<?xml version="1.0" encoding="utf-8"?>
<svg xmlns:xlink="http://www.w3.org/1999/xlink" width="1024" height="1024" xmlns="http://www.w3.org/2000/svg">
    <defs>
        <symbol overflow="visible" id="u">
            <path d="M1.297-8.75h4.64v1H2.376v2.14c.176-.062.348-.1.516-.124a2.86 2.86 0 01.515-.047c.977 0 1.754.273 2.328.812.57.532.86 1.25.86 2.157 0 .949-.297 1.683-.89 2.203-.587.523-1.407.78-2.47.78-.375 0-.757-.03-1.14-.093A9.055 9.055 0 01.922-.203v-1.188a4.73 4.73 0 002.281.562c.676 0 1.211-.175 1.61-.53.394-.352.593-.836.593-1.454 0-.601-.199-1.082-.593-1.437-.399-.352-.934-.531-1.61-.531a4.42 4.42 0 00-.953.11 4.453 4.453 0 00-.953.312zm0 0"/>
        </symbol>
        <symbol overflow="visible" id="a">
            <path d="M10.25-17.219c-1.867 0-3.344.7-4.438 2.094-1.093 1.387-1.64 3.277-1.64 5.672 0 2.387.547 4.273 1.64 5.656 1.094 1.387 2.57 2.078 4.438 2.078 1.852 0 3.32-.691 4.406-2.078 1.094-1.383 1.64-3.27 1.64-5.656 0-2.395-.546-4.285-1.64-5.672-1.086-1.395-2.554-2.094-4.406-2.094zm0-2.078c2.656 0 4.773.89 6.36 2.672C18.202-14.844 19-12.453 19-9.453c0 2.98-.797 5.367-2.39 7.156C15.022-.516 12.905.375 10.25.375c-2.668 0-4.805-.89-6.406-2.672-1.594-1.781-2.39-4.164-2.39-7.156 0-3 .796-5.39 2.39-7.172 1.601-1.781 3.738-2.672 6.406-2.672zm0 0"/>
        </symbol>
        <symbol overflow="visible" id="c">
            <path d="M14.266-8.578V0h-2.329v-8.5c0-1.352-.265-2.363-.796-3.031-.524-.664-1.309-1-2.36-1-1.261 0-2.258.402-2.984 1.203-.73.805-1.094 1.902-1.094 3.297V0H2.36v-19.75h2.344v7.734c.563-.851 1.223-1.488 1.984-1.906.758-.426 1.633-.64 2.625-.64 1.626 0 2.852.507 3.688 1.515.844 1.012 1.266 2.5 1.266 4.469zm0 0"/>
        </symbol>
        <symbol overflow="visible" id="d">
            <path d="M14.61-7.688v1.141H3.874c.102 1.606.586 2.828 1.453 3.672.863.844 2.07 1.266 3.625 1.266.895 0 1.766-.11 2.61-.329.843-.218 1.675-.55 2.5-1v2.22c-.836.355-1.696.624-2.579.812-.873.186-1.763.281-2.67.281-2.274 0-4.07-.66-5.391-1.984-1.324-1.32-1.985-3.11-1.985-5.36 0-2.332.625-4.18 1.875-5.547 1.258-1.363 2.958-2.046 5.094-2.046 1.914 0 3.426.617 4.531 1.843 1.114 1.23 1.672 2.906 1.672 5.031zm-2.329-.687c-.023-1.281-.383-2.3-1.078-3.063-.7-.757-1.621-1.14-2.765-1.14-1.313 0-2.36.371-3.141 1.11-.781.73-1.23 1.765-1.344 3.109zm0 0"/>
        </symbol>
        <symbol overflow="visible" id="e">
            <path d="M10.688-12.031a3.022 3.022 0 00-.86-.344 4.51 4.51 0 00-1.015-.11c-1.325 0-2.34.434-3.047 1.297-.711.856-1.063 2.09-1.063 3.704V0H2.36v-14.219h2.344v2.203c.5-.863 1.14-1.504 1.922-1.921.79-.415 1.75-.626 2.875-.626.156 0 .332.012.531.032.196.023.41.054.64.094zm0 0"/>
        </symbol>
        <symbol overflow="visible" id="k">
            <path d="M2.547-18.953h2.562v8.015l8.516-8.015h3.297l-9.406 8.828L17.594 0h-3.375l-9.11-9.125V0H2.547zm0 0"/>
        </symbol>
        <symbol overflow="visible" id="l">
            <path d="M2.453-14.219h2.328V0H2.453zm0-5.531h2.328v2.953H2.453zm0 0"/>
        </symbol>
        <symbol overflow="visible" id="m">
            <path d="M12.688-13.672v2.188a9.238 9.238 0 00-2-.813 7.253 7.253 0 00-2-.281c-1.524 0-2.704.48-3.547 1.437-.836.961-1.25 2.309-1.25 4.047 0 1.73.414 3.078 1.25 4.047.843.961 2.023 1.438 3.546 1.438.676 0 1.344-.086 2-.266a9.519 9.519 0 002-.828v2.156a10.04 10.04 0 01-2.03.688c-.7.156-1.438.234-2.22.234-2.148 0-3.851-.672-5.109-2.016-1.262-1.351-1.89-3.171-1.89-5.453 0-2.32.632-4.144 1.906-5.468 1.27-1.333 3.015-2 5.234-2 .719 0 1.422.074 2.11.218a9.49 9.49 0 012 .672zm0 0"/>
        </symbol>
        <symbol overflow="visible" id="n">
            <path d="M14.266-8.578V0h-2.329v-8.5c0-1.352-.265-2.363-.796-3.031-.524-.664-1.309-1-2.36-1-1.261 0-2.258.402-2.984 1.203-.73.805-1.094 1.902-1.094 3.297V0H2.36v-14.219h2.344v2.203c.563-.851 1.223-1.488 1.984-1.906.758-.426 1.633-.64 2.625-.64 1.626 0 2.852.507 3.688 1.515.844 1.012 1.266 2.5 1.266 4.469zm0 0"/>
        </symbol>
        <symbol overflow="visible" id="f">
            <path d="M1.734-11.672h6.188v1.328h-4.75v2.86c.226-.07.457-.13.687-.172.227-.04.457-.063.688-.063 1.3 0 2.332.36 3.094 1.078.757.711 1.14 1.672 1.14 2.891 0 1.262-.39 2.242-1.172 2.938C6.83-.114 5.727.234 4.313.234a8.25 8.25 0 01-1.5-.14 11.943 11.943 0 01-1.579-.375V-1.86c.47.25.954.437 1.454.562.5.125 1.03.188 1.593.188.895 0 1.602-.235 2.125-.704.532-.476.797-1.125.797-1.937 0-.813-.266-1.453-.797-1.922-.523-.476-1.23-.719-2.125-.719-.43 0-.851.047-1.265.141a6.815 6.815 0 00-1.282.438zm0 0"/>
        </symbol>
        <symbol overflow="visible" id="g">
            <path d="M1.766-.25v-1.438a6.46 6.46 0 001.203.438c.406.094.8.14 1.187.14 1.04 0 1.836-.347 2.39-1.046.552-.696.864-1.758.938-3.188a3.05 3.05 0 01-1.156 1.032c-.46.242-.969.359-1.531.359-1.168 0-2.09-.352-2.766-1.063-.68-.707-1.015-1.671-1.015-2.89 0-1.196.351-2.157 1.062-2.875.707-.727 1.649-1.094 2.828-1.094 1.344 0 2.367.516 3.078 1.547.72 1.031 1.079 2.531 1.079 4.5 0 1.844-.438 3.32-1.313 4.422C6.875-.313 5.703.234 4.234.234c-.398 0-.796-.043-1.203-.125A9.766 9.766 0 011.766-.25zm3.14-4.938c.707 0 1.266-.238 1.672-.718.414-.489.625-1.157.625-2 0-.844-.21-1.504-.625-1.985-.406-.488-.965-.734-1.672-.734-.71 0-1.273.246-1.687.734-.418.48-.625 1.141-.625 1.985 0 .843.207 1.511.625 2 .414.48.976.718 1.687.718zm0 0"/>
        </symbol>
        <symbol overflow="visible" id="h">
            <path d="M11.219-8.594L7.656-5.016l3.563 3.579-.922.937-3.594-3.578L3.125-.5l-.922-.938 3.563-3.578-3.563-3.578.922-.953 3.578 3.594 3.594-3.594zm0 0"/>
        </symbol>
        <symbol overflow="visible" id="i">
            <path d="M6.5-6.297c.75.168 1.336.508 1.766 1.016.425.511.64 1.14.64 1.89 0 1.149-.398 2.04-1.187 2.672-.793.637-1.918.953-3.375.953-.492 0-.996-.054-1.516-.156a9.813 9.813 0 01-1.61-.437v-1.516c.438.25.915.445 1.438.578.52.125 1.067.188 1.64.188.99 0 1.74-.192 2.25-.579.52-.394.782-.96.782-1.703 0-.687-.242-1.222-.719-1.609-.48-.395-1.152-.594-2.015-.594h-1.36V-6.89h1.422c.782 0 1.375-.148 1.782-.453.414-.312.625-.758.625-1.343 0-.602-.215-1.063-.641-1.376-.43-.32-1.04-.484-1.828-.484-.43 0-.89.047-1.39.14a13.42 13.42 0 00-1.626.438v-1.406c.594-.164 1.149-.29 1.672-.375a9.752 9.752 0 011.484-.125c1.196 0 2.145.273 2.844.813.695.542 1.047 1.277 1.047 2.203 0 .648-.188 1.195-.563 1.64-.367.45-.886.758-1.562.922zm0 0"/>
        </symbol>
        <symbol overflow="visible" id="j">
            <path d="M1.313-11.672h7.5V-11L4.577 0h-1.64l3.984-10.344h-5.61zm0 0"/>
        </symbol>
        <symbol overflow="visible" id="o">
            <path d="M5.281-6.469c-.71 0-1.273.246-1.687.735-.406.48-.61 1.14-.61 1.984 0 .844.204 1.512.61 2 .414.48.976.719 1.687.719.707 0 1.27-.239 1.688-.719.414-.488.625-1.156.625-2 0-.844-.211-1.504-.625-1.984-.418-.489-.98-.735-1.688-.735zm3.14-4.937v1.437a5.967 5.967 0 00-1.202-.422 4.963 4.963 0 00-1.203-.156c-1.043 0-1.84.356-2.391 1.063-.543.699-.855 1.757-.938 3.171a3.242 3.242 0 012.688-1.406c1.176 0 2.102.36 2.781 1.078.676.711 1.016 1.672 1.016 2.891 0 1.2-.356 2.164-1.063 2.89C7.4-.128 6.457.235 5.281.235c-1.343 0-2.375-.515-3.093-1.546-.711-1.04-1.063-2.547-1.063-4.516 0-1.844.438-3.313 1.313-4.406.874-1.094 2.046-1.641 3.515-1.641.395 0 .797.043 1.203.125.407.074.828.188 1.266.344zm0 0"/>
        </symbol>
        <symbol overflow="visible" id="p">
            <path d="M5.094-10.625c-.813 0-1.43.402-1.844 1.203-.406.793-.61 1.992-.61 3.594 0 1.605.204 2.808.61 3.61.414.792 1.031 1.187 1.844 1.187.812 0 1.422-.395 1.828-1.188.414-.8.625-2.004.625-3.61 0-1.6-.211-2.8-.625-3.593-.406-.8-1.016-1.203-1.828-1.203zm0-1.25c1.3 0 2.297.516 2.984 1.547.695 1.031 1.047 2.531 1.047 4.5 0 1.969-.352 3.476-1.047 4.516C7.391-.282 6.395.234 5.094.234c-1.313 0-2.313-.515-3-1.546-.688-1.04-1.031-2.547-1.031-4.516 0-1.969.343-3.469 1.03-4.5.688-1.031 1.688-1.547 3-1.547zm0 0"/>
        </symbol>
        <symbol overflow="visible" id="q">
            <path d="M-4.844-3.969c0 .531.184.953.547 1.266.367.312.86.469 1.484.469.637 0 1.137-.157 1.5-.47.368-.312.547-.733.547-1.265 0-.531-.18-.945-.546-1.25-.364-.312-.864-.468-1.5-.468-.626 0-1.118.156-1.485.468-.363.305-.547.719-.547 1.25zm-3.718-2.344h1.078a5.668 5.668 0 00-.313.907c-.07.304-.11.601-.11.89 0 .782.266 1.383.798 1.797.523.406 1.312.64 2.375.703a2.422 2.422 0 01-1.047-2.016c0-.874.265-1.566.797-2.077.53-.508 1.257-.766 2.171-.766.907 0 1.633.266 2.172.797.543.531.813 1.234.813 2.11 0 1.023-.383 1.796-1.156 2.327-.782.532-1.907.797-3.375.797-1.383 0-2.489-.328-3.313-.984-.82-.656-1.234-1.535-1.234-2.64 0-.29.031-.587.094-.891.054-.301.136-.618.25-.954zm0 0"/>
        </symbol>
        <symbol overflow="visible" id="r">
            <path d="M-1-2.297v-4.14h1v5.562h-1a333.775 333.775 0 01-1.86-1.828c-.788-.781-1.3-1.27-1.53-1.469-.415-.383-.77-.648-1.063-.797a1.898 1.898 0 00-.875-.234c-.469 0-.848.168-1.14.5-.29.324-.438.746-.438 1.266 0 .374.062.773.187 1.187.125.406.324.844.594 1.313h-1.203a9.498 9.498 0 01-.422-1.329 4.854 4.854 0 01-.156-1.14c0-.906.23-1.63.687-2.172.45-.54 1.055-.813 1.813-.813.355 0 .695.07 1.015.204.325.136.704.382 1.141.734.117.105.445.418.984.937.543.524 1.297 1.262 2.266 2.22zm0 0"/>
        </symbol>
        <symbol overflow="visible" id="s">
            <path d="M-8.75-1.297v-4.64h1v3.562h2.14a2.603 2.603 0 01-.124-.516 2.943 2.943 0 01-.047-.515c0-.977.273-1.754.812-2.328.532-.57 1.25-.86 2.157-.86.949 0 1.683.297 2.203.89.523.587.78 1.407.78 2.47 0 .375-.03.757-.093 1.14A9.055 9.055 0 01-.203-.922h-1.188a4.73 4.73 0 00.562-2.281c0-.676-.175-1.211-.53-1.61-.352-.394-.836-.593-1.454-.593-.601 0-1.082.199-1.437.593-.352.399-.531.934-.531 1.61 0 .312.039.633.11.953.062.313.167.633.312.953zm0 0"/>
        </symbol>
        <symbol overflow="visible" id="t">
            <path d="M4.875-4.719c.563.125 1 .383 1.313.766.32.375.484.844.484 1.406 0 .867-.297 1.54-.89 2.016-.595.469-1.438.703-2.532.703-.367 0-.746-.04-1.14-.11A7.226 7.226 0 01.921-.266v-1.14c.32.187.676.336 1.062.437.395.094.805.14 1.235.14.738 0 1.3-.144 1.687-.437.395-.289.594-.718.594-1.28 0-.509-.184-.911-.547-1.204-.367-.29-.867-.438-1.5-.438h-1.03v-.968H3.5c.57 0 1.016-.114 1.328-.344.313-.238.469-.578.469-1.016 0-.445-.164-.789-.484-1.03-.313-.24-.766-.36-1.36-.36-.336 0-.687.039-1.062.11a8.769 8.769 0 00-1.22.312v-1.047c.458-.125.88-.219 1.266-.281a7.124 7.124 0 011.11-.094c.906 0 1.617.203 2.14.61.52.405.782.96.782 1.655 0 .493-.14.903-.422 1.235-.274.336-.664.562-1.172.687zm0 0"/>
        </symbol>
        <symbol overflow="visible" id="b">
            <path d="M4.766-18.25v4.031h4.812v1.813H4.766v7.719c0 1.156.156 1.902.468 2.234.32.336.97.5 1.938.5h2.406V0H7.172C5.367 0 4.125-.332 3.438-1c-.688-.676-1.032-1.906-1.032-3.688v-7.718H.703v-1.813h1.703v-4.031zm0 0"/>
        </symbol>
        <symbol overflow="visible" id="v">
            <path d="M1.484-1h1.938v-6.672l-2.11.422v-1.078l2.094-.422h1.188V-1H6.53v1H1.484zm0 0"/>
        </symbol>
        <symbol overflow="visible" id="w">
            <path d="M2.297-1h4.14v1H.875v-1c.445-.457 1.055-1.078 1.828-1.86.781-.788 1.27-1.3 1.469-1.53.383-.415.648-.77.797-1.063.156-.3.234-.594.234-.875 0-.469-.168-.848-.5-1.14-.324-.29-.746-.438-1.266-.438-.374 0-.773.062-1.187.187a6.527 6.527 0 00-1.313.594v-1.203a9.498 9.498 0 011.329-.422 4.854 4.854 0 011.14-.156c.906 0 1.63.23 2.172.687.54.45.813 1.055.813 1.813 0 .355-.07.695-.204 1.015-.136.325-.382.704-.734 1.141-.105.117-.418.445-.937.984-.524.543-1.262 1.297-2.22 2.266zm0 0"/>
        </symbol>
        <symbol overflow="visible" id="x">
            <path d="M3.969-4.844c-.531 0-.953.184-1.266.547-.312.367-.469.86-.469 1.484 0 .637.157 1.137.47 1.5.312.368.733.547 1.265.547.531 0 .945-.18 1.25-.546.312-.364.468-.864.468-1.5 0-.626-.156-1.118-.468-1.485-.305-.363-.719-.547-1.25-.547zm2.344-3.718v1.078a5.668 5.668 0 00-.907-.313 3.965 3.965 0 00-.89-.11c-.782 0-1.383.266-1.797.798-.406.523-.64 1.312-.703 2.375a2.422 2.422 0 012.016-1.047c.874 0 1.566.265 2.077.797.508.53.766 1.257.766 2.171 0 .907-.266 1.633-.797 2.172-.531.543-1.234.813-2.11.813-1.023 0-1.796-.383-2.327-1.156C1.109-1.766.844-2.891.844-4.36c0-1.383.328-2.489.984-3.313.656-.82 1.535-1.234 2.64-1.234.29 0 .587.031.891.094.301.054.618.136.954.25zm0 0"/>
        </symbol>
        <symbol overflow="visible" id="y">
            <path d="M.984-8.75H6.61v.5L3.438 0H2.202l2.985-7.75H.984zm0 0"/>
        </symbol>
        <symbol overflow="visible" id="z">
            <path d="M1 2.297v4.14H0V.875h1c.457.445 1.078 1.055 1.86 1.828.788.781 1.3 1.27 1.53 1.469.415.383.77.648 1.063.797.3.156.594.234.875.234.469 0 .848-.168 1.14-.5.29-.324.438-.746.438-1.266 0-.374-.062-.773-.187-1.187A6.527 6.527 0 007.125.937h1.203c.188.477.328.922.422 1.329.102.414.156.796.156 1.14 0 .906-.23 1.63-.687 2.172-.45.54-1.055.813-1.813.813a2.61 2.61 0 01-1.015-.204c-.325-.136-.704-.382-1.141-.734a61.923 61.923 0 01-.984-.937A276.423 276.423 0 011 2.296zm0 0"/>
        </symbol>
        <symbol overflow="visible" id="A">
            <path d="M7.969 3.813c0-.606-.305-1.063-.907-1.376-.593-.304-1.496-.453-2.703-.453-1.199 0-2.101.149-2.703.454-.593.312-.89.769-.89 1.374 0 .614.296 1.07.89 1.376.602.312 1.504.468 2.703.468 1.207 0 2.11-.156 2.704-.468.601-.305.906-.762.906-1.375zm.937 0c0 .976-.39 1.726-1.172 2.25-.773.519-1.898.78-3.375.78-1.468 0-2.593-.261-3.375-.78-.773-.524-1.156-1.274-1.156-2.25 0-.981.383-1.731 1.156-2.25C1.766 1.05 2.891.796 4.36.796c1.477 0 2.602.254 3.375.765.782.52 1.172 1.27 1.172 2.25zm0 0"/>
        </symbol>
        <symbol overflow="visible" id="B">
            <path d="M8.75 1.297v4.64h-1V2.376H5.61c.062.176.1.348.124.516.032.175.047.347.047.515 0 .977-.273 1.754-.812 2.328-.532.57-1.25.86-2.157.86-.949 0-1.683-.297-2.203-.89-.523-.587-.78-1.407-.78-2.47 0-.375.03-.757.093-1.14.062-.375.156-.766.281-1.172h1.188a4.794 4.794 0 00-.422 1.094c-.094.375-.14.77-.14 1.187 0 .676.175 1.211.53 1.61.352.394.836.593 1.454.593.601 0 1.082-.199 1.437-.593.352-.399.531-.934.531-1.61a4.42 4.42 0 00-.11-.953 4.453 4.453 0 00-.312-.953zm0 0"/>
        </symbol>
        <symbol overflow="visible" id="C">
            <path d="M1 2.297v4.14H0V.875h1c.457.445 1.078 1.055 1.86 1.828.788.781 1.3 1.27 1.53 1.469.415.383.77.648 1.063.797.3.156.594.234.875.234.469 0 .848-.168 1.14-.5.29-.324.438-.746.438-1.266 0-.374-.062-.773-.187-1.187A6.527 6.527 0 007.125.937h1.203c.188.477.328.922.422 1.329.102.414.156.796.156 1.14 0 .906-.23 1.63-.687 2.172-.45.54-1.055.813-1.813.813a2.61 2.61 0 01-1.015-.204c-.325-.136-.704-.382-1.141-.734a61.923 61.923 0 01-.984-.937A276.423 276.423 0 011 2.296zm0 0"/>
        </symbol>
        <symbol overflow="visible" id="D">
            <path d="M1 1.484v1.938h6.672l-.422-2.11h1.078l.422 2.094v1.188H1V6.53H0V1.484zm0 0"/>
        </symbol>
        <symbol overflow="visible" id="E">
            <path d="M8.75 1.297v4.64h-1V2.376H5.61c.062.176.1.348.124.516.032.175.047.347.047.515 0 .977-.273 1.754-.812 2.328-.532.57-1.25.86-2.157.86-.949 0-1.683-.297-2.203-.89-.523-.587-.78-1.407-.78-2.47 0-.375.03-.757.093-1.14.062-.375.156-.766.281-1.172h1.188a4.794 4.794 0 00-.422 1.094c-.094.375-.14.77-.14 1.187 0 .676.175 1.211.53 1.61.352.394.836.593 1.454.593.601 0 1.082-.199 1.437-.593.352-.399.531-.934.531-1.61a4.42 4.42 0 00-.11-.953 4.453 4.453 0 00-.312-.953zm0 0"/>
        </symbol>
        <symbol overflow="visible" id="F">
            <path d="M1 2.297v4.14H0V.875h1c.457.445 1.078 1.055 1.86 1.828.788.781 1.3 1.27 1.53 1.469.415.383.77.648 1.063.797.3.156.594.234.875.234.469 0 .848-.168 1.14-.5.29-.324.438-.746.438-1.266 0-.374-.062-.773-.187-1.187A6.527 6.527 0 007.125.937h1.203c.188.477.328.922.422 1.329.102.414.156.796.156 1.14 0 .906-.23 1.63-.687 2.172-.45.54-1.055.813-1.813.813a2.61 2.61 0 01-1.015-.204c-.325-.136-.704-.382-1.141-.734a61.923 61.923 0 01-.984-.937A276.423 276.423 0 011 2.296zm0 0"/>
        </symbol>
        <symbol overflow="visible" id="G">
            <path d="M1 1.484v1.938h6.672l-.422-2.11h1.078l.422 2.094v1.188H1V6.53H0V1.484zm0 0"/>
        </symbol>
        <symbol overflow="visible" id="H">
            <path d="M3.813-4.156c-.563 0-1.008.152-1.329.453C2.16-3.398 2-2.988 2-2.47c0 .531.16.95.484 1.25.32.305.766.453 1.329.453.562 0 1.003-.148 1.328-.453.32-.3.484-.718.484-1.25 0-.52-.164-.93-.484-1.234-.313-.3-.758-.453-1.329-.453zm-1.188-.5c-.5-.125-.898-.36-1.188-.703-.28-.352-.421-.782-.421-1.282 0-.695.25-1.25.75-1.656.5-.406 1.18-.61 2.046-.61.876 0 1.555.204 2.047.61.5.406.75.961.75 1.656 0 .5-.14.93-.421 1.282-.282.343-.68.578-1.188.703.57.136 1.016.398 1.328.781.32.387.484.855.484 1.406 0 .856-.261 1.512-.78 1.969-.512.45-1.25.672-2.22.672-.96 0-1.699-.223-2.218-.672C1.07-.957.812-1.613.812-2.469c0-.55.16-1.02.485-1.406.32-.383.766-.645 1.328-.781zm-.422-1.875c0 .46.14.812.422 1.062.281.25.676.375 1.188.375.507 0 .906-.125 1.187-.375.29-.25.438-.601.438-1.062 0-.446-.149-.797-.438-1.047-.281-.258-.68-.39-1.188-.39-.511 0-.906.132-1.187.39-.281.25-.422.601-.422 1.047zm0 0"/>
        </symbol>
        <symbol overflow="visible" id="I">
            <path d="M1.484-1h1.938v-6.672l-2.11.422v-1.078l2.094-.422h1.188V-1H6.53v1H1.484zm0 0"/>
        </symbol>
        <symbol overflow="visible" id="J">
            <path d="M1.313-.188v-1.078a4.153 4.153 0 001.812.438c.781 0 1.375-.258 1.781-.781.414-.532.649-1.332.703-2.407a2.145 2.145 0 01-.859.782 2.46 2.46 0 01-1.156.265c-.875 0-1.57-.258-2.078-.781C1.004-4.281.75-5.008.75-5.938c0-.894.266-1.613.797-2.156.531-.539 1.238-.812 2.125-.812 1.008 0 1.781.39 2.312 1.172.54.773.813 1.898.813 3.375 0 1.375-.328 2.476-.984 3.296C5.155-.238 4.272.173 3.171.173a4.39 4.39 0 01-.906-.094 5.409 5.409 0 01-.954-.266zM3.671-3.89c.531 0 .953-.18 1.265-.546.313-.364.47-.864.47-1.5 0-.625-.157-1.118-.47-1.485-.312-.363-.734-.547-1.265-.547-.531 0-.953.184-1.266.547-.304.367-.453.86-.453 1.484 0 .637.149 1.137.453 1.5.313.368.735.547 1.266.547zm0 0"/>
        </symbol>
        <symbol overflow="visible" id="K">
            <path d="M4.875-4.719c.563.125 1 .383 1.313.766.32.375.484.844.484 1.406 0 .867-.297 1.54-.89 2.016-.595.469-1.438.703-2.532.703-.367 0-.746-.04-1.14-.11A7.226 7.226 0 01.921-.266v-1.14c.32.187.676.336 1.062.437.395.094.805.14 1.235.14.738 0 1.3-.144 1.687-.437.395-.289.594-.718.594-1.28 0-.509-.184-.911-.547-1.204-.367-.29-.867-.438-1.5-.438h-1.03v-.968H3.5c.57 0 1.016-.114 1.328-.344.313-.238.469-.578.469-1.016 0-.445-.164-.789-.484-1.03-.313-.24-.766-.36-1.36-.36-.336 0-.687.039-1.062.11a8.769 8.769 0 00-1.22.312v-1.047c.458-.125.88-.219 1.266-.281a7.124 7.124 0 011.11-.094c.906 0 1.617.203 2.14.61.52.405.782.96.782 1.655 0 .493-.14.903-.422 1.235-.274.336-.664.562-1.172.687zm0 0"/>
        </symbol>
        <symbol overflow="visible" id="L">
            <path d="M3.969-4.844c-.531 0-.953.184-1.266.547-.312.367-.469.86-.469 1.484 0 .637.157 1.137.47 1.5.312.368.733.547 1.265.547.531 0 .945-.18 1.25-.546.312-.364.468-.864.468-1.5 0-.626-.156-1.118-.468-1.485-.305-.363-.719-.547-1.25-.547zm2.344-3.718v1.078a5.668 5.668 0 00-.907-.313 3.965 3.965 0 00-.89-.11c-.782 0-1.383.266-1.797.798-.406.523-.64 1.312-.703 2.375a2.422 2.422 0 012.016-1.047c.874 0 1.566.265 2.077.797.508.53.766 1.257.766 2.171 0 .907-.266 1.633-.797 2.172-.531.543-1.234.813-2.11.813-1.023 0-1.796-.383-2.327-1.156C1.109-1.766.844-2.891.844-4.36c0-1.383.328-2.489.984-3.313.656-.82 1.535-1.234 2.64-1.234.29 0 .587.031.891.094.301.054.618.136.954.25zm0 0"/>
        </symbol>
        <symbol overflow="visible" id="M">
            <path d="M.984-8.75H6.61v.5L3.438 0H2.202l2.985-7.75H.984zm0 0"/>
        </symbol>
        <symbol overflow="visible" id="N">
            <path d="M4.719 4.875c-.125.563-.383 1-.766 1.313-.375.32-.844.484-1.406.484-.867 0-1.54-.297-2.016-.89-.469-.595-.703-1.438-.703-2.532 0-.367.04-.746.11-1.14.07-.387.18-.782.328-1.188h1.14A4.22 4.22 0 00.97 1.984c-.094.395-.14.805-.14 1.235 0 .738.144 1.3.437 1.687.289.395.718.594 1.28.594.509 0 .911-.184 1.204-.547.29-.367.438-.867.438-1.5V2.422h.968V3.5c0 .57.114 1.016.344 1.328.238.313.578.469 1.016.469.445 0 .789-.164 1.03-.484.24-.313.36-.766.36-1.36 0-.336-.039-.687-.11-1.062a8.769 8.769 0 00-.312-1.22h1.047c.125.458.219.88.281 1.266.063.395.094.766.094 1.11 0 .906-.203 1.617-.61 2.14-.405.52-.96.782-1.655.782-.493 0-.903-.14-1.235-.422-.336-.274-.562-.664-.687-1.172zm0 0"/>
        </symbol>
        <symbol overflow="visible" id="O">
            <path d="M7.969 3.813c0-.606-.305-1.063-.907-1.376-.593-.304-1.496-.453-2.703-.453-1.199 0-2.101.149-2.703.454-.593.312-.89.769-.89 1.374 0 .614.296 1.07.89 1.376.602.312 1.504.468 2.703.468 1.207 0 2.11-.156 2.704-.468.601-.305.906-.762.906-1.375zm.937 0c0 .976-.39 1.726-1.172 2.25-.773.519-1.898.78-3.375.78-1.468 0-2.593-.261-3.375-.78-.773-.524-1.156-1.274-1.156-2.25 0-.981.383-1.731 1.156-2.25C1.766 1.05 2.891.796 4.36.796c1.477 0 2.602.254 3.375.765.782.52 1.172 1.27 1.172 2.25zm0 0"/>
        </symbol>
    </defs>
    <path d="M338.473 101.023h-70.926V558.07h-18.344v185.117h23.875V923.04h31.336v21.945h-53.281V765.133h-23.875V536.125h18.347V78.992h92.868v22.031m133.152 843.961h-57.492V923.04h57.492v21.945m162.824 0h-53.191V923.04h53.191v21.945M452.402 364.086h322.399V100.937H452.402v174.497h-10.53v-174.41h-25.017V78.991h379.891v865.992h-52.578V923.04h30.633V374.621H441.87V347.06h10.531v17.027"/>
    <path d="M416.855 101.023h25.016v174.41h10.531V100.939h322.399v263.148H452.402V347.06h-10.53v27.562H774.8V923.04h-30.633v10.973H634.449V923.04h-53.191v10.973H471.625V923.04h-57.492v10.973H304.414V923.04h-31.336V743.188h-23.875V558.07h18.344V101.023h70.926V90.051h78.382v10.972"
          fill="#00001a" fill-opacity=".07"/>
    <path d="M267.492 117.941c0-1.937 1.39-3.511 3.102-3.511h36.808c1.711 0 3.102 1.574 3.102 3.511 0 1.942-1.39 3.512-3.102 3.512h-36.808c-1.711 0-3.102-1.57-3.102-3.512zm0 141.582c0-1.937 1.39-3.511 3.102-3.511h36.808c1.711 0 3.102 1.574 3.102 3.511 0 1.938-1.39 3.512-3.102 3.512h-36.808c-1.711 0-3.102-1.574-3.102-3.512zm0 0"
          fill="#4b4b4b"/>
    <path d="M1.497 14.475h300v46.434h-300V14.475zm0 0" transform="matrix(0 -.58517 .58122 0 267.493 276.493)"
          fill="#fff" stroke-width="3" stroke="#000" stroke-miterlimit="10"/>
    <path d="M280.14 270.922c0 .605-.449 1.098-1.003 1.098-.559 0-1.008-.493-1.008-1.098 0-.61.45-1.098 1.008-1.098.554 0 1.004.488 1.004 1.098zm20.368 0c0 .605-.45 1.098-1.008 1.098-.555 0-1.004-.493-1.004-1.098 0-.61.45-1.098 1.004-1.098.559 0 1.008.488 1.008 1.098zm0-166.895c0 .606-.45 1.098-1.008 1.098-.555 0-1.004-.492-1.004-1.098 0-.609.45-1.097 1.004-1.097.559 0 1.008.488 1.008 1.097zm-20.368 0c0 .606-.449 1.098-1.003 1.098-.559 0-1.008-.492-1.008-1.098 0-.609.45-1.097 1.008-1.097.554 0 1.004.488 1.004 1.097zm0 0"/>
    <path d="M1.497 30.497h299.005M1.497 46.5h299.005" transform="matrix(0 -.58517 .58122 0 267.493 276.493)"
          fill="none" stroke="#000" stroke-miterlimit="10"/>
    <path d="M168.261 2.696s-131.319.034-142.96-.2C5.14 2.13 2.257 17.583 2.257 28.297l.028 544.881c0 13.985 5.501 26.134 19.332 26.168 13.752.066 146.646.166 146.646.166"
          transform="matrix(0 .1463 -.11703 0 628.26 374.63)" fill="#fff" stroke-width="4" stroke="#000"
          stroke-miterlimit="10"/>
    <path d="M91.895 111.64c-11.055 0-20-8.946-20-19.994 0-11.047 8.945-19.992 20-19.992 11.027 0 20 8.944 20 19.992s-8.972 19.993-20 19.993zm.001 425.724c-11.054 0-20-8.978-20-20.026 0-11.015 8.945-19.993 20-19.993 11.028 0 20 8.978 20 19.993 0 11.048-8.972 20.026-20 20.026zm0 0"
          transform="matrix(0 .1463 -.11703 0 628.26 374.63)" fill="#fff" stroke-width="3" stroke="#000"
          stroke-miterlimit="10"/>
    <path d="M628.027 399.207v78.121h-69.87v-78.121h69.87zm0 0" fill="#fff"/>
    <path d="M.503 598.51l167.995-.002M.502 2.496l167.995-.003" transform="matrix(0 .465 -.11703 0 628.26 399.208)"
          fill="none" stroke-width="6" stroke="#000" stroke-miterlimit="10"/>
    <path d="M.508 2.694s131.32.032 142.961-.201c20.16-.367 23.044 15.086 23.044 25.8l-.025 544.881c0 14.019-5.5 26.135-19.332 26.201-13.752.034-146.646.134-146.646.134"
          transform="matrix(0 .1463 -.11703 0 628.26 477.328)" fill="#fff" stroke-width="6" stroke="#000"
          stroke-miterlimit="10"/>
    <path d="M90.12 111.636c11.054 0 20-8.945 20-19.993-.001-11.048-8.946-19.993-20-19.993-11.055 0-20 8.945-20 19.993 0 11.048 8.945 19.993 20 19.993zm0 425.724c11.029 0 20-8.978 20-19.992 0-11.048-8.972-20.026-20-20.026-11.054 0-19.999 8.978-19.999 20.026 0 11.015 8.945 19.993 20 19.993zm0 0"
          transform="matrix(0 .1463 -.11703 0 628.26 477.328)" fill="#fff" stroke-width="3" stroke="#000"
          stroke-miterlimit="10"/>
    <path d="M168.282 2.716s-131.319 0-142.987-.2C5.135 2.15 2.278 17.603 2.278 28.283l.001 544.915c0 13.985 5.501 26.1 19.333 26.167 13.75.067 146.645.133 146.645.133"
          transform="matrix(0 .1463 -.11703 0 557.763 501.905)" fill="#fff" stroke-width="4" stroke="#000"
          stroke-miterlimit="10"/>
    <path d="M91.889 111.659c-11.055 0-20-8.978-20-20.026 0-11.015 8.945-19.993 20-19.993 11.054 0 20 8.978 20 19.993 0 11.047-8.972 20.026-20 20.026zm.001 425.691c-11.054 0-20-8.944-20-19.992s8.946-19.993 20-19.993c11.028 0 20 8.945 20 19.993 0 11.047-8.972 19.992-20 19.992zm0 0"
          transform="matrix(0 .1463 -.11703 0 557.763 501.905)" fill="#fff" stroke-width="3" stroke="#000"
          stroke-miterlimit="10"/>
    <path d="M557.527 526.48v78.122H487.66V526.48h69.867zm0 0" fill="#fff"/>
    <path d="M.5 598.497l168.004-.002M.5 2.516l168.004-.003" transform="matrix(0 .465 -.11703 0 557.763 526.482)"
          fill="none" stroke-width="6" stroke="#000" stroke-miterlimit="10"/>
    <path d="M.503 2.713s131.318 0 142.96-.2c20.16-.368 23.044 15.086 23.044 25.767l-.025 544.914c0 13.985-5.5 26.1-19.332 26.168-13.751.067-146.646.134-146.646.134"
          transform="matrix(0 .1463 -.11703 0 557.763 604.602)" fill="#fff" stroke-width="6" stroke="#000"
          stroke-miterlimit="10"/>
    <path d="M90.114 111.656c11.054 0 20-8.979 20-19.993 0-11.048-8.946-20.026-20-20.026-11.055 0-20 8.978-20 20.026 0 11.014 8.945 19.993 20 19.993zm.001 425.691c11.054 0 20-8.945 20-19.993 0-11.047-8.946-19.993-20-19.992-11.055 0-20 8.945-20 19.993 0 11.047 8.945 19.992 20 19.992zm0 0"
          transform="matrix(0 .1463 -.11703 0 557.763 604.602)" fill="#fff" stroke-width="3" stroke="#000"
          stroke-miterlimit="10"/>
    <path d="M168.282 2.696s-131.319.034-142.987-.2C5.135 2.13 2.278 17.583 2.278 28.296l.001 544.882c0 13.985 5.501 26.134 19.333 26.167 13.75.067 146.645.167 146.645.167"
          transform="matrix(0 .1463 -.11703 0 627.984 501.905)" fill="#fff" stroke-width="4" stroke="#000"
          stroke-miterlimit="10"/>
    <path d="M91.889 111.639c-11.055 0-20-8.945-20-19.993 0-11.048 8.945-19.993 20-19.993 11.054 0 20 8.945 20 19.993 0 11.048-8.972 19.993-20 19.993zm.001 425.725c-11.054 0-20-8.978-20-20.026 0-11.015 8.946-19.993 20-19.993 11.028 0 20 8.978 20 19.993 0 11.047-8.972 20.026-20 20.026zm0 0"
          transform="matrix(0 .1463 -.11703 0 627.984 501.905)" fill="#fff" stroke-width="3" stroke="#000"
          stroke-miterlimit="10"/>
    <path d="M627.75 526.48v78.122h-69.871V526.48h69.871zm0 0" fill="#fff"/>
    <path d="M.5 598.51l168.004-.002M.5 2.496l168.004-.003" transform="matrix(0 .465 -.11703 0 627.983 526.482)"
          fill="none" stroke-width="6" stroke="#000" stroke-miterlimit="10"/>
    <path d="M.503 2.693s131.318.033 142.96-.2c20.16-.368 23.044 15.086 23.044 25.8l-.025 544.881c0 14.018-5.5 26.134-19.332 26.201-13.751.034-146.646.134-146.646.134"
          transform="matrix(0 .1463 -.11703 0 627.983 604.602)" fill="#fff" stroke-width="6" stroke="#000"
          stroke-miterlimit="10"/>
    <path d="M90.114 111.636c11.054 0 20-8.945 20-19.993 0-11.048-8.946-19.993-20-19.993-11.055 0-20 8.945-20 19.993 0 11.048 8.945 19.993 20 19.993zm.001 425.724c11.054 0 20-8.944 20-19.992s-8.946-20.026-20-20.026c-11.055 0-20 8.978-20 20.026 0 11.014 8.945 19.993 20 19.993zm0 0"
          transform="matrix(0 .1463 -.11703 0 627.983 604.602)" fill="#fff" stroke-width="3" stroke="#000"
          stroke-miterlimit="10"/>
    <path d="M168.257 2.713s-131.292 0-142.96-.2C5.136 2.144 2.278 17.598 2.278 28.278v544.915c0 13.985 5.5 26.1 19.331 26.167 13.752.067 146.646.134 146.646.134"
          transform="matrix(-.1463 0 0 -.11703 774.876 866.274)" fill="#fff" stroke-width="4" stroke="#000"
          stroke-miterlimit="10"/>
    <path d="M91.89 111.655c-11.055 0-20-8.978-20-19.992 0-11.048 8.946-20.027 20-20.027 11.028 0 20 8.979 20 20.027 0 11.014-8.972 19.992-20 19.992zm0 425.692c-11.055 0-20-8.945-20-19.993 0-11.048 8.945-19.993 20-19.993 11.027 0 19.999 8.945 19.999 19.993 0 11.048-8.972 19.993-20 19.993zm0 0"
          transform="matrix(-.1463 0 0 -.11703 774.876 866.274)" fill="#fff" stroke-width="3" stroke="#000"
          stroke-miterlimit="10"/>
    <path d="M750.3 866.04h-78.12v-69.868h78.12v69.867zm0 0" fill="#fff"/>
    <path d="M.5 598.494l168.004.002M.5 2.513l168.004.001" transform="matrix(-.465 0 0 -.11703 750.3 866.275)"
          fill="none" stroke-width="6" stroke="#000" stroke-miterlimit="10"/>
    <path d="M.504 2.715s131.319 0 142.96-.2c20.16-.367 23.044 15.086 23.044 25.767l-.027 544.914c0 13.985-5.501 26.101-19.333 26.168-13.75.067-146.645.133-146.645.133"
          transform="matrix(-.1463 0 0 -.11703 672.18 866.275)" fill="#fff" stroke-width="6" stroke="#000"
          stroke-miterlimit="10"/>
    <path d="M90.115 111.658c11.054 0 20-8.979 20-20.027 0-11.014-8.946-19.992-20-19.992-11.055 0-20 8.978-20 19.992 0 11.048 8.945 20.027 20 20.027zm-.001 425.692c11.054 0 20-8.946 20-19.994s-8.946-19.993-20-19.993c-11.055 0-20 8.945-20 19.993 0 11.048 8.945 19.993 20 19.993zm0 0"
          transform="matrix(-.1463 0 0 -.11703 672.18 866.275)" fill="#fff" stroke-width="3" stroke="#000"
          stroke-miterlimit="10"/>
    <path d="M168.257 2.7s-131.292.033-142.96-.201c-20.16-.367-23.018 15.086-23.018 25.8V573.18c0 13.985 5.5 26.135 19.331 26.168 13.752.067 146.646.168 146.646.168"
          transform="matrix(-.1463 0 0 -.11703 774.876 796.054)" fill="#fff" stroke-width="4" stroke="#000"
          stroke-miterlimit="10"/>
    <path d="M91.89 111.642c-11.055 0-20-8.945-20-19.993 0-11.047 8.946-19.992 20-19.992 11.028 0 20 8.945 20 19.992 0 11.048-8.972 19.993-20 19.993zm0 425.725c-11.055 0-20-8.978-20-20.026s8.945-19.993 20-19.993c11.027 0 19.999 8.945 19.999 19.993 0 11.048-8.972 20.026-20 20.026zm0 0"
          transform="matrix(-.1463 0 0 -.11703 774.876 796.054)" fill="#fff" stroke-width="3" stroke="#000"
          stroke-miterlimit="10"/>
    <path d="M750.3 795.82h-78.12v-69.87h78.12v69.87zm0 0" fill="#fff"/>
    <path d="M.5 598.514l168.004.002M.5 2.5l168.004.001" transform="matrix(-.465 0 0 -.11703 750.3 796.054)" fill="none"
          stroke-width="6" stroke="#000" stroke-miterlimit="10"/>
    <path d="M.504 2.701s131.319.034 142.96-.2c20.16-.366 23.044 15.087 23.044 25.801l-.027 544.881c0 13.985-5.501 26.134-19.333 26.168-13.75.067-146.645.133-146.645.133"
          transform="matrix(-.1463 0 0 -.11703 672.18 796.054)" fill="#fff" stroke-width="6" stroke="#000"
          stroke-miterlimit="10"/>
    <path d="M90.115 111.645c11.054 0 20-8.945 20-19.993 0-11.048-8.946-19.993-20-19.993-11.055 0-20 8.945-20 19.993 0 11.047 8.945 19.992 20 19.993zm-.001 425.725c11.054 0 20-8.979 20-20.027 0-11.048-8.946-19.993-20-19.993-11.055 0-20 8.945-20 19.993 0 11.048 8.945 20.026 20 20.026zm0 0"
          transform="matrix(-.1463 0 0 -.11703 672.18 796.054)" fill="#fff" stroke-width="3" stroke="#000"
          stroke-miterlimit="10"/>
    <path d="M168.278 2.701s-131.32.033-142.988-.2C5.13 2.132 2.273 17.586 2.273 28.3v544.88c0 13.986 5.526 26.135 19.331 26.169 13.751.066 146.672.134 146.672.134"
          transform="matrix(-.1463 0 0 -.11703 647.602 796.054)" fill="#fff" stroke-width="4" stroke="#000"
          stroke-miterlimit="10"/>
    <path d="M91.884 111.644c-11.055 0-20-8.945-20-19.993 0-11.048 8.945-19.993 20-19.993 11.054 0 20 8.945 20 19.993 0 11.048-8.946 19.993-20 19.993zm-.001 425.725c-11.054 0-20-8.979-20-20.027 0-11.048 8.946-19.993 20-19.993 11.055 0 20 8.946 20 19.993 0 11.048-8.945 20.027-20 20.027zm0 0"
          transform="matrix(-.1463 0 0 -.11703 647.602 796.054)" fill="#fff" stroke-width="3" stroke="#000"
          stroke-miterlimit="10"/>
    <path d="M623.023 795.82h-78.117v-69.867c26.04 0 52.078 0 78.117-.004v69.871zm0 0" fill="#fff"/>
    <path d="M.499 598.516c55.998 0 112.004-.033 168.003-.032" transform="matrix(-.465 0 0 -.11703 623.025 796.054)"
          stroke-width="6" stroke="#000" stroke-miterlimit="10"/>
    <path d="M.499 2.5l168.003.003" transform="matrix(-.465 0 0 -.11703 623.025 796.054)" fill="none" stroke-width="6"
          stroke="#000" stroke-miterlimit="10"/>
    <path d="M.498 2.703s131.319.034 142.96-.2c20.187-.367 23.044 15.087 23.044 25.8v544.882c0 13.985-5.528 26.1-19.333 26.167-13.778.067-146.672.133-146.672.133"
          transform="matrix(-.1463 0 0 -.11703 544.905 796.055)" fill="#fff" stroke-width="6" stroke="#000"
          stroke-miterlimit="10"/>
    <path d="M90.109 111.646c11.054 0 20-8.945 20-19.993 0-11.048-8.946-19.993-20-19.993-11.028 0-20 8.945-20 19.993 0 11.048 8.972 19.993 20 19.993zm-.001 425.691c11.054 0 20-8.945 20-19.992 0-11.048-8.946-19.993-20-19.993-11.028 0-20 8.945-20 19.992 0 11.048 8.972 19.993 20 19.993zm0 0"
          transform="matrix(-.1463 0 0 -.11703 544.905 796.055)" fill="#fff" stroke-width="3" stroke="#000"
          stroke-miterlimit="10"/>
    <path d="M168.278 2.713s-131.32 0-142.988-.2C5.13 2.144 2.273 17.598 2.273 28.278v544.915c0 13.985 5.526 26.1 19.331 26.167 13.751.067 146.672.134 146.672.134"
          transform="matrix(-.1463 0 0 -.11703 647.602 866.274)" fill="#fff" stroke-width="4" stroke="#000"
          stroke-miterlimit="10"/>
    <path d="M91.884 111.655c-11.055 0-20-8.978-20-19.992 0-11.048 8.945-20.027 20-20.027 11.054 0 20 8.979 20 20.027 0 11.014-8.946 19.992-20 19.992zm-.001 425.692c-11.054 0-20-8.945-20-19.993 0-11.048 8.946-19.993 20-19.993 11.055 0 20 8.945 20 19.993 0 11.048-8.945 19.993-20 19.993zm0 0"
          transform="matrix(-.1463 0 0 -.11703 647.602 866.274)" fill="#fff" stroke-width="3" stroke="#000"
          stroke-miterlimit="10"/>
    <path d="M623.023 866.04h-78.117v-69.868h78.117v69.867zm0 0" fill="#fff"/>
    <path d="M.499 598.494l168.003.002M.499 2.513l168.003.001" transform="matrix(-.465 0 0 -.11703 623.025 866.275)"
          fill="none" stroke-width="6" stroke="#000" stroke-miterlimit="10"/>
    <path d="M.498 2.715s131.319 0 142.96-.2c20.187-.367 23.044 15.086 23.044 25.767v544.914c0 13.985-5.528 26.101-19.333 26.168-13.778.067-146.672.133-146.672.133"
          transform="matrix(-.1463 0 0 -.11703 544.905 866.275)" fill="#fff" stroke-width="6" stroke="#000"
          stroke-miterlimit="10"/>
    <path d="M90.109 111.658c11.054 0 20-8.979 20-20.027 0-11.014-8.946-19.992-20-19.992-11.028 0-20 8.978-20 19.992 0 11.048 8.972 20.027 20 20.027zm-.001 425.692c11.054 0 20-8.946 20-19.994s-8.946-19.993-20-19.993c-11.028 0-20 8.945-20 19.993 0 11.048 8.972 19.993 20 19.993zm0 0"
          transform="matrix(-.1463 0 0 -.11703 544.905 866.275)" fill="#fff" stroke-width="3" stroke="#000"
          stroke-miterlimit="10"/>
    <path d="M168.261 2.716s-131.319 0-142.96-.2C5.14 2.15 2.257 17.603 2.257 28.284l.028 544.914c0 13.985 5.501 26.101 19.332 26.168 13.752.066 146.646.133 146.646.133"
          transform="matrix(0 .1463 -.11703 0 558.04 374.63)" fill="#fff" stroke-width="4" stroke="#000"
          stroke-miterlimit="10"/>
    <path d="M91.895 111.66c-11.055 0-20-8.98-20-20.027 0-11.014 8.945-19.993 20-19.993 11.027 0 20 8.978 20 19.993 0 11.048-8.972 20.026-20 20.026zm.001 425.69c-11.054 0-20-8.944-20-19.992s8.945-19.993 20-19.993c11.028 0 20 8.945 20 19.993 0 11.048-8.972 19.993-20 19.993zm0 0"
          transform="matrix(0 .1463 -.11703 0 558.04 374.63)" fill="#fff" stroke-width="3" stroke="#000"
          stroke-miterlimit="10"/>
    <path d="M557.805 399.207v78.121h-69.867v-78.121h69.867zm0 0" fill="#fff"/>
    <path d="M.503 598.497l167.995-.002M.502 2.516l167.995-.003" transform="matrix(0 .465 -.11703 0 558.04 399.208)"
          fill="none" stroke-width="6" stroke="#000" stroke-miterlimit="10"/>
    <path d="M.508 2.714s131.32-.001 142.961-.201c20.16-.368 23.044 15.086 23.044 25.767l-.025 544.914c0 13.985-5.5 26.101-19.332 26.168-13.752.067-146.646.134-146.646.134"
          transform="matrix(0 .1463 -.11703 0 558.04 477.328)" fill="#fff" stroke-width="6" stroke="#000"
          stroke-miterlimit="10"/>
    <path d="M90.12 111.656c11.054 0 20-8.978 20-19.993-.001-11.048-8.946-20.026-20-20.026-11.055 0-20 8.978-20 20.026 0 11.015 8.945 19.993 20 19.993zm0 425.692c11.029 0 20-8.946 20-19.993 0-11.048-8.972-19.993-20-19.993-11.054 0-19.999 8.945-19.999 19.993 0 11.048 8.945 19.993 20 19.993zm0 0"
          transform="matrix(0 .1463 -.11703 0 558.04 477.328)" fill="#fff" stroke-width="3" stroke="#000"
          stroke-miterlimit="10"/>
    <path d="M168.278 2.705s-131.318 0-142.987-.177C5.13 2.128 2.274 17.614 2.274 28.295v544.892c0 13.974 5.528 26.123 19.332 26.168 13.752.089 146.673.133 146.673.133"
          transform="matrix(0 -.1463 .08778 0 318.22 706.153)" fill="#fff" stroke-width="4" stroke="#000"
          stroke-miterlimit="10"/>
    <path d="M91.885 111.648c-11.055 0-20-8.945-20-19.981 0-11.082 8.945-20.027 20-20.027 11.054 0 20 8.945 20 20.027 0 11.036-8.946 19.981-20 19.981zm0 425.714c-11.054 0-20-8.945-20-20.026 0-11.037 8.946-19.982 20-19.982 11.055 0 20 8.945 20 19.982 0 11.081-8.945 20.026-20 20.026zm0 0"
          transform="matrix(0 -.1463 .08778 0 318.22 706.153)" fill="#fff" stroke-width="3" stroke="#000"
          stroke-miterlimit="10"/>
    <path d="M318.395 681.574v-47.398h52.402v47.398h-52.402zm0 0" fill="#fff"/>
    <path d="M.505 598.509h167.999M.504 2.483h168" transform="matrix(0 -.28214 .08778 0 318.22 681.576)" fill="none"
          stroke-width="6" stroke="#000" stroke-miterlimit="10"/>
    <path d="M.49 2.705s131.319 0 142.988-.178c20.16-.4 23.016 15.086 23.016 25.767v544.892c0 13.974-5.526 26.123-19.331 26.168-13.752.089-146.672.133-146.672.133"
          transform="matrix(0 -.1463 .08778 0 318.22 634.177)" fill="#fff" stroke-width="6" stroke="#000"
          stroke-miterlimit="10"/>
    <path d="M90.128 111.648c11.028 0 20-8.946 20-19.982 0-11.081-8.972-20.026-20-20.026-11.055 0-20 8.945-20 20.026 0 11.037 8.945 19.982 20 19.982zm0 425.713c11.028 0 20-8.945 20-20.026 0-11.037-8.972-19.982-20-19.982-11.055 0-20 8.945-20 19.982 0 11.081 8.946 20.026 20 20.026zm0 0"
          transform="matrix(0 -.1463 .08778 0 318.22 634.177)" fill="#fff" stroke-width="3" stroke="#000"
          stroke-miterlimit="10"/>
    <path d="M168.28 2.697s-131.32.044-142.988-.179c-20.16-.4-23.016 15.087-23.017 25.767v544.893c0 14.018 5.527 26.123 19.332 26.167 13.751.09 146.672.135 146.672.135"
          transform="matrix(-.1463 0 0 -.08778 375.528 609.6)" fill="#fff" stroke-width="4" stroke="#000"
          stroke-miterlimit="10"/>
    <path d="M91.886 111.64c-11.054 0-20-8.946-20-19.982 0-11.037 8.946-20.026 20-20.026 11.055 0 20 8.99 20 20.026 0 11.037-8.945 19.982-20 19.982zm0 425.713c-11.055 0-20-8.945-20-19.982 0-11.08 8.945-20.026 20-20.026 11.054 0 20 8.945 20 20.027 0 11.036-8.946 19.981-20 19.981zm0 0"
          transform="matrix(-.1463 0 0 -.08778 375.528 609.6)" fill="#fff" stroke-width="3" stroke="#000"
          stroke-miterlimit="10"/>
    <path d="M350.95 609.426h-47.4v-52.403h47.4v52.403zm0 0" fill="#fff"/>
    <path d="M.505 598.5l167.999.002M.505 2.52h168" transform="matrix(-.28214 0 0 -.08778 350.951 609.6)" fill="none"
          stroke-width="6" stroke="#000" stroke-miterlimit="10"/>
    <path d="M.492 2.698s131.318.046 142.987-.177c20.16-.4 23.017 15.087 23.017 25.767l-.001 544.892c0 14.019-5.527 26.124-19.332 26.168-13.751.089-146.672.133-146.672.133"
          transform="matrix(-.1463 0 0 -.08778 303.552 609.6)" fill="#fff" stroke-width="6" stroke="#000"
          stroke-miterlimit="10"/>
    <path d="M90.129 111.642c11.028 0 20-8.945 20-19.982 0-11.037-8.972-20.026-20-20.026-11.054 0-20.026 8.99-20.026 20.026 0 11.037 8.971 19.982 20.026 19.982zm-.001 425.713c11.028 0 20-8.945 20-19.981 0-11.082-8.972-20.027-20-20.027-11.054 0-20 8.945-20 20.027 0 11.036 8.946 19.981 20 19.981zm0 0"
          transform="matrix(-.1463 0 0 -.08778 303.552 609.6)" fill="#fff" stroke-width="3" stroke="#000"
          stroke-miterlimit="10"/>
    <path d="M168.263 2.696s-131.32.044-142.961-.178C5.142 2.117 2.258 17.604 2.258 28.285l.026 544.892c0 14.018 5.5 26.123 19.332 26.167 13.751.09 146.646.135 146.646.135"
          transform="matrix(-.1463 0 0 -.08778 369.557 798.971)" fill="#fff" stroke-width="4" stroke="#000"
          stroke-miterlimit="10"/>
    <path d="M91.896 111.639c-11.055 0-20-8.945-20-19.982 0-11.037 8.945-20.026 20-20.026 11.027 0 20 8.99 20 20.026 0 11.037-8.973 19.982-20 19.982zm-.001 425.713c-11.054 0-20-8.945-20-19.981 0-11.082 8.946-20.027 20-20.027 11.028 0 20 8.945 20 20.027 0 11.036-8.972 19.981-20 19.981zm0 0"
          transform="matrix(-.1463 0 0 -.08778 369.557 798.971)" fill="#fff" stroke-width="3" stroke="#000"
          stroke-miterlimit="10"/>
    <path d="M344.98 798.797h-47.398v-52.402h47.398v52.402zm0 0" fill="#fff"/>
    <path d="M.496 598.5h168M.496 2.518l168 .002" transform="matrix(-.28214 0 0 -.08778 344.98 798.971)" fill="none"
          stroke-width="6" stroke="#000" stroke-miterlimit="10"/>
    <path d="M.501 2.698s131.319.045 142.96-.178c20.16-.4 23.044 15.087 23.044 25.767V573.18c0 14.018-5.528 26.123-19.36 26.167-13.75.089-146.645.133-146.645.133"
          transform="matrix(-.1463 0 0 -.08778 297.581 798.971)" fill="#fff" stroke-width="6" stroke="#000"
          stroke-miterlimit="10"/>
    <path d="M90.112 111.64c11.054 0 20-8.944 20-19.98 0-11.038-8.946-20.027-20-20.027-11.055 0-20 8.99-20 20.026 0 11.037 8.945 19.982 20 19.982zm-.001 425.714c11.055 0 20-8.945 20-19.981 0-11.081-8.945-20.027-20-20.027-11.028 0-20 8.945-20 20.027 0 11.036 8.972 19.981 20 19.981zm0 0"
          transform="matrix(-.1463 0 0 -.08778 297.581 798.971)" fill="#fff" stroke-width="3" stroke="#000"
          stroke-miterlimit="10"/>
    <path d="M168.265 2.71s-131.319-.001-142.96-.224C5.144 2.13 2.26 17.573 2.26 28.298l.026 544.892c0 13.974 5.5 26.123 19.332 26.168 13.751.044 146.645.134 146.645.134"
          transform="matrix(-.1463 0 0 -.08778 369.557 851.636)" fill="#fff" stroke-width="4" stroke="#000"
          stroke-miterlimit="10"/>
    <path d="M91.871 111.652c-11.027 0-20-8.945-20-20.026 0-11.037 8.973-19.982 20-19.982 11.055 0 20 8.945 20 19.982 0 11.08-8.945 20.026-20 20.026zm-.001 425.714c-11.027 0-19.999-8.946-19.999-20.027 0-11.036 8.972-19.981 20-19.981 11.054 0 20.026 8.945 20.026 19.981 0 11.082-8.972 20.027-20.026 20.027zm0 0"
          transform="matrix(-.1463 0 0 -.08778 369.557 851.636)" fill="#fff" stroke-width="3" stroke="#000"
          stroke-miterlimit="10"/>
    <path d="M344.98 851.46h-47.398v-52.4h47.398v52.402zm0 0" fill="#fff"/>
    <path d="M.497 598.513l168 .001M.497 2.487l168 .001" transform="matrix(-.28214 0 0 -.08778 344.98 851.636)"
          fill="none" stroke-width="6" stroke="#000" stroke-miterlimit="10"/>
    <path d="M.504 2.71s131.318.001 142.96-.221c20.16-.356 23.044 15.086 23.044 25.812l-.028 544.892c0 13.974-5.5 26.123-19.332 26.167-13.751.045-146.645.133-146.645.133"
          transform="matrix(-.1463 0 0 -.08778 297.581 851.636)" fill="#fff" stroke-width="6" stroke="#000"
          stroke-miterlimit="10"/>
    <path d="M90.114 111.654c11.055 0 20-8.945 20-20.026 0-11.037-8.945-19.982-20-19.982-11.054 0-20 8.945-20 19.982 0 11.08 8.946 20.026 20 20.026zm0 425.714c11.054 0 20-8.99 20-20.026 0-11.037-8.946-19.982-20-19.982-11.055 0-20 8.945-20 19.981 0 11.037 8.945 20.027 20 20.027zm0 0"
          transform="matrix(-.1463 0 0 -.08778 297.581 851.636)" fill="#fff" stroke-width="3" stroke="#000"
          stroke-miterlimit="10"/>
    <path d="M2.002 2l295.997-.001v72.997l-295.997.001V2zm0 0" transform="matrix(0 .43888 -.45598 0 774.877 418.348)"
          fill="#fff" stroke-width="4" stroke="#000" stroke-miterlimit="10"/>
    <path d="M148.558 1.862c-.044 24.758-.08 49.516-.124 74.274M153.169.997c-.045 24.758-.08 49.516-.125 74.274"
          transform="matrix(0 .43888 -.45598 0 774.877 418.348)" stroke="#000" stroke-miterlimit="10"/>
    <path d="M338.828 173.637c42.84 0 77.567-35.082 77.567-78.352" fill="none" stroke="#636363" stroke-miterlimit="10"
          stroke-width=".784"/>
    <path d="M338.434 95.676v78.351h7.836V95.676h-7.836zm0 0" fill="#636363"/>
    <path d="M1.497 1.503h198.006v27.992H1.497V1.503zm0 0" transform="matrix(-.5486 0 0 .3511 414.126 923.058)"
          fill="#fff" stroke-width="3" stroke="#000" stroke-miterlimit="10"/>
    <path d="M8.497 15.777c28.225-.044 56.45-.089 84.676-.122" transform="matrix(-.5486 0 0 .3511 414.126 923.058)"
          fill="none" stroke-width="6" stroke="#000fff" stroke-miterlimit="10"/>
    <path d="M1.497 7.5H7.5v15.998H1.497V7.5zm192.003 0h6.003v15.998H193.5V7.5zm0 0"
          transform="matrix(-.5486 0 0 .3511 414.126 923.058)" fill="none" stroke-width="3" stroke="#000"
          stroke-miterlimit="10"/>
    <path d="M107.5 15.632l84.676-.133" transform="matrix(-.5486 0 0 .3511 414.126 923.058)" fill="none"
          stroke-width="6" stroke="#000fff" stroke-miterlimit="10"/>
    <path d="M94.497 7.711h6.003V23.71h-6.003v-16zm6.003 0h6.002V23.71H100.5v-16zm0 0"
          transform="matrix(-.5486 0 0 .3511 414.126 923.058)" fill="none" stroke-width="3" stroke="#000"
          stroke-miterlimit="10"/>
    <path d="M1.497 1.503h198.005v27.992H1.497V1.503zm0 0" transform="matrix(-.5486 0 0 .3511 581.31 923.058)"
          fill="#fff" stroke-width="3" stroke="#000" stroke-miterlimit="10"/>
    <path d="M8.503 15.777c28.219-.044 56.444-.089 84.67-.122" transform="matrix(-.5486 0 0 .3511 581.31 923.058)"
          fill="none" stroke-width="6" stroke="#000fff" stroke-miterlimit="10"/>
    <path d="M1.497 7.5h6.002v15.998H1.497V7.5zm192.003 0h6.002v15.998H193.5V7.5zm0 0"
          transform="matrix(-.5486 0 0 .3511 581.31 923.058)" fill="none" stroke-width="3" stroke="#000"
          stroke-miterlimit="10"/>
    <path d="M107.499 15.632l84.676-.133" transform="matrix(-.5486 0 0 .3511 581.31 923.058)" fill="none"
          stroke-width="6" stroke="#000fff" stroke-miterlimit="10"/>
    <path d="M94.497 7.71h6.003v16h-6.003v-16zm6.003 0h6.002v16H100.5v-16zm0 0"
          transform="matrix(-.5486 0 0 .3511 581.31 923.058)" fill="none" stroke-width="3" stroke="#000"
          stroke-miterlimit="10"/>
    <path d="M1.501 1.503H199.5v27.992H1.5V1.503zm0 0" transform="matrix(-.5486 0 0 .3511 744.187 923.058)" fill="#fff"
          stroke-width="3" stroke="#000" stroke-miterlimit="10"/>
    <path d="M8.5 15.777c28.226-.044 56.452-.089 84.677-.122" transform="matrix(-.5486 0 0 .3511 744.187 923.058)"
          fill="none" stroke-width="6" stroke="#000fff" stroke-miterlimit="10"/>
    <path d="M1.501 7.5h5.996v15.998H1.5V7.5zm191.996 0h6.003v15.998h-6.003V7.5zm0 0"
          transform="matrix(-.5486 0 0 .3511 744.187 923.058)" fill="none" stroke-width="3" stroke="#000"
          stroke-miterlimit="10"/>
    <path d="M107.503 15.632l84.67-.133" transform="matrix(-.5486 0 0 .3511 744.187 923.058)" fill="none"
          stroke-width="6" stroke="#000fff" stroke-miterlimit="10"/>
    <path d="M94.501 7.71h5.996v16H94.5v-16zm5.996 0h6.002v16h-6.002v-16zm0 0"
          transform="matrix(-.5486 0 0 .3511 744.187 923.058)" fill="none" stroke-width="3" stroke="#000"
          stroke-miterlimit="10"/>
    <use transform="matrix(1, 0, 0, 1, 661.3980102539062, 590.6339721679688)" xlink:href="#a"/>
    <use transform="matrix(1, 0, 0, 1, 681.8629760742188, 590.6339721679688)" xlink:href="#b"/>
    <use transform="matrix(1, 0, 0, 1, 692.0579833984375, 590.6339721679688)" xlink:href="#c"/>
    <use transform="matrix(1, 0, 0, 1, 708.5360107421875, 590.6339721679688)" xlink:href="#d"/>
    <use transform="matrix(1, 0, 0, 1, 724.531982421875, 590.6339721679688)" xlink:href="#e"/>
    <use transform="matrix(1, 0, 0, 1, 656.9219970703125, 618.35302734375)" xlink:href="#f"/>
    <use transform="matrix(1, 0, 0, 1, 667.1010131835938, 618.35302734375)" xlink:href="#g"/>
    <use transform="matrix(1, 0, 0, 1, 677.281005859375, 618.35302734375)" xlink:href="#g"/>
    <use transform="matrix(1, 0, 0, 1, 692.5469970703125, 618.35302734375)" xlink:href="#h"/>
    <use transform="matrix(1, 0, 0, 1, 711.0390014648438, 618.35302734375)" xlink:href="#g"/>
    <use transform="matrix(1, 0, 0, 1, 721.218017578125, 618.35302734375)" xlink:href="#i"/>
    <use transform="matrix(1, 0, 0, 1, 731.3980102539062, 618.35302734375)" xlink:href="#j"/>
    <path d="M579.375 258.89c-27.688 0-50.133-22.445-50.133-50.136 0-27.688 22.445-50.133 50.133-50.133 27.691 0 50.137 22.445 50.137 50.133 0 27.691-22.446 50.137-50.137 50.137zm0 0"
          fill="#e9e9e9" stroke-width=".505" stroke="#000" stroke-miterlimit="10"/>
    <path d="M579.375 250.813c-23.227 0-42.059-18.829-42.059-42.06 0-23.226 18.832-42.058 42.059-42.058 23.23 0 42.063 18.832 42.063 42.059 0 23.23-18.833 42.059-42.063 42.059zm0 0"
          fill="#fff"/>
    <path d="M277.209 1.494h18.179v17.554h-18.18V1.494zm0 0" transform="matrix(0 -.20413 .20295 0 704.615 364.098)"
          fill="gray" stroke-width="5" stroke="#000" stroke-miterlimit="10"/>
    <path d="M1.494 45.494h342.002v300.01h-342V45.494zm0 0" transform="matrix(0 -.20413 .20295 0 704.615 364.098)"
          fill="#fff" stroke-width="5" stroke="#000" stroke-miterlimit="10"/>
    <path d="M10.641 30.885C46.56 6.787 314.448 5.902 337.143 29.114c7.348 7.506 6.353 16.38 6.353 16.38-113.994.385-227.988.75-342.002 1.116 0 0-1.167-7.968 9.147-15.725zm0 0"
          transform="matrix(0 -.20413 .20295 0 704.615 364.098)" fill="#fff" stroke-width="5" stroke="#000"
          stroke-miterlimit="10"/>
    <path d="M739.727 339.309c-5.704 0-10.325-4.622-10.325-10.32a10.323 10.323 0 0110.325-10.325c5.699 0 10.32 4.621 10.32 10.324 0 5.7-4.621 10.32-10.32 10.32zm0 0"
          fill="gray"/>
    <path d="M737.215 321.93c.87.863 1.742 1.722 2.617 2.586.871-.864 1.742-1.73 2.613-2.598m-2.613-1.156v8.125m4.699-5.742c-.308 1.183-.62 2.37-.933 3.554 1.187.324 2.37.645 3.558.965m-.304-2.84a4122.538 4122.538 0 00-7.036 4.063m7.036 1.211l-3.551.972.945 3.563m2.304-1.688c-2.343-1.351-4.687-2.707-7.03-4.058m-4.422 5.746c.312-1.188.62-2.375.933-3.559-1.183-.32-2.37-.644-3.558-.965m.308 2.841c2.344-1.352 4.688-2.708 7.035-4.06m-2.601 6.958c.875-.864 1.746-1.727 2.617-2.59.871.867 1.742 1.734 2.613 2.597m-2.613 1.157v-8.121m-4.734-5.746c.312 1.183.62 2.37.933 3.554-1.183.324-2.37.645-3.558.965m.308-2.84c2.344 1.352 4.688 2.707 7.035 4.063"
          fill="none" stroke-width="1.264" stroke="#fff" stroke-miterlimit="10"/>
    <path d="M375.738 346.781c0-39.199 32.098-70.976 71.696-70.976" fill="none" stroke="#636363" stroke-miterlimit="10"
          stroke-width=".717"/>
    <path d="M447.074 347.14H375.38v-7.167h71.695v7.168zm0 0" fill="#636363"/>
    <use transform="matrix(1, 0, 0, 1, 531.60498046875, 302.3999938964844)" xlink:href="#k"/>
    <use transform="matrix(1, 0, 0, 1, 548.655029296875, 302.3999938964844)" xlink:href="#l"/>
    <use transform="matrix(1, 0, 0, 1, 555.8790283203125, 302.3999938964844)" xlink:href="#b"/>
    <use transform="matrix(1, 0, 0, 1, 566.072998046875, 302.3999938964844)" xlink:href="#m"/>
    <use transform="matrix(1, 0, 0, 1, 580.3679809570312, 302.3999938964844)" xlink:href="#c"/>
    <use transform="matrix(1, 0, 0, 1, 596.8469848632812, 302.3999938964844)" xlink:href="#d"/>
    <use transform="matrix(1, 0, 0, 1, 612.843017578125, 302.3999938964844)" xlink:href="#n"/>
    <use transform="matrix(1, 0, 0, 1, 539.2420043945312, 330.1189880371094)" xlink:href="#i"/>
    <use transform="matrix(1, 0, 0, 1, 549.4219970703125, 330.1189880371094)" xlink:href="#o"/>
    <use transform="matrix(1, 0, 0, 1, 559.6010131835938, 330.1189880371094)" xlink:href="#j"/>
    <use transform="matrix(1, 0, 0, 1, 574.8670043945312, 330.1189880371094)" xlink:href="#h"/>
    <use transform="matrix(1, 0, 0, 1, 593.3590087890625, 330.1189880371094)" xlink:href="#i"/>
    <use transform="matrix(1, 0, 0, 1, 603.5390014648438, 330.1189880371094)" xlink:href="#p"/>
    <use transform="matrix(1, 0, 0, 1, 613.718017578125, 330.1189880371094)" xlink:href="#p"/>
    <path d="M820.957 374.629h-46.082" fill="none" stroke-width=".966" stroke="gray" stroke-dasharray=".02,.02"
          stroke-dashoffset=".02" stroke-miterlimit="10"/>
    <path d="M820.957 374.629h-8.777m-46.082 0h8.777" fill="none" stroke-width=".966" stroke="gray"
          stroke-miterlimit="10"/>
    <path d="M820.957 923.059h-46.082" fill="none" stroke-width=".966" stroke="gray" stroke-dasharray=".02,.02"
          stroke-dashoffset=".02" stroke-miterlimit="10"/>
    <path d="M820.957 923.059h-8.777m-46.082 0h8.777" fill="none" stroke-width=".966" stroke="gray"
          stroke-miterlimit="10"/>
    <path d="M818.766 374.629l2.191 4.39h-4.387l2.196-4.39m0 548.43l-2.196-4.391h4.387l-2.191 4.39" fill="gray"
          stroke-width=".966" stroke="gray" stroke-miterlimit="10"/>
    <g fill="gray">
        <use transform="matrix(1, 0, 0, 1, 822.8809814453125, 660.3049926757812)" xlink:href="#q"/>
        <use transform="matrix(1, 0, 0, 1, 822.8809814453125, 652.6699829101562)" xlink:href="#r"/>
        <use transform="matrix(1, 0, 0, 1, 822.8809814453125, 645.0349731445312)" xlink:href="#s"/>
    </g>
    <path d="M818.766 374.629v260.637m0 27.16v260.633" fill="none" stroke-width=".966" stroke="gray"
          stroke-miterlimit="10"/>
    <path d="M774.875 969.14v-46.08" fill="none" stroke-width=".966" stroke="gray" stroke-dasharray=".02,.02"
          stroke-dashoffset=".02" stroke-miterlimit="10"/>
    <path d="M774.875 969.14v-8.777m0-46.082v8.778" fill="none" stroke-width=".966" stroke="gray"
          stroke-miterlimit="10"/>
    <path d="M744.188 969.14v-46.08" fill="none" stroke-width=".966" stroke="gray" stroke-dasharray=".02,.02"
          stroke-dashoffset=".02" stroke-miterlimit="10"/>
    <path d="M744.188 969.14v-8.777m0-46.082v8.778" fill="none" stroke-width=".966" stroke="gray"
          stroke-miterlimit="10"/>
    <path d="M774.875 966.945l-4.387 2.196v-4.391l4.387 2.195m-30.687 0l4.386-2.195v4.39l-4.386-2.195" fill="gray"
          stroke-width=".966" stroke="gray" stroke-miterlimit="10"/>
    <g fill="gray">
        <use transform="matrix(1, 0, 0, 1, 751.8519897460938, 971.0640258789062)" xlink:href="#t"/>
        <use transform="matrix(1, 0, 0, 1, 759.4860229492188, 971.0640258789062)" xlink:href="#u"/>
    </g>
    <path d="M774.875 966.945h-5.543m-19.602 0h-5.542" fill="none" stroke-width=".966" stroke="gray"
          stroke-miterlimit="10"/>
    <path d="M744.188 969.14v-46.08" fill="none" stroke-width=".966" stroke="gray" stroke-dasharray=".02,.02"
          stroke-dashoffset=".02" stroke-miterlimit="10"/>
    <path d="M744.188 969.14v-8.777m0-46.082v8.778" fill="none" stroke-width=".966" stroke="gray"
          stroke-miterlimit="10"/>
    <path d="M634.469 969.14v-46.08" fill="none" stroke-width=".966" stroke="gray" stroke-dasharray=".02,.02"
          stroke-dashoffset=".02" stroke-miterlimit="10"/>
    <path d="M634.469 969.14v-8.777m0-46.082v8.778" fill="none" stroke-width=".966" stroke="gray"
          stroke-miterlimit="10"/>
    <path d="M744.188 966.945l-4.391 2.196v-4.391l4.39 2.195m-109.718 0l4.386-2.195v4.39l-4.386-2.195" fill="gray"
          stroke-width=".966" stroke="gray" stroke-miterlimit="10"/>
    <g fill="gray">
        <use transform="matrix(1, 0, 0, 1, 677.8670043945312, 971.0640258789062)" xlink:href="#v"/>
        <use transform="matrix(1, 0, 0, 1, 685.5020141601562, 971.0640258789062)" xlink:href="#w"/>
        <use transform="matrix(1, 0, 0, 1, 693.1370239257812, 971.0640258789062)" xlink:href="#u"/>
    </g>
    <path d="M744.188 966.945h-41.282m-27.16 0H634.47" fill="none" stroke-width=".966" stroke="gray"
          stroke-miterlimit="10"/>
    <path d="M634.469 969.14v-46.08" fill="none" stroke-width=".966" stroke="gray" stroke-dasharray=".02,.02"
          stroke-dashoffset=".02" stroke-miterlimit="10"/>
    <path d="M634.469 969.14v-8.777m0-46.082v8.778" fill="none" stroke-width=".966" stroke="gray"
          stroke-miterlimit="10"/>
    <path d="M581.309 969.14v-46.08" fill="none" stroke-width=".966" stroke="gray" stroke-dasharray=".02,.02"
          stroke-dashoffset=".02" stroke-miterlimit="10"/>
    <path d="M581.309 969.14v-8.777m0-46.082v8.778" fill="none" stroke-width=".966" stroke="gray"
          stroke-miterlimit="10"/>
    <path d="M634.469 966.945l-4.39 2.196v-4.391l4.39 2.195m-53.16 0l4.39-2.195v4.39l-4.39-2.195" fill="gray"
          stroke-width=".966" stroke="gray" stroke-miterlimit="10"/>
    <g fill="gray">
        <use transform="matrix(1, 0, 0, 1, 600.2069702148438, 971.0640258789062)" xlink:href="#x"/>
        <use transform="matrix(1, 0, 0, 1, 607.8419799804688, 971.0640258789062)" xlink:href="#v"/>
    </g>
    <path d="M634.469 966.945h-16.781m-19.598 0h-16.781" fill="none" stroke-width=".966" stroke="gray"
          stroke-miterlimit="10"/>
    <path d="M581.309 969.14v-46.08" fill="none" stroke-width=".966" stroke="gray" stroke-dasharray=".02,.02"
          stroke-dashoffset=".02" stroke-miterlimit="10"/>
    <path d="M581.309 969.14v-8.777m0-46.082v8.778" fill="none" stroke-width=".966" stroke="gray"
          stroke-miterlimit="10"/>
    <path d="M471.59 969.14v-46.08" fill="none" stroke-width=".966" stroke="gray" stroke-dasharray=".02,.02"
          stroke-dashoffset=".02" stroke-miterlimit="10"/>
    <path d="M471.59 969.14v-8.777m0-46.082v8.778" fill="none" stroke-width=".966" stroke="gray"
          stroke-miterlimit="10"/>
    <path d="M581.309 966.945l-4.387 2.196v-4.391l4.387 2.195m-109.719 0l4.39-2.195v4.39l-4.39-2.195" fill="gray"
          stroke-width=".966" stroke="gray" stroke-miterlimit="10"/>
    <g fill="gray">
        <use transform="matrix(1, 0, 0, 1, 514.9879760742188, 971.0640258789062)" xlink:href="#v"/>
        <use transform="matrix(1, 0, 0, 1, 522.6229858398438, 971.0640258789062)" xlink:href="#w"/>
        <use transform="matrix(1, 0, 0, 1, 530.2579956054688, 971.0640258789062)" xlink:href="#u"/>
    </g>
    <path d="M581.309 966.945H540.03m-27.16 0h-41.28" fill="none" stroke-width=".966" stroke="gray"
          stroke-miterlimit="10"/>
    <path d="M471.59 969.14v-46.08" fill="none" stroke-width=".966" stroke="gray" stroke-dasharray=".02,.02"
          stroke-dashoffset=".02" stroke-miterlimit="10"/>
    <path d="M471.59 969.14v-8.777m0-46.082v8.778" fill="none" stroke-width=".966" stroke="gray"
          stroke-miterlimit="10"/>
    <path d="M414.125 969.14v-46.08" fill="none" stroke-width=".966" stroke="gray" stroke-dasharray=".02,.02"
          stroke-dashoffset=".02" stroke-miterlimit="10"/>
    <path d="M414.125 969.14v-8.777m0-46.082v8.778" fill="none" stroke-width=".966" stroke="gray"
          stroke-miterlimit="10"/>
    <path d="M471.59 966.945l-4.387 2.196v-4.391l4.387 2.195m-57.465 0l4.39-2.195v4.39l-4.39-2.195" fill="gray"
          stroke-width=".966" stroke="gray" stroke-miterlimit="10"/>
    <g fill="gray">
        <use transform="matrix(1, 0, 0, 1, 435.17999267578125, 971.0640258789062)" xlink:href="#x"/>
        <use transform="matrix(1, 0, 0, 1, 442.8139953613281, 971.0640258789062)" xlink:href="#u"/>
    </g>
    <path d="M471.59 966.945h-18.934m-19.597 0h-18.934" fill="none" stroke-width=".966" stroke="gray"
          stroke-miterlimit="10"/>
    <path d="M414.125 969.14v-46.08" fill="none" stroke-width=".966" stroke="gray" stroke-dasharray=".02,.02"
          stroke-dashoffset=".02" stroke-miterlimit="10"/>
    <path d="M414.125 969.14v-8.777m0-46.082v8.778" fill="none" stroke-width=".966" stroke="gray"
          stroke-miterlimit="10"/>
    <path d="M304.406 969.14v-46.08" fill="none" stroke-width=".966" stroke="gray" stroke-dasharray=".02,.02"
          stroke-dashoffset=".02" stroke-miterlimit="10"/>
    <path d="M304.406 969.14v-8.777m0-46.082v8.778" fill="none" stroke-width=".966" stroke="gray"
          stroke-miterlimit="10"/>
    <path d="M414.125 966.945l-4.387 2.196v-4.391l4.387 2.195m-109.719 0l4.39-2.195v4.39l-4.39-2.195" fill="gray"
          stroke-width=".966" stroke="gray" stroke-miterlimit="10"/>
    <g fill="gray">
        <use transform="matrix(1, 0, 0, 1, 347.80499267578125, 971.0640258789062)" xlink:href="#v"/>
        <use transform="matrix(1, 0, 0, 1, 355.4389953613281, 971.0640258789062)" xlink:href="#w"/>
        <use transform="matrix(1, 0, 0, 1, 363.0740051269531, 971.0640258789062)" xlink:href="#u"/>
    </g>
    <path d="M414.125 966.945h-41.277m-27.16 0h-41.282" fill="none" stroke-width=".966" stroke="gray"
          stroke-miterlimit="10"/>
    <path d="M304.406 969.14v-46.08" fill="none" stroke-width=".966" stroke="gray" stroke-dasharray=".02,.02"
          stroke-dashoffset=".02" stroke-miterlimit="10"/>
    <path d="M304.406 969.14v-8.777m0-46.082v8.778" fill="none" stroke-width=".966" stroke="gray"
          stroke-miterlimit="10"/>
    <path d="M273.004 969.14v-46.08" fill="none" stroke-width=".966" stroke="gray" stroke-dasharray=".02,.02"
          stroke-dashoffset=".02" stroke-miterlimit="10"/>
    <path d="M273.004 969.14v-8.777m0-46.082v8.778" fill="none" stroke-width=".966" stroke="gray"
          stroke-miterlimit="10"/>
    <path d="M304.406 966.945l-4.386 2.196v-4.391l4.386 2.195m-31.402 0l4.39-2.195v4.39l-4.39-2.195" fill="gray"
          stroke-width=".966" stroke="gray" stroke-miterlimit="10"/>
    <g fill="gray">
        <use transform="matrix(1, 0, 0, 1, 281.0270080566406, 971.0640258789062)" xlink:href="#t"/>
        <use transform="matrix(1, 0, 0, 1, 288.6619873046875, 971.0640258789062)" xlink:href="#x"/>
    </g>
    <path d="M304.406 966.945h-5.902m-19.598 0h-5.902" fill="none" stroke-width=".966" stroke="gray"
          stroke-miterlimit="10"/>
    <path d="M774.875 1013.027V923.06" fill="none" stroke-width=".966" stroke="gray" stroke-dasharray=".02,.02"
          stroke-dashoffset=".02" stroke-miterlimit="10"/>
    <path d="M774.875 1013.027v-8.777m0-89.969v8.778" fill="none" stroke-width=".966" stroke="gray"
          stroke-miterlimit="10"/>
    <path d="M273.004 1013.027V923.06" fill="none" stroke-width=".966" stroke="gray" stroke-dasharray=".02,.02"
          stroke-dashoffset=".02" stroke-miterlimit="10"/>
    <path d="M273.004 1013.027v-8.777m0-89.969v8.778" fill="none" stroke-width=".966" stroke="gray"
          stroke-miterlimit="10"/>
    <path d="M774.875 1010.832l-4.387 2.195v-4.386l4.387 2.191m-501.871 0l4.39-2.191v4.386l-4.39-2.195" fill="gray"
          stroke-width=".966" stroke="gray" stroke-miterlimit="10"/>
    <g fill="gray">
        <use transform="matrix(1, 0, 0, 1, 512.47998046875, 1014.9509887695312)" xlink:href="#u"/>
        <use transform="matrix(1, 0, 0, 1, 520.114990234375, 1014.9509887695312)" xlink:href="#y"/>
        <use transform="matrix(1, 0, 0, 1, 527.75, 1014.9509887695312)" xlink:href="#w"/>
    </g>
    <path d="M774.875 1010.832H537.52m-27.16 0H273.003" fill="none" stroke-width=".966" stroke="gray"
          stroke-miterlimit="10"/>
    <path d="M203.043 923.059h69.96" fill="none" stroke-width=".966" stroke="gray" stroke-dasharray=".02,.02"
          stroke-dashoffset=".02" stroke-miterlimit="10"/>
    <path d="M203.043 923.059h8.777m69.961 0h-8.777" fill="none" stroke-width=".966" stroke="gray"
          stroke-miterlimit="10"/>
    <path d="M203.043 743.258h69.96" fill="none" stroke-width=".966" stroke="gray" stroke-dasharray=".02,.02"
          stroke-dashoffset=".02" stroke-miterlimit="10"/>
    <path d="M203.043 743.258h8.777m69.961 0h-8.777" fill="none" stroke-width=".966" stroke="gray"
          stroke-miterlimit="10"/>
    <path d="M205.238 923.059l-2.195-4.391h4.39l-2.195 4.39m0-179.8l2.196 4.39h-4.391l2.195-4.39" fill="gray"
          stroke-width=".966" stroke="gray" stroke-miterlimit="10"/>
    <g fill="gray">
        <use transform="matrix(1, 0, 0, 1, 201.11900329589844, 821.698974609375)" xlink:href="#z"/>
        <use transform="matrix(1, 0, 0, 1, 201.11900329589844, 829.333984375)" xlink:href="#A"/>
        <use transform="matrix(1, 0, 0, 1, 201.11900329589844, 836.968994140625)" xlink:href="#B"/>
    </g>
    <path d="M205.238 923.059v-76.32m0-27.16v-76.321" fill="none" stroke-width=".966" stroke="gray"
          stroke-miterlimit="10"/>
    <path d="M203.043 743.258h46.082" fill="none" stroke-width=".966" stroke="gray" stroke-dasharray=".02,.02"
          stroke-dashoffset=".02" stroke-miterlimit="10"/>
    <path d="M203.043 743.258h8.777m46.082 0h-8.777" fill="none" stroke-width=".966" stroke="gray"
          stroke-miterlimit="10"/>
    <path d="M203.043 558.152h46.082" fill="none" stroke-width=".966" stroke="gray" stroke-dasharray=".02,.02"
          stroke-dashoffset=".02" stroke-miterlimit="10"/>
    <path d="M203.043 558.152h8.777m46.082 0h-8.777" fill="none" stroke-width=".966" stroke="gray"
          stroke-miterlimit="10"/>
    <path d="M205.238 743.258l-2.195-4.387h4.39l-2.195 4.387m0-185.106l2.192 4.391h-4.387l2.195-4.39" fill="gray"
          stroke-width=".966" stroke="gray" stroke-miterlimit="10"/>
    <g fill="gray">
        <use transform="matrix(1, 0, 0, 1, 201.11900329589844, 639.2459716796875)" xlink:href="#C"/>
        <use transform="matrix(1, 0, 0, 1, 201.11900329589844, 646.8809814453125)" xlink:href="#D"/>
        <use transform="matrix(1, 0, 0, 1, 201.11900329589844, 654.5159912109375)" xlink:href="#D"/>
    </g>
    <path d="M205.238 743.258v-78.973m0-27.16v-78.973" fill="none" stroke-width=".966" stroke="gray"
          stroke-miterlimit="10"/>
    <path d="M203.043 558.152h64.453" fill="none" stroke-width=".966" stroke="gray" stroke-dasharray=".02,.02"
          stroke-dashoffset=".02" stroke-miterlimit="10"/>
    <path d="M203.043 558.152h8.777m64.453 0h-8.777" fill="none" stroke-width=".966" stroke="gray"
          stroke-miterlimit="10"/>
    <path d="M203.043 100.941h64.45" fill="none" stroke-width=".966" stroke="gray" stroke-dasharray=".02,.02"
          stroke-dashoffset=".02" stroke-miterlimit="10"/>
    <path d="M203.043 100.941h8.777m64.45 0h-8.778" fill="none" stroke-width=".966" stroke="gray"
          stroke-miterlimit="10"/>
    <path d="M205.238 558.152l-2.195-4.39h4.387l-2.192 4.39m-.004-457.211l2.196 4.391h-4.387l2.191-4.39" fill="gray"
          stroke-width=".966" stroke="gray" stroke-miterlimit="10"/>
    <g fill="gray">
        <use transform="matrix(1, 0, 0, 1, 201.11900329589844, 318.08599853515625)" xlink:href="#E"/>
        <use transform="matrix(1, 0, 0, 1, 201.11900329589844, 325.72100830078125)" xlink:href="#F"/>
        <use transform="matrix(1, 0, 0, 1, 201.11900329589844, 333.3550109863281)" xlink:href="#G"/>
    </g>
    <path d="M205.238 558.152V343.13m0-27.16l-.004-215.028" fill="none" stroke-width=".966" stroke="gray"
          stroke-miterlimit="10"/>
    <path d="M267.492 54.86v46.081" fill="none" stroke-width=".966" stroke="gray" stroke-dasharray=".02,.02"
          stroke-dashoffset=".02" stroke-miterlimit="10"/>
    <path d="M267.492 54.86v8.777m0 46.082v-8.778" fill="none" stroke-width=".966" stroke="gray"
          stroke-miterlimit="10"/>
    <path d="M338.434 54.86v46.081" fill="none" stroke-width=".966" stroke="gray" stroke-dasharray=".02,.02"
          stroke-dashoffset=".02" stroke-miterlimit="10"/>
    <path d="M338.434 54.86v8.777m0 46.082v-8.778" fill="none" stroke-width=".966" stroke="gray"
          stroke-miterlimit="10"/>
    <path d="M267.492 57.055l4.39-2.196v4.391l-4.39-2.195m70.942 0l-4.387 2.195v-4.39l4.387 2.195" fill="gray"
          stroke-width=".966" stroke="gray" stroke-miterlimit="10"/>
    <g fill="gray">
        <use transform="matrix(1, 0, 0, 1, 295.2850036621094, 61.17399978637695)" xlink:href="#H"/>
        <use transform="matrix(1, 0, 0, 1, 302.9200134277344, 61.17399978637695)" xlink:href="#I"/>
    </g>
    <path d="M267.492 57.055h25.672m19.602 0h25.668" fill="none" stroke-width=".966" stroke="gray"
          stroke-miterlimit="10"/>
    <path d="M338.434 54.86v46.081" fill="none" stroke-width=".966" stroke="gray" stroke-dasharray=".02,.02"
          stroke-dashoffset=".02" stroke-miterlimit="10"/>
    <path d="M338.434 54.86v8.777m0 46.082v-8.778" fill="none" stroke-width=".966" stroke="gray"
          stroke-miterlimit="10"/>
    <path d="M416.785 54.86v46.081" fill="none" stroke-width=".966" stroke="gray" stroke-dasharray=".02,.02"
          stroke-dashoffset=".02" stroke-miterlimit="10"/>
    <path d="M416.785 54.86v8.777m0 46.082v-8.778" fill="none" stroke-width=".966" stroke="gray"
          stroke-miterlimit="10"/>
    <path d="M338.434 57.055l4.39-2.196v4.391l-4.39-2.195m78.351 0l-4.387 2.195v-4.39l4.387 2.195" fill="gray"
          stroke-width=".966" stroke="gray" stroke-miterlimit="10"/>
    <g fill="gray">
        <use transform="matrix(1, 0, 0, 1, 369.92999267578125, 61.17399978637695)" xlink:href="#H"/>
        <use transform="matrix(1, 0, 0, 1, 377.56500244140625, 61.17399978637695)" xlink:href="#J"/>
    </g>
    <path d="M338.434 57.055h29.379m19.597 0h29.375" fill="none" stroke-width=".966" stroke="gray"
          stroke-miterlimit="10"/>
    <path d="M267.492 10.973v89.968" fill="none" stroke-width=".966" stroke="gray" stroke-dasharray=".02,.02"
          stroke-dashoffset=".02" stroke-miterlimit="10"/>
    <path d="M267.492 10.973v8.777m0 89.969v-8.778" fill="none" stroke-width=".966" stroke="gray"
          stroke-miterlimit="10"/>
    <path d="M441.809 10.973v89.968" fill="none" stroke-width=".966" stroke="gray" stroke-dasharray=".02,.02"
          stroke-dashoffset=".02" stroke-miterlimit="10"/>
    <path d="M441.809 10.973v8.777m0 89.969v-8.778" fill="none" stroke-width=".966" stroke="gray"
          stroke-miterlimit="10"/>
    <path d="M267.492 13.168l4.39-2.195v4.39l-4.39-2.195m174.317 0l-4.387 2.191v-4.386l4.387 2.195" fill="gray"
          stroke-width=".966" stroke="gray" stroke-miterlimit="10"/>
    <g fill="gray">
        <use transform="matrix(1, 0, 0, 1, 343.1910095214844, 17.28700065612793)" xlink:href="#I"/>
        <use transform="matrix(1, 0, 0, 1, 350.82598876953125, 17.28700065612793)" xlink:href="#J"/>
        <use transform="matrix(1, 0, 0, 1, 358.46099853515625, 17.28700065612793)" xlink:href="#J"/>
    </g>
    <path d="M267.492 13.168h73.578m27.16 0h73.579" fill="none" stroke-width=".966" stroke="gray"
          stroke-miterlimit="10"/>
    <path d="M452.344 54.789v46.082" fill="none" stroke-width=".966" stroke="gray" stroke-dasharray=".02,.02"
          stroke-dashoffset=".02" stroke-miterlimit="10"/>
    <path d="M452.344 54.789v8.777m0 46.082v-8.777" fill="none" stroke-width=".966" stroke="gray"
          stroke-miterlimit="10"/>
    <path d="M774.828 54.785l.004 46.082" fill="none" stroke-width=".966" stroke="gray" stroke-dasharray=".02,.02"
          stroke-dashoffset=".02" stroke-miterlimit="10"/>
    <path d="M774.828 54.785l.004 8.777m0 46.083v-8.778" fill="none" stroke-width=".966" stroke="gray"
          stroke-miterlimit="10"/>
    <path d="M452.344 56.984l4.39-2.195v4.387l-4.39-2.192m322.484-.007l-4.387 2.195v-4.387l4.387 2.192" fill="gray"
          stroke-width=".966" stroke="gray" stroke-miterlimit="10"/>
    <g fill="gray">
        <use transform="matrix(1, 0, 0, 1, 602.1290283203125, 61.099998474121094)" xlink:href="#K"/>
        <use transform="matrix(1, 0, 0, 1, 609.7639770507812, 61.099998474121094)" xlink:href="#L"/>
        <use transform="matrix(1, 0, 0, 1, 617.3989868164062, 61.0989990234375)" xlink:href="#M"/>
    </g>
    <path d="M452.344 56.984l147.664-.004m27.16 0l147.66-.003" fill="none" stroke-width=".966" stroke="gray"
          stroke-miterlimit="10"/>
    <path d="M820.914 100.867h-46.082" fill="none" stroke-width=".966" stroke="gray" stroke-dasharray=".02,.02"
          stroke-dashoffset=".02" stroke-miterlimit="10"/>
    <path d="M820.914 100.867h-8.777m-46.082 0h8.777" fill="none" stroke-width=".966" stroke="gray"
          stroke-miterlimit="10"/>
    <path d="M820.918 364.098h-46.082" fill="none" stroke-width=".966" stroke="gray" stroke-dasharray=".02,.02"
          stroke-dashoffset=".02" stroke-miterlimit="10"/>
    <path d="M820.918 364.098h-8.777m-46.082 0h8.777" fill="none" stroke-width=".966" stroke="gray"
          stroke-miterlimit="10"/>
    <path d="M818.719 100.867l2.195 4.387h-4.39l2.195-4.387m.004 263.231l-2.196-4.39h4.39l-2.194 4.39" fill="gray"
          stroke-width=".966" stroke="gray" stroke-miterlimit="10"/>
    <g fill="gray">
        <use transform="matrix(1, 0, 0, 1, 814.60400390625, 221.02000427246094)" xlink:href="#N"/>
        <use transform="matrix(1, 0, 0, 1, 814.60400390625, 228.65499877929688)" xlink:href="#O"/>
        <use transform="matrix(1, 0, 0, 1, 814.60400390625, 236.28900146484375)" xlink:href="#O"/>
    </g>
    <path d="M818.719 100.867l.004 118.035m0 27.16v118.036" fill="none" stroke-width=".966" stroke="gray"
          stroke-miterlimit="10"/>
</svg>
