<svg class="svg-icon" style="width: 1em; height: 1em;vertical-align: middle;fill: currentColor;overflow: hidden;"
     viewBox="0 0 1024 1024" version="1.1" xmlns="http://www.w3.org/2000/svg">
    <path d="M716.288 743.936c-44.544 60.928-41.984 144.384 6.656 202.24 57.856 69.12 160.768 78.336 229.376 20.992 68.608-57.856 77.312-160.768 19.456-229.888a163.4304 163.4304 0 0 0-196.608-41.984L686.592 588.8c40.96-58.88 35.328-138.752-13.824-190.976l50.176-137.216c52.224 1.024 99.328-31.232 117.248-80.384 23.04-62.976-9.216-133.12-72.192-156.16S635.392 33.792 612.352 97.28c-17.92 49.152-2.56 104.448 38.4 137.216l-44.544 121.856C528.896 332.8 446.464 373.76 418.304 449.536c-8.192 22.016-10.752 46.08-8.192 69.632l-90.112 15.872c-29.184-62.464-96.768-97.28-164.864-84.992-82.944 14.848-138.24 93.184-123.904 175.616s93.696 137.216 176.64 122.88c68.608-11.776 120.32-68.608 125.952-137.728l105.472-18.432c17.92 24.064 42.496 42.496 70.656 52.736 38.912 14.336 81.408 11.776 118.272-6.144l88.064 104.96z m-182.784-166.912c-40.448-14.848-61.44-60.416-46.592-101.376 14.848-41.472 60.416-62.464 100.864-47.616s61.44 60.416 46.592 101.376-59.904 61.952-100.864 47.616z"/>
</svg>
