<?xml version="1.0" encoding="UTF-8" standalone="no"?>
<!-- Created with Inkscape (http://www.inkscape.org/) -->

<svg
   xmlns:dc="http://purl.org/dc/elements/1.1/"
   xmlns:cc="http://creativecommons.org/ns#"
   xmlns:rdf="http://www.w3.org/1999/02/22-rdf-syntax-ns#"
   xmlns:svg="http://www.w3.org/2000/svg"
   xmlns="http://www.w3.org/2000/svg"
   xmlns:sodipodi="http://sodipodi.sourceforge.net/DTD/sodipodi-0.dtd"
   xmlns:inkscape="http://www.inkscape.org/namespaces/inkscape"
   width="100"
   height="100.03438"
   id="svg2"
   version="1.1"
   inkscape:version="0.48.5 r10040"
   sodipodi:docname="Новый документ 1">
  <defs
     id="defs4" />
  <sodipodi:namedview
     id="base"
     pagecolor="#ffffff"
     bordercolor="#666666"
     borderopacity="1.0"
     inkscape:pageopacity="0.0"
     inkscape:pageshadow="2"
     inkscape:zoom="2.8"
     inkscape:cx="28.757904"
     inkscape:cy="11.582174"
     inkscape:document-units="px"
     inkscape:current-layer="layer1"
     showgrid="false"
     fit-margin-top="0"
     fit-margin-left="0"
     fit-margin-right="0"
     fit-margin-bottom="0"
     inkscape:window-width="1440"
     inkscape:window-height="846"
     inkscape:window-x="-3"
     inkscape:window-y="-3"
     inkscape:window-maximized="1" />
  <metadata
     id="metadata7">
    <rdf:RDF>
      <cc:Work
         rdf:about="">
        <dc:format>image/svg+xml</dc:format>
        <dc:type
           rdf:resource="http://purl.org/dc/dcmitype/StillImage" />
        <dc:title></dc:title>
      </cc:Work>
    </rdf:RDF>
  </metadata>
  <g
     inkscape:label="Layer 1"
     inkscape:groupmode="layer"
     id="layer1"
     transform="translate(-334.82563,-261.77081)">
    <path
       style="fill:#00adef;fill-opacity:1"
       d="m 379.90268,361.51851 c -27.20374,-2.31779 -47.62167,-27.32061 -44.81974,-54.88409 2.37741,-23.38713 21.02582,-42.2546 44.07296,-44.59065 25.23551,-2.55787 47.97803,13.09015 54.26101,37.33434 2.62474,10.12812 1.52319,22.93702 -2.81644,32.74969 -4.40895,9.96942 -13.57064,19.55065 -23.59057,24.67086 -3.66683,1.87376 -11.40164,4.08631 -15.54967,4.44801 -2.27496,0.19837 -4.69289,0.43553 -5.37317,0.52703 -0.68028,0.0915 -3.46325,-0.0233 -6.18438,-0.25519 z m 10.04961,-20.99766 c 4.40167,-1.99799 3.32449,-2.49041 -5.44783,-2.49041 -8.67017,0 -9.38747,0.38693 -4.68009,2.52456 3.26935,1.48462 6.80829,1.47269 10.12792,-0.0341 z m 4.72672,-5.32396 c 0.20647,-0.53803 0.37539,-1.09462 0.37539,-1.23687 0,-0.14225 -4.5919,-0.25864 -10.20422,-0.25864 -5.61232,0 -10.20421,0.11639 -10.20421,0.25864 0,0.14225 0.16892,0.69884 0.37538,1.23687 0.56287,1.46682 19.09479,1.46682 19.65766,0 z m 0.99383,-4.89692 0,-1.54609 -10.82266,0 -10.82265,0 0,1.54609 0,1.5461 10.82265,0 10.82266,0 0,-1.5461 z m 0.38359,-6.95763 c 0.47956,-3.04559 1.42645,-5.51268 3.50107,-9.12195 5.14776,-8.95567 5.95223,-15.38792 2.71581,-21.71479 -6.17245,-12.06653 -21.79769,-14.35706 -31.40563,-4.60381 -7.11605,7.22369 -7.2447,16.15277 -0.38919,27.0126 1.7851,2.82778 3.54904,8.22518 3.54904,10.85955 l 0,1.74307 10.68577,0 10.68578,0 0.65735,-4.17467 z m -18.57628,-0.309 c -0.12054,-0.42518 -0.55128,-2.02539 -0.95718,-3.55602 -0.40591,-1.53063 -1.79711,-4.5919 -3.09158,-6.80281 -4.68654,-8.00451 -5.43744,-13.0386 -2.74947,-18.43267 5.81067,-11.66048 22.52586,-11.66048 28.33652,0 2.68926,5.39665 1.93587,10.43849 -2.75436,18.43267 -1.29715,2.21091 -2.81548,5.62005 -3.37405,7.57586 -0.98252,3.44026 -1.08462,3.55601 -3.13623,3.55601 l -2.12065,0 0,-6.7255 c 0,-3.69903 0.17394,-7.59519 0.38652,-8.65813 0.33688,-1.68438 0.64231,-1.93261 2.3779,-1.93261 3.26058,0 4.92717,-2.74967 3.3982,-5.6066 -0.9529,-1.78049 -3.33648,-1.48434 -5.12084,0.63625 -0.84805,1.00785 -1.6381,2.10467 -1.75567,2.43737 -0.26566,0.75178 -3.21798,1.32363 -3.99506,0.77382 -0.31512,-0.22296 -0.91105,-1.17479 -1.3243,-2.11519 -0.83633,-1.9032 -3.26341,-3.2904 -4.75531,-2.7179 -0.53485,0.20523 -1.28781,1.06531 -1.67326,1.91127 -1.0646,2.33654 0.67445,4.68098 3.47224,4.68098 1.16258,0 2.25762,0.23274 2.43343,0.51721 0.55489,0.89784 1.18114,13.48036 0.75538,15.17677 -0.32668,1.30159 -0.77541,1.62226 -2.27011,1.62226 -1.02461,0 -1.96156,-0.34787 -2.08212,-0.77304 z m 6.03141,-7.88771 -0.10175,-8.65549 1.57054,0 c 1.42917,0 1.53574,0.17396 1.18401,1.93261 -0.21259,1.06294 -0.38652,4.9591 -0.38652,8.65813 0,5.99395 -0.11772,6.72522 -1.08227,6.72287 -0.97419,-0.002 -1.09242,-0.86695 -1.18401,-8.65812 z m -6.77528,-11.40885 c -0.82161,-2.14109 1.74094,-3.04299 2.83543,-0.99792 0.91534,1.71033 0.82475,1.89596 -0.92531,1.89596 -0.86103,0 -1.72058,-0.40411 -1.91012,-0.89804 z m 12.87095,-0.44177 c 1.35347,-2.04173 3.13585,-2.30011 2.86903,-0.41591 -0.15288,1.07965 -0.66399,1.49882 -2.01527,1.65278 -1.76785,0.20142 -1.78794,0.17233 -0.85376,-1.23687 z"
       id="path2996"
       inkscape:connector-curvature="0" />
  </g>
</svg>
