<svg xmlns="http://www.w3.org/2000/svg" viewBox="0 0 100 100">
    <path fill="#f1da10" d="M45.074 99.73c-27.2-2.3-47.6-27.3-44.8-54.9 2.4-23.4 21-42.3 44.1-44.6 25.2-2.6 48 13.1 54.3 37.3 2.6 10.1 1.5 22.9-2.8 32.7-4.4 10-13.6 19.6-23.6 24.7-3.7 1.9-11.4 4.1-15.5 4.4-2.3.2-4.7.4-5.4.5s-3.6.2-6.3-.1zm10.1-21c4.4-2 3.3-2.5-5.4-2.5s-9.4.4-4.7 2.5c3.2 1.5 6.7 1.5 10.1 0zm4.7-5.3c.2-.5.4-1.1.4-1.2s-4.6-.3-10.2-.3-10.2.1-10.2.3.2.7.4 1.2c.5 1.5 19 1.5 19.6 0zm1-4.9v-1.5h-21.7v3h21.6v-1.5zm.4-7c.5-3 1.4-5.5 3.5-9.1 5.1-9 6-15.4 2.7-21.7-6.2-12.1-21.8-14.4-31.4-4.6-7.1 7.2-7.2 16.2-.4 27 1.8 2.8 3.5 8.2 3.5 10.9v1.7h21.4l.7-4.2zm-18.6-.3c-.1-.4-.6-2-1-3.6s-1.8-4.6-3.1-6.8c-4.7-8-5.4-13-2.7-18.4 5.8-11.7 22.5-11.7 28.3 0 2.7 5.4 1.9 10.4-2.8 18.4-1.3 2.2-2.8 5.6-3.4 7.6-1 3.4-1.1 3.6-3.1 3.6h-2.1v-6.7c0-3.7.2-7.6.4-8.7.3-1.7.6-1.9 2.4-1.9 3.3 0 4.9-2.7 3.4-5.6-1-1.8-3.3-1.5-5.1.6-.8 1-1.6 2.1-1.8 2.4-.3.8-3.2 1.3-4 .8-.3-.2-.9-1.2-1.3-2.1-.8-1.9-3.3-3.3-4.8-2.7-.5.2-1.3 1.1-1.7 1.9-1.1 2.3.7 4.7 3.5 4.7 1.2 0 2.3.2 2.4.5.6.9 1.2 13.5.8 15.2-.3 1.3-.8 1.6-2.3 1.6-1 0-1.9-.3-2-.8zm6-7.9l-.1-8.7h1.6c1.4 0 1.5.2 1.2 1.9-.2 1.1-.4 5-.4 8.7 0 6-.1 6.7-1.1 6.7-1 .1-1.1-.8-1.2-8.6zm-6.8-11.4c-.8-2.1 1.7-3 2.8-1 .9 1.7.8 1.9-.9 1.9-.8 0-1.7-.4-1.9-.9zm12.9-.4c1.4-2 3.1-2.3 2.9-.4-.2 1.1-.7 1.5-2 1.7-1.8.1-1.8.1-.9-1.3z"/>
</svg>
