<?xml version="1.0" encoding="utf-8"?>
<!-- Generator: Adobe Illustrator 21.0.0, SVG Export Plug-In . SVG Version: 6.00 Build 0)  -->
<svg version="1.1"
	 id="svg2" inkscape:version="0.48.5 r10040" sodipodi:docname="–Э–Њ–≤—Л–є –і–Њ–Ї—Г–Љ–µ–љ—В 1" xmlns:cc="http://creativecommons.org/ns#" xmlns:dc="http://purl.org/dc/elements/1.1/" xmlns:inkscape="http://www.inkscape.org/namespaces/inkscape" xmlns:rdf="http://www.w3.org/1999/02/22-rdf-syntax-ns#" xmlns:sodipodi="http://sodipodi.sourceforge.net/DTD/sodipodi-0.dtd" xmlns:svg="http://www.w3.org/2000/svg"
	 xmlns="http://www.w3.org/2000/svg" xmlns:xlink="http://www.w3.org/1999/xlink" x="0px" y="0px" viewBox="0 0 100 100"
	 xml:space="preserve">
<sodipodi:namedview  bordercolor="#666666" borderopacity="1.0" fit-margin-bottom="0" fit-margin-left="0" fit-margin-right="0" fit-margin-top="0" id="base" inkscape:current-layer="layer1" inkscape:cx="28.757904" inkscape:cy="11.582174" inkscape:document-units="px" inkscape:pageopacity="0.0" inkscape:pageshadow="2" inkscape:window-height="846" inkscape:window-maximized="1" inkscape:window-width="1440" inkscape:window-x="-3" inkscape:window-y="-3" inkscape:zoom="2.8" pagecolor="#ffffff" showgrid="false">
	</sodipodi:namedview>
<g id="layer1" transform="translate(-334.82563,-261.77081)" inkscape:groupmode="layer" inkscape:label="Layer 1">
	<path id="path2996" inkscape:connector-curvature="0" fill="#00ADEF" d="M379.9,361.5c-27.2-2.3-47.6-27.3-44.8-54.9
		c2.4-23.4,21-42.3,44.1-44.6c25.2-2.6,48,13.1,54.3,37.3c2.6,10.1,1.5,22.9-2.8,32.7c-4.4,10-13.6,19.6-23.6,24.7
		c-3.7,1.9-11.4,4.1-15.5,4.4c-2.3,0.2-4.7,0.4-5.4,0.5C385.4,361.9,382.6,361.8,379.9,361.5L379.9,361.5z M390,340.5
		c4.4-2,3.3-2.5-5.4-2.5c-8.7,0-9.4,0.4-4.7,2.5C383.1,342,386.6,342,390,340.5L390,340.5z M394.7,335.2c0.2-0.5,0.4-1.1,0.4-1.2
		s-4.6-0.3-10.2-0.3s-10.2,0.1-10.2,0.3s0.2,0.7,0.4,1.2C375.6,336.7,394.1,336.7,394.7,335.2L394.7,335.2z M395.7,330.3v-1.5h-10.8
		H374v1.5v1.5h10.8h10.8V330.3z M396.1,323.3c0.5-3,1.4-5.5,3.5-9.1c5.1-9,6-15.4,2.7-21.7c-6.2-12.1-21.8-14.4-31.4-4.6
		c-7.1,7.2-7.2,16.2-0.4,27c1.8,2.8,3.5,8.2,3.5,10.9v1.7h10.7h10.7L396.1,323.3z M377.5,323c-0.1-0.4-0.6-2-1-3.6s-1.8-4.6-3.1-6.8
		c-4.7-8-5.4-13-2.7-18.4c5.8-11.7,22.5-11.7,28.3,0c2.7,5.4,1.9,10.4-2.8,18.4c-1.3,2.2-2.8,5.6-3.4,7.6c-1,3.4-1.1,3.6-3.1,3.6
		h-2.1v-6.7c0-3.7,0.2-7.6,0.4-8.7c0.3-1.7,0.6-1.9,2.4-1.9c3.3,0,4.9-2.7,3.4-5.6c-1-1.8-3.3-1.5-5.1,0.6c-0.8,1-1.6,2.1-1.8,2.4
		c-0.3,0.8-3.2,1.3-4,0.8c-0.3-0.2-0.9-1.2-1.3-2.1c-0.8-1.9-3.3-3.3-4.8-2.7c-0.5,0.2-1.3,1.1-1.7,1.9c-1.1,2.3,0.7,4.7,3.5,4.7
		c1.2,0,2.3,0.2,2.4,0.5c0.6,0.9,1.2,13.5,0.8,15.2c-0.3,1.3-0.8,1.6-2.3,1.6C378.5,323.8,377.6,323.5,377.5,323L377.5,323z
		 M383.5,315.1l-0.1-8.7h1.6c1.4,0,1.5,0.2,1.2,1.9c-0.2,1.1-0.4,5-0.4,8.7c0,6-0.1,6.7-1.1,6.7
		C383.7,323.8,383.6,322.9,383.5,315.1L383.5,315.1z M376.7,303.7c-0.8-2.1,1.7-3,2.8-1c0.9,1.7,0.8,1.9-0.9,1.9
		C377.8,304.6,376.9,304.2,376.7,303.7L376.7,303.7z M389.6,303.3c1.4-2,3.1-2.3,2.9-0.4c-0.2,1.1-0.7,1.5-2,1.7
		C388.7,304.7,388.7,304.7,389.6,303.3L389.6,303.3z"/>
</g>
</svg>
