<?xml version="1.0" encoding="utf-8"?>
<!-- Generator: Adobe Illustrator 21.0.0, SVG Export Plug-In . SVG Version: 6.00 Build 0)  -->
<svg version="1.1"
	 id="svg2" inkscape:version="0.48.5 r10040" sodipodi:docname="вАУвЙ§вАУ–†вАУ¬£–≤–Р–£–≤–ЩвА†вАУвЙ§вАУ–†вАУ¬£–≤–Р–£вАУ–™вАУвЙ§вАУ–†вАУ¬£вАУвЙ§вАУ–©¬ђ–ЖвАУвЙ§вАУ–†вАУ¬І–≤–Р–£вАУ–ВвАУвЙ§вАУ–†вАУ¬£–≤–Р–§вАУ¬І вАУвЙ§вАУ–†вАУ¬£–≤–Р–§вАУ¬ґвАУвЙ§вАУ–†вАУ¬£–≤–Р–£вАУ–™вАУвЙ§вАУ–†вАУ¬£–≤–Р–£вАУ–ІвАУвЙ§вАУ–†вАУ¬І–≤–Р–£вАУ¬£вАУвЙ§вАУ–†вАУ¬£–≤–Р–£вАУ–©вАУвЙ§вАУ–†вАУ¬£¬ђ—Т¬ђ¬µвАУвЙ§вАУ–†вАУ¬£–≤–Р–§вАУ¬©вАУвЙ§вАУ–†вАУ¬І–≤–Р–£вАУ“Р 1" xmlns:cc="http://creativecommons.org/ns#" xmlns:dc="http://purl.org/dc/elements/1.1/" xmlns:inkscape="http://www.inkscape.org/namespaces/inkscape" xmlns:rdf="http://www.w3.org/1999/02/22-rdf-syntax-ns#" xmlns:sodipodi="http://sodipodi.sourceforge.net/DTD/sodipodi-0.dtd" xmlns:svg="http://www.w3.org/2000/svg"
	 xmlns="http://www.w3.org/2000/svg" xmlns:xlink="http://www.w3.org/1999/xlink" x="0px" y="0px" viewBox="0 0 100 100"
	 xml:space="preserve">
<sodipodi:namedview  bordercolor="#666666" borderopacity="1.0" fit-margin-bottom="0" fit-margin-left="0" fit-margin-right="0" fit-margin-top="0" id="base" inkscape:current-layer="layer1" inkscape:cx="28.757904" inkscape:cy="11.582174" inkscape:document-units="px" inkscape:pageopacity="0.0" inkscape:pageshadow="2" inkscape:window-height="846" inkscape:window-maximized="1" inkscape:window-width="1440" inkscape:window-x="-3" inkscape:window-y="-3" inkscape:zoom="2.8" pagecolor="#ffffff" showgrid="false">
	</sodipodi:namedview>
<g id="layer1" transform="translate(-334.82563,-261.77081)" inkscape:groupmode="layer" inkscape:label="Layer 1">
	<path id="path2996" inkscape:connector-curvature="0" fill="#FF0000" d="M379.9,361.5c-27.2-2.3-47.6-27.3-44.8-54.9
		c2.4-23.4,21-42.3,44.1-44.6c25.2-2.6,48,13.1,54.3,37.3c2.6,10.1,1.5,22.9-2.8,32.7c-4.4,10-13.6,19.6-23.6,24.7
		c-3.7,1.9-11.4,4.1-15.5,4.4c-2.3,0.2-4.7,0.4-5.4,0.5C385.4,361.9,382.6,361.8,379.9,361.5L379.9,361.5z"/>
</g>
<g transform="translate(0.000000,470.000000) scale(0.100000,-0.100000)">
	<path fill="#FFFFFF" d="M238.3,4497.3c-14.5-3.9-25.3-13.3-32.5-28.5l-4.1-8.6v-259.5c0-243.9,0.1-259.9,2.4-266.1
		c3.2-9.2,10.9-19,19.6-24.9c14.2-9.7-5.1-9,276.8-9c162.4,0,255.5,0.5,259.2,1.3c15.4,3.6,28.2,14.1,35.3,28.9l4.3,9v259.5
		c0,243.9-0.1,259.9-2.4,266.1c-3.2,9.2-10.9,19-19.6,24.9c-14.2,9.7,5.2,9-277.5,8.9C280.6,4499.3,244.5,4499.1,238.3,4497.3z
		 M250.8,4474.4c15.8-9.3,6.9-35.3-11.4-33.1c-15.3,1.9-21.6,20.1-10.6,30.6C235.5,4478.4,242.7,4479.2,250.8,4474.4z M769.1,4474.3
		c5.6-3.9,8.5-8.9,8.5-14.4c0-14.8-15.4-23.8-27.1-16c-12.6,8.4-11.6,25.4,1.9,31.7C758.6,4478.4,763.9,4478,769.1,4474.3z
		 M546.6,4473.8c17.8-3.5,40.1-9.6,53.6-14.9c85.8-33.8,149.4-106.9,170.1-195.2c5.6-23.6,6.3-30.5,6.3-63.6
		c0-34.9-0.7-41.1-7.5-68.5c-16.5-65.9-58.7-124.8-117-163.5c-30.2-20.1-63.6-33.1-105.8-41.7c-15.3-3.1-72.8-3.5-88.5-0.5
		c-25.4,4.5-43.5,9.7-64,18.2c-62,25.9-113,74-142.3,134.3c-19.7,40.6-27.9,76.3-27.9,121.5c0,45.9,8.4,82.5,27.9,122
		c27.7,56.3,70.8,99.4,127.1,127.1c27.1,13.4,56.3,22.4,87.2,26.6C479.5,4477.4,533.8,4476.2,546.6,4473.8z M251,3955.8
		c8.1-5.3,10.8-16.1,5.7-24.2c-8.5-13.7-29-10.5-33.1,5.2c-1.3,4.7-1.1,6.1,1.6,11.4C230.3,3958.6,241.7,3962,251,3955.8z
		 M769.9,3956c7.3-4.8,10.1-17.8,5.1-24.5c-4.3-5.7-9.2-8.6-14.6-8.6c-19.3,0-25.8,23.4-9.4,33.8
		C755.9,3959.7,764.4,3959.4,769.9,3956z"/>
	<path fill="#FFFFFF" d="M462.5,4450.6c-7.3-1.1-14.5-2.5-16.1-3.1c-4.1-1.6-15.6-25.6-19.7-41.1c-4.8-17.7-6.7-37.3-5.7-60
		c0.8-19.3,4.3-43.6,8.3-57l2.1-7.1l4.9,3.9c18.8,14.6,47.1,23,71.6,21c6-0.4,11.7-1.1,12.8-1.5c1.3-0.5,2.5,2.8,4.8,12.2
		c7.1,29.9,21,63.1,35.7,84.8c4.3,6.4,9.7,14.6,12.1,18.4c4.8,7.7,7.7,18.5,5.3,20c-2.8,1.7-29.4,7.7-42.9,9.7
		C518.5,4453.4,480.2,4453.3,462.5,4450.6z"/>
	<path fill="#FFFFFF" d="M318.2,4376.2c-25.4-26.9-45.1-58.3-56.4-90.5l-3.5-9.6l3.5-6.4c17.6-33.5,60.9-65.6,111.3-82.2
		c10.1-3.3,18.9-6.1,19.6-6.1c0.5,0,0.7,5.1,0.4,11.2c-1.5,23.6,5.1,47.4,18.6,67.6l7.9,11.8l-16.5,16.9
		c-24.8,25.3-37.7,43.5-51.6,72.5c-7.5,15.7-16,27.5-19.6,27.5C331,4389,324.9,4383.3,318.2,4376.2z"/>
	<path fill="#FFFFFF" d="M654.1,4369.7c-15.4-2.8-27.4-6.9-44-15.2c-24.8-12.1-50.3-30.1-66.1-46.3l-6.3-6.5l10.9-5.6
		c21-10.8,38.2-28.1,48.2-48.8c2.5-5.1,4.9-10.2,5.2-11.6c0.7-2,1.6-1.9,10.5,0.9c31.4,10,58.4,13.3,96.5,12.1
		c29.4-0.9,39,0.1,39,4.3c0,1.1-0.9,5.6-2.1,10.1c-8.8,34.5-27.3,70.9-50.6,99.3l-7.7,9.3l-12-0.1
		C668.9,4371.6,659.3,4370.6,654.1,4369.7z"/>
	<path fill="#FFFFFF" d="M483.8,4280.7c-18.6-4.4-32.1-12-44.4-25.6c-14.5-15.8-22.4-37.9-21-59.8c2.9-54.2,56.7-90.4,108.3-73.2
		c57,19,74.7,90.5,33.3,134.7C541.4,4276.6,509.3,4286.5,483.8,4280.7z"/>
	<path fill="#FFFFFF" d="M607.4,4199.6c-0.1-17.2-0.5-20-4.1-31.1c-4.1-12.5-10.4-24.6-18-34.7l-4.3-5.6l16-16.4
		c25.3-25.8,38.5-44.2,52.4-73.3c7.5-15.6,16.1-27.4,19.8-27.4c2.1,0,24.5,24.5,34.2,37.5c15.2,20.4,27.9,44.3,36.5,68.4l2.4,6.8
		l-3.3,6.5c-18.8,37-70.8,72.3-129.5,87.8C607.8,4218.5,607.5,4215.9,607.4,4199.6z"/>
	<path fill="#FFFFFF" d="M394,4165.2c-9-3.5-40.2-10.5-55.4-12.5c-13.6-1.7-22-2-39.8-1.2c-27.8,1.2-34.2,1.1-40.7-0.7
		c-6.3-1.7-6.3-2-1.9-18.2c8.8-33,26.6-67.1,49.4-94.9l7.7-9.3h10.9c13.4,0,31.1,3.1,44.3,7.6c24.6,8.4,56.8,27.8,78.8,47.4
		c17.8,15.8,17.3,14.6,8.5,18.8c-10.6,4.8-26.5,16.1-33.5,24c-8.1,8.9-18.2,24.5-21.2,32.5C398.2,4166.5,398,4166.8,394,4165.2z"/>
	<path fill="#FFFFFF" d="M565,4114.1c-11.6-9.4-32.2-18-49.9-20.6c-10.2-1.5-29.9-1.1-34.6,0.8c-1.6,0.5-2.8-2.4-5.9-14.9
		c-8.1-33.7-23.8-68.3-42.3-92.9c-5.3-7.3-9.6-16.1-10.8-22.8c-0.7-3.6-0.4-4.3,3.5-5.6c33.1-11.6,89-14.4,127.5-6.3
		c2.4,0.5,4.8,3.2,8.4,9c19.6,33,24.6,84.8,13.4,137.6C570.2,4117.8,570,4118.2,565,4114.1z"/>
</g>
</svg>
