<svg xmlns="http://www.w3.org/2000/svg" viewBox="0 0 100 100">
    <path fill="#00ADEF" d="M45.074 99.73c-27.2-2.3-47.6-27.3-44.8-54.9 2.4-23.4 21-42.3 44.1-44.6 25.2-2.6 48 13.1 54.3 37.3 2.6 10.1 1.5 22.9-2.8 32.7-4.4 10-13.6 19.6-23.6 24.7-3.7 1.9-11.4 4.1-15.5 4.4-2.3.2-4.7.4-5.4.5-.8.3-3.6.2-6.3-.1z"/>
    <g fill="#FFF">
        <path d="M23.83 20.27c-1.45.39-2.53 1.33-3.25 2.85l-.41.86v25.95c0 24.39.01 25.99.24 26.61.32.92 1.09 1.9 1.96 2.49 1.42.97-.51.9 27.68.9 16.24 0 25.55-.05 25.92-.13 1.54-.36 2.82-1.41 3.53-2.89l.43-.9V50.06c0-24.39-.01-25.99-.24-26.61-.32-.92-1.09-1.9-1.96-2.49-1.42-.97.52-.9-27.75-.89-21.92 0-25.53.02-26.15.2zm1.25 2.29c1.58.93.69 3.53-1.14 3.31-1.53-.19-2.16-2.01-1.06-3.06.67-.65 1.39-.73 2.2-.25zm51.83.01c.56.39.85.89.85 1.44 0 1.48-1.54 2.38-2.71 1.6-1.26-.84-1.16-2.54.19-3.17.62-.28 1.15-.24 1.67.13zm-22.25.05c1.78.35 4.01.96 5.36 1.49 8.58 3.38 14.94 10.69 17.01 19.52.56 2.36.63 3.05.63 6.36 0 3.49-.07 4.11-.75 6.85-1.65 6.59-5.87 12.48-11.7 16.35-3.02 2.01-6.36 3.31-10.58 4.17-1.53.31-7.28.35-8.85.05-2.54-.45-4.35-.97-6.4-1.82-6.2-2.59-11.3-7.4-14.23-13.43-1.97-4.06-2.79-7.63-2.79-12.15 0-4.59.84-8.25 2.79-12.2 2.77-5.63 7.08-9.94 12.71-12.71 2.71-1.34 5.63-2.24 8.72-2.66 1.37-.18 6.8-.06 8.08.18zM25.1 74.42c.81.53 1.08 1.61.57 2.42-.85 1.37-2.9 1.05-3.31-.52-.13-.47-.11-.61.16-1.14.51-1.04 1.65-1.38 2.58-.76zm51.89-.02c.73.48 1.01 1.78.51 2.45-.43.57-.92.86-1.46.86-1.93 0-2.58-2.34-.94-3.38.49-.3 1.34-.27 1.89.07z"/>
        <path d="M46.25 24.94c-.73.11-1.45.25-1.61.31-.41.16-1.56 2.56-1.97 4.11-.48 1.77-.67 3.73-.57 6 .08 1.93.43 4.36.83 5.7l.21.71.49-.39c1.88-1.46 4.71-2.3 7.16-2.1.6.04 1.17.11 1.28.15.13.05.25-.28.48-1.22.71-2.99 2.1-6.31 3.57-8.48.43-.64.97-1.46 1.21-1.84.48-.77.77-1.85.53-2-.28-.17-2.94-.77-4.29-.97-1.72-.26-5.55-.25-7.32.02zm-14.43 7.44c-2.54 2.69-4.51 5.83-5.64 9.05l-.35.96.35.64c1.76 3.35 6.09 6.56 11.13 8.22 1.01.33 1.89.61 1.96.61.05 0 .07-.51.04-1.12-.15-2.36.51-4.74 1.86-6.76l.79-1.18-1.65-1.69c-2.48-2.53-3.77-4.35-5.16-7.25-.75-1.57-1.6-2.75-1.96-2.75-.09-.01-.7.56-1.37 1.27zm33.59.65c-1.54.28-2.74.69-4.4 1.52-2.48 1.21-5.03 3.01-6.61 4.63l-.63.65 1.09.56c2.1 1.08 3.82 2.81 4.82 4.88.25.51.49 1.02.52 1.16.07.2.16.19 1.05-.09 3.14-1 5.84-1.33 9.65-1.21 2.94.09 3.9-.01 3.9-.43 0-.11-.09-.56-.21-1.01-.88-3.45-2.73-7.09-5.06-9.93l-.77-.93-1.2.01c-.67 0-1.63.1-2.15.19zm-17.03 8.9c-1.86.44-3.21 1.2-4.44 2.56-1.45 1.58-2.24 3.79-2.1 5.98.29 5.42 5.67 9.04 10.83 7.32 5.7-1.9 7.47-9.05 3.33-13.47-1.86-1.98-5.07-2.97-7.62-2.39zm12.36 8.11c-.01 1.72-.05 2-.41 3.11-.41 1.25-1.04 2.46-1.8 3.47l-.43.56 1.6 1.64c2.53 2.58 3.85 4.42 5.24 7.33.75 1.56 1.61 2.74 1.98 2.74.21 0 2.45-2.45 3.42-3.75 1.52-2.04 2.79-4.43 3.65-6.84l.24-.68-.33-.65c-1.88-3.7-7.08-7.23-12.95-8.78-.17-.04-.2.22-.21 1.85zM39.4 53.48c-.9.35-4.02 1.05-5.54 1.25-1.36.17-2.2.2-3.98.12-2.78-.12-3.42-.11-4.07.07-.63.17-.63.2-.19 1.82.88 3.3 2.66 6.71 4.94 9.49l.77.93h1.09c1.34 0 3.11-.31 4.43-.76 2.46-.84 5.68-2.78 7.88-4.74 1.78-1.58 1.73-1.46.85-1.88-1.06-.48-2.65-1.61-3.35-2.4-.81-.89-1.82-2.45-2.12-3.25-.29-.78-.31-.81-.71-.65zm17.1 5.11c-1.16.94-3.22 1.8-4.99 2.06-1.02.15-2.99.11-3.46-.08-.16-.05-.28.24-.59 1.49-.81 3.37-2.38 6.83-4.23 9.29-.53.73-.96 1.61-1.08 2.28-.07.36-.04.43.35.56 3.31 1.16 8.9 1.44 12.75.63.24-.05.48-.32.84-.9 1.96-3.3 2.46-8.48 1.34-13.76-.41-1.94-.43-1.98-.93-1.57z"/>
    </g>
</svg>
