<svg xmlns="http://www.w3.org/2000/svg" viewBox="0 0 100 100">
    <g fill="#f1da10">
        <path d="M77 74.4c-.6-.3-1.4-.4-1.9-.1-1.6 1-1 3.4.9 3.4.5 0 1-.3 1.5-.9.5-.6.2-1.9-.5-2.4zm-51.9 0c-.9-.6-2.1-.3-2.6.8-.3.5-.3.7-.2 1.1.4 1.6 2.5 1.9 3.3.5.6-.8.3-1.8-.5-2.4zm-1.2-48.5c1.8.2 2.7-2.4 1.1-3.3-.8-.5-1.5-.4-2.2.2-1 1.1-.4 2.9 1.1 3.1zM77.7 50c0-3.3-.1-4-.6-6.4-2.1-8.8-8.4-16.1-17-19.5-1.3-.5-3.6-1.1-5.4-1.5-1.3-.2-6.7-.4-8.1-.2-3.1.4-6 1.3-8.7 2.7-5.6 2.8-9.9 7.1-12.7 12.7-2 4-2.8 7.6-2.8 12.2 0 4.5.8 8.1 2.8 12.1 2.9 6 8 10.8 14.2 13.4 2 .8 3.9 1.4 6.4 1.8 1.6.3 7.3.3 8.9 0 4.2-.9 7.6-2.2 10.6-4.2 5.8-3.9 10-9.8 11.7-16.3.6-2.7.7-3.3.7-6.8zM42.6 29.3c.4-1.5 1.6-3.9 2-4.1.2-.1.9-.2 1.6-.3 1.8-.3 5.6-.3 7.3 0 1.3.2 4 .8 4.3 1 .2.2 0 1.2-.5 2-.2.4-.8 1.2-1.2 1.8-1.5 2.2-2.9 5.5-3.6 8.5-.2.9-.3 1.3-.5 1.2-.1 0-.7-.1-1.3-.1-2.5-.2-5.3.6-7.2 2.1l-.5.4-.1-.8c-.4-1.3-.8-3.8-.8-5.7-.2-2.2 0-4.2.5-6zm13.3 15c4.1 4.4 2.4 11.6-3.3 13.5-5.2 1.7-10.5-1.9-10.8-7.3-.1-2.2.6-4.4 2.1-6 1.2-1.4 2.6-2.1 4.4-2.6 2.6-.6 5.8.4 7.6 2.4zm-29.8-2.9c1.1-3.2 3.1-6.4 5.6-9 .7-.7 1.3-1.3 1.4-1.3.4 0 1.2 1.2 2 2.8 1.4 2.9 2.7 4.7 5.2 7.2l1.7 1.7-.9 1.2c-1.3 2-2 4.4-1.9 6.8v1.1c-.1 0-1-.3-2-.6-5-1.7-9.4-4.9-11.1-8.2l-.3-.6.3-1.1zm10.7 25c-1.3.5-3.1.8-4.4.8h-1.1l-.8-.9c-2.3-2.8-4.1-6.2-4.9-9.5-.4-1.6-.4-1.6.2-1.8.7-.2 1.3-.2 4.1-.1 1.8.1 2.6 0 4-.1 1.5-.2 4.6-.9 5.5-1.2.4-.2.4-.1.7.7.3.8 1.3 2.4 2.1 3.2.7.8 2.3 1.9 3.3 2.4.9.4.9.3-.8 1.9-2.2 1.8-5.4 3.7-7.9 4.6zM56 73.9c-.4.6-.6.9-.8.9-3.8.8-9.4.5-12.8-.6-.3-.2-.4-.2-.3-.6.1-.7.5-1.5 1.1-2.3 1.8-2.5 3.4-5.9 4.2-9.3.3-1.2.4-1.5.6-1.5.5.2 2.4.2 3.5.1 1.8-.3 3.8-1.1 5-2.1.5-.4.5-.4.9 1.6 1.1 5.3.6 10.5-1.4 13.8zm17.9-15.6c-.9 2.4-2.1 4.8-3.6 6.8-1 1.3-3.2 3.8-3.4 3.8-.4 0-1.2-1.2-2-2.7-1.4-2.9-2.7-4.8-5.2-7.3L58 57.2l.4-.6c.8-1 1.4-2.2 1.8-3.5.4-1.1.4-1.4.4-3.1 0-1.6 0-1.9.2-1.9 5.9 1.5 11.1 5.1 13 8.8l.3.6-.2.8zm-3.1-13.2c-3.8-.1-6.5.2-9.7 1.2-.9.3-1 .3-1 .1 0-.1-.3-.6-.5-1.2-1-2.1-2.7-3.8-4.8-4.9l-1.1-.6.6-.7c1.6-1.6 4.1-3.4 6.6-4.6 1.7-.8 2.9-1.2 4.4-1.5.5-.1 1.5-.2 2.1-.2h1.2l.8.9c2.3 2.8 4.2 6.5 5.1 9.9.1.5.2.9.2 1 0 .6-.9.7-3.9.6z"/>
        <path d="M98.7 37.5C92.4 13.3 69.6-2.4 44.4.2 21.3 2.5 2.7 21.4.3 44.8c-2.8 27.6 17.6 52.6 44.8 54.9 2.7.3 5.5.4 6.3.1.7-.1 3.1-.3 5.4-.5 4.1-.3 11.8-2.5 15.5-4.4 10-5.1 19.2-14.7 23.6-24.7 4.3-9.8 5.4-22.6 2.8-32.7zM79.9 76l-.4.9c-.7 1.5-2 2.5-3.5 2.9-.4.1-9.7.1-25.9.1-28.2 0-26.3.1-27.7-.9-.9-.6-1.6-1.6-2-2.5-.2-.6-.2-2.2-.2-26.6V24l.4-.9c.7-1.5 1.8-2.5 3.2-2.8.6-.2 4.2-.2 26.2-.2 28.3 0 26.3-.1 27.8.9.9.6 1.6 1.6 2 2.5.2.6.2 2.2.2 26.6V76z"/>
        <path d="M76.9 22.6c-.5-.4-1-.4-1.7-.1-1.4.6-1.5 2.3-.2 3.2 1.2.8 2.7-.1 2.7-1.6.1-.6-.2-1.1-.8-1.5z"/>
    </g>
</svg>
