<?xml version="1.0" encoding="UTF-8" standalone="no"?>
<!-- Created with Inkscape (http://www.inkscape.org/) -->

<svg
   xmlns:dc="http://purl.org/dc/elements/1.1/"
   xmlns:cc="http://creativecommons.org/ns#"
   xmlns:rdf="http://www.w3.org/1999/02/22-rdf-syntax-ns#"
   xmlns:svg="http://www.w3.org/2000/svg"
   xmlns="http://www.w3.org/2000/svg"
   xmlns:sodipodi="http://sodipodi.sourceforge.net/DTD/sodipodi-0.dtd"
   xmlns:inkscape="http://www.inkscape.org/namespaces/inkscape"
   width="1024.2268"
   height="836.88324"
   id="svg2"
   version="1.1"
   inkscape:version="0.48.5 r10040"
   sodipodi:docname="logo.svg">
  <defs
     id="defs4" />
  <sodipodi:namedview
     id="base"
     pagecolor="#ffffff"
     bordercolor="#666666"
     borderopacity="1.0"
     inkscape:pageopacity="0.0"
     inkscape:pageshadow="2"
     inkscape:zoom="0.7"
     inkscape:cx="886.68327"
     inkscape:cy="506.68682"
     inkscape:document-units="px"
     inkscape:current-layer="layer1"
     showgrid="false"
     fit-margin-top="0"
     fit-margin-left="0"
     fit-margin-right="0"
     fit-margin-bottom="0"
     inkscape:window-width="1440"
     inkscape:window-height="846"
     inkscape:window-x="-3"
     inkscape:window-y="-3"
     inkscape:window-maximized="1" />
  <metadata
     id="metadata7">
    <rdf:RDF>
      <cc:Work
         rdf:about="">
        <dc:format>image/svg+xml</dc:format>
        <dc:type
           rdf:resource="http://purl.org/dc/dcmitype/StillImage" />
        <dc:title />
      </cc:Work>
    </rdf:RDF>
  </metadata>
  <g
     inkscape:label="Layer 1"
     inkscape:groupmode="layer"
     id="layer1"
     transform="translate(-160.78044,-400.28124)">
    <g
       id="g3100"
       style="fill:#b3b3b3;fill-opacity:1">
      <path
         id="path3092"
         d="m 183.50515,1235.8147 c -10.29823,-2.6606 -16.48914,-8.1821 -19.97247,-17.8128 -2.31,-6.3867 -3.76048,-28.8139 -1.90935,-29.5224 0.61499,-0.2354 6.81917,-0.2901 13.78705,-0.1216 l 12.66887,0.3064 0.45216,8.2463 c 0.48869,8.9124 1.52591,11.5008 5.29719,13.2191 7.12792,3.2477 16.47907,2.008 20.16092,-2.6727 1.87756,-2.3869 2.01563,-4.0215 2.01563,-23.8625 0,-11.715 -0.39982,-22.3418 -0.8885,-23.6151 -0.97823,-2.5489 -4.61951,-4.9414 -26.1115,-17.1565 -20.23857,-11.5026 -22.44289,-13.0241 -25.12898,-17.3448 l -2.37102,-3.8138 0,-34 c 0,-33.6009 0.0277,-34.0614 2.36327,-39.2271 3.21126,-7.1026 9.54299,-12.7537 16.58272,-14.8002 4.50773,-1.3105 9.25191,-1.5636 24.3269,-1.2981 18.16138,0.32 18.88384,0.4125 23.9151,3.0631 5.99307,3.1573 9.60007,7.4568 12.5447,14.9532 1.70109,4.3306 2.17029,8.2118 2.54585,21.0591 l 0.46041,15.75 -14.11947,0 -14.11948,0 0,-11.6 0,-11.6 -3.4,-3.4 c -3.22311,-3.2231 -3.76647,-3.4 -10.44423,-3.4 -12.66883,0 -13.95259,2.7814 -14.07719,30.5 -0.0371,8.25 0.39586,16.6681 0.9621,18.7069 1.31346,4.7292 3.35087,6.2007 22.95932,16.5824 13.80806,7.3107 21.87387,12.161 25.46236,15.3118 5.97471,5.2458 6.53764,8.728 6.53764,40.4405 0,15.502 -0.45768,30.5987 -1.01706,33.5483 -2.01076,10.6028 -7.20027,17.6517 -15.98294,21.7099 -5.07193,2.3435 -6.78419,2.5647 -22,2.8418 -11.1572,0.2033 -18.11903,-0.1177 -21.5,-0.9912 z"
         style="fill:#b3b3b3;fill-opacity:1"
         inkscape:connector-curvature="0" />
      <path
         id="path3090"
         d="m 266.25046,1134.6054 0.25469,-102.5588 15,-0.011 15,-0.012 1.24937,4.8203 c 1.89362,7.306 23.25063,109.1005 23.25063,110.8201 0,3.6673 1.74825,0.9788 2.76349,-4.2497 0.61408,-3.1625 2.92683,-14.3 5.13946,-24.75 2.21262,-10.45 7.2037,-34.0283 11.09128,-52.3961 3.88758,-18.3679 7.23536,-33.6679 7.4395,-34 0.20415,-0.3322 7.16508,-0.4689 15.46873,-0.3038 l 15.09754,0.3001 0,102.4499 0,102.4499 -14.04498,0 -14.04499,0 0.57783,-20.25 c 1.14768,-40.2207 2.52273,-109.0728 2.18505,-109.4104 -0.18993,-0.19 -1.59184,5.8434 -3.11534,13.4075 -1.5235,7.5641 -3.37234,16.4529 -4.10852,19.7529 -3.25951,14.611 -9.03401,41.7445 -11.43899,53.75 l -1.15186,5.75 -10.7588,0 -10.7588,0 -1.71775,-8.25 c -4.27956,-20.5539 -7.00455,-33.3707 -10.15215,-47.75 -1.86609,-8.525 -4.37624,-20.5717 -5.5781,-26.7704 -1.20186,-6.1987 -2.28659,-11.1487 -2.41052,-11 -0.25554,0.3066 1.02338,66.198 2.0384,105.0204 l 0.67323,25.75 -14.10155,0 -14.10155,0 0.2547,-102.5589 z"
         style="fill:#b3b3b3;fill-opacity:1"
         inkscape:connector-curvature="0" />
      <path
         id="path3088"
         d="m 439.40625,1032.125 c -11.6308,0.037 -14.50707,0.4006 -18.96875,1.9688 -7.14936,2.5127 -11.86766,6.8441 -15.3125,14.0624 l -2.625,5.5 -0.5,89.5 c -0.27501,49.225 -0.33401,90.5286 -0.15625,91.7813 0.32057,2.2594 0.43379,2.2755 14,2 l 13.65625,-0.2813 0.21875,-13 c 0.11524,-7.15 0.2277,-23.9124 0.25,-37.25 l 0.0312,-24.25 14.90625,0 c 12.89765,0 14.98472,0.232 15.53125,1.6563 0.34709,0.9045 0.5895,16.767 0.5625,35.25 -0.0271,18.4829 -0.0449,34.6063 -0.0312,35.8437 0.0247,2.2211 0.21041,2.25 13.5625,2.25 l 13.53125,0 -0.28125,-91.75 -0.28125,-91.75 -2.34375,-5.2187 c -1.2998,-2.8748 -4.29578,-7.0117 -6.65625,-9.1875 -6.53928,-6.0277 -11.4357,-7.055 -33.53125,-7.125 -2.0483,-0.01 -3.90096,-0.01 -5.5625,0 z m 5.375,25.0312 c 10.38791,1e-4 13.45835,1.5865 15.1875,7.8126 1.09876,3.9562 1.49511,67.8688 0.4375,70.625 -0.51413,1.3397 -2.79368,1.5624 -14.84375,1.5624 -7.82449,1e-4 -14.53959,-0.2895 -14.90625,-0.6562 C 430.28958,1136.1334 430,1119.4318 430,1099.4062 l 0,-36.4062 2.9375,-2.9062 c 2.79491,-2.7951 3.29375,-2.9376 11.84375,-2.9376 z"
         style="fill:#b3b3b3;fill-opacity:1"
         inkscape:connector-curvature="0" />
      <path
         id="path3084"
         d="m 512,1032.1562 0,102.5 0,102.5 14,0 14,0 0,-41.5 0,-41.5 8,0 c 7.45603,0 8.01495,0.148 8.5,2.25 0.28556,1.2375 3.22172,14.625 6.53125,29.75 3.30953,15.125 7.19871,32.7875 8.65625,39.25 l 2.65625,11.75 12.84375,0 c 9.60067,0 12.8145,-0.3148 12.8125,-1.25 -10e-4,-0.6875 -4.05141,-19.3641 -9,-41.5 -4.94859,-22.1358 -9,-40.8402 -9,-41.5937 0,-0.7536 1.78292,-2.5429 3.9375,-3.9687 2.72791,-1.8053 4.83596,-4.5106 7,-8.9063 4.43374,-9.0063 5.35227,-19.2249 4.84375,-54.7813 -0.39866,-27.8744 -0.54273,-29.8248 -2.71875,-35.4062 -3.08243,-7.9062 -9.20288,-13.9663 -16.15625,-16.0312 -4.28888,-1.2737 -11.03198,-1.5626 -36.09375,-1.5626 l -30.8125,0 z m 28,24.8438 12.09375,0.3438 c 11.25127,0.3106 12.21501,0.4879 13.96875,2.6562 3.34377,4.1342 3.9375,9.1672 3.9375,34.1562 0,27.5708 -0.57054,31.1712 -5.3125,34.0626 -2.63479,1.6066 -5.05468,1.9374 -13.9375,1.9374 l -10.75,0 0,-36.5624 0,-36.5938 z"
         style="fill:#b3b3b3;fill-opacity:1"
         inkscape:connector-curvature="0" />
      <path
         id="path3080"
         d="m 636.00515,1147.1643 0,-90 -13,0 -13,0 -1.6e-4,-12.75 -1.7e-4,-12.75 39.99998,0 39.99997,0 1.9e-4,12.75 1.9e-4,12.75 -13,0 -13,0 0,90 0,90 -14,0 -14,0 0,-90 z"
         style="fill:#b3b3b3;fill-opacity:1"
         inkscape:connector-curvature="0" />
      <path
         id="path3078"
         d="m 751.00515,1134.6643 0,-102.5 2.75,-0.166 c 1.5125,-0.091 4.1,-0.1361 5.75,-0.099 1.65,0.037 6.70772,0.1113 11.23938,0.166 l 8.23937,0.099 0.26063,43.25 0.26062,43.25 16.25,0.1152 16.25,0.1153 0,-43.3126 0,-43.3125 14.00162,-0.3027 14.00162,-0.3027 -0.002,102.75 -10e-4,102.75 -14,0 -14,0 0,-46.5 0,-46.5 -16.5,0 -16.5,0 0,46.5 0,46.5 -14,0 -14,0 0,-102.5 z"
         style="fill:#b3b3b3;fill-opacity:1"
         inkscape:connector-curvature="0" />
      <path
         id="path3076"
         d="m 910.15625,1032.1562 c -25.87559,1e-4 -30.04479,0.9169 -37.25,8.0626 -8.79617,8.7233 -8.40625,4.1607 -8.40625,94.9374 l 0,79.5 2.59375,5.5 c 4.17477,8.8266 10.87665,14.1143 20.25,15.9688 5.97642,1.1821 38.43549,1.2304 44.59375,0.062 12.11096,-2.2968 19.1457,-8.5866 22.5,-20.125 1.44039,-4.9549 1.58744,-14.1902 1.34375,-84 l -0.28125,-78.4063 -2.34375,-5.2187 c -1.2998,-2.8748 -4.29578,-7.0117 -6.65625,-9.1875 -6.74968,-6.2217 -11.21668,-7.0938 -36.34375,-7.0938 z m -0.96875,25.0313 c 5.8767,-0.012 11.80546,0.412 13.1875,0.9375 5.83119,2.217 5.64105,-0.7059 5.65625,76.4062 0.01,49.3218 -0.33046,71.3237 -1.09375,72.75 -0.60191,1.1247 -2.60569,2.6904 -4.46875,3.4688 -4.38372,1.8312 -19.86753,1.8081 -24.09375,-0.031 -6.74048,-2.9338 -6.375,1.381 -6.375,-75.8438 0,-49.4705 0.33379,-70.4841 1.125,-72.0312 2.48393,-4.8571 4.69574,-5.6323 16.0625,-5.6563 z"
         style="fill:#b3b3b3;fill-opacity:1"
         inkscape:connector-curvature="0" />
      <path
         id="path3072"
         d="m 980.00515,1134.6643 0,-102.5 14.5,0 c 7.97505,0 14.83755,-0.1125 15.25005,-0.25 0.9481,-0.316 2.0195,4.1211 8.1493,33.75 2.7309,13.2 6.8214,32.775 9.09,43.5 2.2686,10.725 5.1565,24.45 6.4176,30.5 1.4427,6.9208 2.5182,10.2583 2.9003,9 0.334,-1.1 4.4739,-20.45 9.1997,-43 12.0582,-57.5375 15.3063,-72.6466 15.7025,-73.0428 0.3144,-0.3144 18.0147,-0.6511 27.0224,-0.514 l 3.7319,0.057 0.027,102.5 0.027,102.5 -14.0663,0 -14.0664,0 0.6433,-31.25 c 0.3538,-17.1875 0.999,-46.55 1.4338,-65.25 0.4348,-18.7 0.6879,-34.1209 0.5624,-34.2686 -0.1254,-0.1477 -1.1661,4.3523 -2.3125,10 -1.1465,5.6477 -3.6546,17.6936 -5.5736,26.7686 -7.7668,36.7304 -11.6382,55.422 -11.6382,56.1901 0,0.4454 -4.95,0.8099 -11,0.8099 -6.05,0 -11,-0.2602 -11,-0.5783 0,-0.318 -1.5571,-7.8555 -3.4602,-16.75 -1.9031,-8.8944 -5.738,-26.9717 -8.5221,-40.1717 -8.4525,-40.0764 -8.0375,-39.1634 -7.5004,-16.5 0.2542,10.725 0.6969,33.225 0.9839,50 0.287,16.775 0.7961,37.3625 1.1314,45.75 l 0.6096,15.25 -14.1211,0 -14.12115,0 0,-102.5 z"
         style="fill:#b3b3b3;fill-opacity:1"
         inkscape:connector-curvature="0" />
      <path
         id="path3070"
         d="m 1117.0052,1134.6643 0,-102.5 34,0 34,0 0,12.5 0,12.5 -20.0145,0 -20.0144,0 0.2644,30.75 0.2645,30.75 15.5,0.1721 c 8.525,0.095 16.5125,0.2071 17.75,0.25 2.2092,0.077 2.25,0.3047 2.25,12.5779 l 0,12.5 -18,0 -18,0 0,34.0401 0,34.0402 20.001,-0.2902 20.0011,-0.2901 0,12.75 -10e-4,12.75 -34,0 -34,0 0,-102.5 z"
         style="fill:#b3b3b3;fill-opacity:1"
         inkscape:connector-curvature="0" />
    </g>
    <g
       id="g3111"
       style="fill:#b3b3b3;fill-opacity:1">
      <path
         id="path3068"
         d="m 673,400.28125 c -1.76568,-0.002 -3.50166,0.45471 -6.5625,1.375 -4.84738,1.45745 -6.09771,2.4189 -19.4375,14.90625 -3.5859,3.35676 -19.3359,17.97315 -35,32.5 -15.6641,14.52686 -31.65344,29.37685 -35.53125,33 -3.87781,3.62315 -10.44468,9.74375 -14.5625,13.59375 -12.79355,11.96147 -36.05717,33.69279 -43.375,40.5 -3.84317,3.575 -10.36758,9.6807 -14.5,13.5625 -7.85161,7.37545 -20.20707,18.86365 -23.03125,21.4375 -0.90524,0.825 -7.17949,6.675 -13.96875,13 -6.78926,6.325 -12.84034,11.94996 -13.4375,12.5 -0.59717,0.55004 -7.61875,7.05997 -15.59375,14.46875 -7.975,7.40878 -16.94306,15.73382 -19.9375,18.5 -2.99444,2.76617 -9.29444,8.66213 -14,13.09375 -4.70556,4.43162 -11.1392,10.46037 -14.3125,13.40625 -4.65461,4.32101 -6.09389,6.4369 -7.375,10.84375 -1.72535,5.93502 -1.31736,11.43738 1.1875,16.28125 2.34276,4.5304 33.25367,37.17621 37.3125,39.40625 4.43614,2.43734 15.23682,2.70342 19.28125,0.46875 1.45416,-0.80347 8.20416,-6.60192 15,-12.875 L 467.5,698.84375 468,813.25 c 0.45972,105.18951 0.65669,114.67954 2.21875,117.53125 2.25871,4.12352 8.1694,9.22108 11.5625,9.96875 1.50241,0.33106 3.16875,0.7483 3.71875,0.9375 0.55,0.18922 32.20846,0.25605 70.34375,0.15625 l 69.34375,-0.1875 2.40625,-2.8125 2.40625,-2.78125 0,-67.03125 c 0,-43.19417 -0.3491,-67.65877 -1,-68.875 -0.55539,-1.03774 -16.30539,-17.2495 -35,-36.03125 l -34,-34.15625 0,-15.875 0,-15.90625 4.84375,-2.4375 c 11.81756,-5.98841 18.4196,-16.74661 18.5,-30.09375 0.12175,-20.2032 -18.28247,-35.80334 -38.40625,-32.5625 -11.04207,1.77827 -19.19751,7.80334 -24.125,17.8125 -2.9548,6.00205 -3.3215,7.61983 -3.3125,15.25 0.009,7.41754 0.39405,9.2719 2.9375,14.3125 3.42828,6.79416 9.81679,13.02813 16.09375,15.71875 l 4.46875,1.90625 0,19.09375 c 0,14.64375 0.33813,19.70933 1.4375,21.78125 0.78804,1.48519 16.53804,17.74624 35,36.125 L 611,808.5 l 0,57.34375 0,57.34375 -61.75,-0.25 L 487.5,922.65625 487,797.3125 486.5,672 l -2.8125,-2.4375 c -1.79057,-1.54008 -4.0536,-2.40625 -6.25,-2.40625 -3.54095,0 -9.56782,4.92756 -30.90625,25.15625 -9.77989,9.27128 -14.91089,13.81655 -15.65625,13.84375 -0.35,0.0128 -6.2,-5.93635 -13,-13.1875 -6.79999,-7.25114 -13.6125,-14.46343 -15.125,-16.03125 -1.5125,-1.56782 -2.75,-3.22651 -2.75,-3.6875 0,-0.46099 2.1375,-2.78571 4.75,-5.15625 5.85161,-5.30965 25.73267,-23.78726 45.71875,-42.5 8.26377,-7.73727 31.68125,-29.5132 52.03125,-48.40625 20.35,-18.89305 46.9,-43.61865 59,-54.9375 12.1,-11.31884 24.20781,-22.61793 26.90625,-25.09375 2.69845,-2.47583 6.08289,-5.625 7.53125,-7 9.50572,-9.02422 26.32814,-24.65826 39.125,-36.40625 3.54735,-3.25659 12.0625,-11.21421 18.9375,-17.65625 6.875,-6.44205 13.98319,-12.9096 15.78125,-14.40625 l 3.25,-2.71875 5.25,4.46875 c 2.87694,2.45941 16.18795,14.75787 29.59375,27.34375 13.4058,12.58588 25.7808,23.65431 27.5,24.59375 5.10192,2.78792 10.95647,2.30408 14.96875,-1.21875 4.87271,-4.27829 5.5728,-8.39198 5.5,-32.3125 -0.0348,-11.4347 0.24595,-21.12033 0.625,-21.5 0.37904,-0.37967 12.93271,-0.6875 27.875,-0.6875 l 27.15625,0 0.5,59.5 c 0.4622,55.0013 0.64242,59.87804 2.375,64.5 2.96621,7.9129 6.4817,12.22326 21.78125,26.5625 7.88579,7.39082 17.49375,16.3884 21.34375,20 3.85,3.61161 9.925,9.24218 13.5,12.53125 3.575,3.28908 14.15,13.18402 23.5,21.96875 9.35,8.78474 24.7625,23.09066 34.25,31.8125 9.4875,8.72184 17.25,16.27396 17.25,16.78125 0,1.47036 -29.52193,32.84375 -30.90625,32.84375 -0.7322,0 -4.41806,-3.23383 -15.59375,-13.78125 -17.22293,-16.2547 -21.10567,-19.87633 -24.3125,-22.5 -4.26833,-3.49214 -9.04075,-3.61038 -12.875,-0.3125 L 859.5,672 859,797.3125 l -0.5,125.34375 -61.75,0.28125 -61.75,0.25 0,-57.3125 0,-57.3125 33.53125,-33.4375 c 18.44576,-18.39569 34.19576,-34.67106 35,-36.15625 C 804.66789,736.86972 805,732.05088 805,717.3125 l 0,-18.96875 4.75,-2.3125 c 6.75654,-3.27056 12.6085,-9.03226 15.875,-15.65625 2.40909,-4.88528 2.81615,-6.95343 2.84375,-14.21875 0.0271,-7.14668 -0.39863,-9.37628 -2.625,-14.125 -9.59808,-20.4722 -35.71253,-25.867 -52.21875,-10.78125 -11.85191,10.83198 -14.71347,27.09366 -7.09375,40.4375 3.07175,5.37932 11.21677,12.88072 15.78125,14.53125 l 3.6875,1.34375 0,16.5625 0,16.53125 -35,35 -35,35 0,67.6875 0,67.71875 2.40625,2.78125 2.4375,2.8125 70.3125,0 c 38.68512,0 71.59134,-0.32955 73.09375,-0.75 1.50241,-0.42045 4.35798,-2.22904 6.375,-4 7.34228,-6.44659 6.81918,2.45862 7.375,-124.03125 l 0.5,-113.78125 4.5,4.125 c 23.37375,21.48254 25.24769,22.67269 34.09375,21.625 2.64191,-0.31289 6.33307,-1.38276 8.21875,-2.375 4.74063,-2.49453 35.46091,-35.57777 37.78125,-40.6875 2.30547,-5.07698 2.38422,-9.82607 0.3125,-15.90625 -1.39211,-4.08561 -4.6667,-7.54202 -27.21875,-28.4375 C 922.07234,624.35918 906.22603,609.63936 901,604.71875 c -5.22603,-4.9206 -13.11744,-12.3456 -17.53125,-16.5 -4.41382,-4.15439 -13.59837,-12.7375 -20.4375,-19.0625 -26.37928,-24.39619 -28.81891,-26.90798 -30.46875,-31.75 -1.34808,-3.95641 -1.57485,-12.62969 -1.59375,-62.65625 -0.0206,-54.39094 -0.14045,-58.34729 -1.875,-62.09375 -1.01857,-2.2 -3.1369,-5.19766 -4.71875,-6.65625 -5.51371,-5.08406 -9.31656,-5.597 -40.6875,-5.6875 -31.78236,-0.0917 -34.11224,0.25511 -40.40625,6.15625 -5.77026,5.4101 -6.28125,7.64258 -6.28125,27.09375 0,9.67938 -0.2415,17.59375 -0.53125,17.59375 -0.28975,0 -4.22725,-3.54763 -8.75,-7.875 -4.52275,-4.32736 -16.0274,-15.12526 -25.59375,-24 -14.78609,-13.7171 -18.1546,-16.35311 -22.4375,-17.625 -3.12006,-0.92655 -4.92182,-1.37321 -6.6875,-1.375 z M 550.90625,645.4375 c 3.80353,0.0803 7.71637,1.32224 11.34375,4.0625 12.63678,9.54629 10.61611,28.28611 -3.75,34.8125 -4.27771,1.94332 -11.50839,2.3265 -15.28125,0.8125 -4.44544,-1.7839 -9.53996,-6.46688 -11.34375,-10.4375 -6.77316,-14.90956 5.44721,-29.53667 19.03125,-29.25 z m 245,0 c 4.45532,0.0792 8.97696,1.68723 12.75,5 11.17897,9.81526 9.3371,26.65036 -3.625,33.21875 -16.32069,8.27032 -33.74005,-6.21735 -28.625,-23.8125 2.67671,-9.20754 10.99439,-14.55737 19.5,-14.40625 z"
         style="fill:#b3b3b3;fill-opacity:1"
         inkscape:connector-curvature="0" />
      <path
         id="path3062"
         d="m 672.96875,632.6875 c -4.9004,0.0184 -9.84049,1.1119 -14.4375,3.375 -7.02235,3.45709 -12.16144,8.6856 -15.78125,16.03125 -1.86502,3.78465 -2.23095,6.20464 -2.21875,14.0625 0.013,8.34593 0.3217,10.1074 2.65625,14.5 3.49979,6.58506 8.84526,11.8989 14.8125,14.71875 2.98606,1.41108 5.07927,3.12827 5.4375,4.46875 0.31948,1.19549 0.55545,54.9156 0.53125,119.375 -0.0418,111.34267 0.0455,117.2917 1.75,119.1875 0.98676,1.09753 2.68125,2.37271 3.78125,2.84375 3.0572,1.30914 7.72264,0.15091 10.5,-2.625 l 2.5,-2.5 0.1875,-119.0625 0.1875,-119.03125 4.96875,-2.46875 c 6.84257,-3.4098 13.38948,-10.68301 16.125,-17.9375 1.8322,-4.85849 2.1434,-7.42558 1.8125,-13.96875 -0.47498,-9.3921 -3.61398,-16.30217 -10.09375,-22.15625 -6.45528,-5.83196 -14.55141,-8.8431 -22.71875,-8.8125 z m -0.3125,12.6875 c 1.66876,-0.0287 3.33206,0.18725 4.96875,0.625 5.60686,1.49961 8.97978,4.00929 12.625,9.40625 2.22781,3.29841 2.75,5.16645 2.75,9.9375 0,9.20262 -4.26455,15.95778 -12.21875,19.28125 -4.13912,1.72944 -11.00022,1.93403 -14.75,0.4375 -11.23994,-4.48582 -16.2644,-17.56066 -10.96875,-28.5 3.2657,-6.74603 10.36247,-11.0629 17.59375,-11.1875 z"
         style="fill:#b3b3b3;fill-opacity:1"
         inkscape:connector-curvature="0" />
    </g>
  </g>
</svg>
