<?xml version="1.0"?>
<svg width="600" height="600" xmlns="http://www.w3.org/2000/svg" xmlns:svg="http://www.w3.org/2000/svg" version="1.1">
 <metadata id="metadata7">image/svg+xml</metadata>
 <g class="layer">
  <title>Layer 1</title>
  <g id="layer1">
   <g fill="#4c4c4c" id="g3111">
    <path d="m300.22,25c-1.77,0 -3.5,0.46 -6.56,1.38c-4.85,1.45 -6.1,2.42 -19.44,14.9c-3.59,3.36 -19.34,17.98 -35,32.5c-15.66,14.53 -31.65,29.38 -35.53,33c-3.88,3.63 -10.45,9.75 -14.56,13.6c-12.8,11.96 -36.06,33.69 -43.38,40.5c-3.84,3.57 -10.37,9.68 -14.5,13.56c-7.85,7.37 -20.21,18.86 -23.03,21.44c-0.91,0.82 -7.18,6.67 -13.97,13c-6.79,6.32 -12.84,11.95 -13.44,12.5c-0.59,0.55 -7.61,7.06 -15.59,14.47c-7.98,7.4 -16.94,15.73 -19.94,18.5c-2.99,2.76 -9.29,8.66 -14,13.09c-4.7,4.43 -11.14,10.46 -14.31,13.41c-4.65,4.32 -6.09,6.43 -7.37,10.84c-1.73,5.93 -1.32,11.44 1.18,16.28c2.35,4.53 33.26,37.18 37.32,39.41c4.43,2.43 15.23,2.7 19.28,0.47c1.45,-0.81 8.2,-6.61 15,-12.88l12.34,-11.41l0.5,114.41c0.46,105.19 0.66,114.68 2.22,117.53c2.26,4.12 8.17,9.22 11.56,9.97c1.5,0.33 3.17,0.75 3.72,0.94c0.55,0.19 32.21,0.25 70.34,0.15l69.35,-0.18l2.4,-2.82l2.41,-2.78l0,-67.03c0,-43.19 -0.35,-67.66 -1,-68.87c-0.56,-1.04 -16.31,-17.25 -35,-36.03l-34,-34.16l0,-15.88l0,-15.9l4.84,-2.44c11.82,-5.99 18.42,-16.75 18.5,-30.09c0.13,-20.21 -18.28,-35.81 -38.4,-32.57c-11.04,1.78 -19.2,7.81 -24.13,17.82c-2.95,6 -3.32,7.62 -3.31,15.25c0.01,7.41 0.39,9.27 2.94,14.31c3.43,6.79 9.81,13.03 16.09,15.72l4.47,1.9l0,19.1c0,14.64 0.34,19.71 1.44,21.78c0.79,1.48 16.54,17.74 35,36.12l33.56,33.41l0,57.34l0,57.35l-61.75,-0.25l-61.75,-0.28l-0.5,-125.35l-0.5,-125.31l-2.81,-2.44c-1.79,-1.54 -4.06,-2.4 -6.25,-2.4c-3.54,0 -9.57,4.92 -30.91,25.15c-9.78,9.27 -14.91,13.82 -15.65,13.85c-0.36,0.01 -6.2,-5.94 -13,-13.19c-6.8,-7.25 -13.62,-14.46 -15.13,-16.03c-1.51,-1.57 -2.75,-3.23 -2.75,-3.69c0,-0.46 2.14,-2.79 4.75,-5.16c5.85,-5.31 25.73,-23.78 45.72,-42.5c8.26,-7.73 31.68,-29.51 52.03,-48.4c20.35,-18.9 46.9,-43.62 59,-54.94c12.1,-11.32 24.21,-22.62 26.91,-25.09c2.69,-2.48 6.08,-5.63 7.53,-7c9.5,-9.03 26.33,-24.66 39.12,-36.41c3.55,-3.26 12.07,-11.21 18.94,-17.66c6.88,-6.44 13.98,-12.91 15.78,-14.4l3.25,-2.72l5.25,4.47c2.88,2.46 16.19,14.76 29.6,27.34c13.4,12.59 25.78,23.66 27.5,24.6c5.1,2.78 10.95,2.3 14.96,-1.22c4.88,-4.28 5.58,-8.4 5.5,-32.32c-0.03,-11.43 0.25,-21.12 0.63,-21.5c0.38,-0.38 12.93,-0.68 27.87,-0.68l27.16,0l0.5,59.5c0.46,55 0.64,59.87 2.38,64.5c2.96,7.91 6.48,12.22 21.78,26.56c7.88,7.39 17.49,16.39 21.34,20c3.85,3.61 9.92,9.24 13.5,12.53c3.58,3.29 14.15,13.18 23.5,21.97c9.35,8.78 24.76,23.09 34.25,31.81c9.49,8.72 17.25,16.28 17.25,16.78c0,1.47 -29.52,32.85 -30.91,32.85c-0.73,0 -4.41,-3.24 -15.59,-13.78c-17.22,-16.26 -21.11,-19.88 -24.31,-22.5c-4.27,-3.5 -9.04,-3.62 -12.88,-0.32l-2.81,2.44l-0.5,125.31l-0.5,125.35l-61.75,0.28l-61.75,0.25l0,-57.31l0,-57.32l33.53,-33.43c18.45,-18.4 34.2,-34.68 35,-36.16c1.14,-2.1 1.47,-6.92 1.47,-21.66l0,-18.97l4.75,-2.31c6.76,-3.27 12.61,-9.03 15.88,-15.65c2.4,-4.89 2.81,-6.96 2.84,-14.22c0.03,-7.15 -0.4,-9.38 -2.63,-14.13c-9.59,-20.47 -35.71,-25.87 -52.21,-10.78c-11.86,10.83 -14.72,27.09 -7.1,40.44c3.07,5.38 11.22,12.88 15.78,14.53l3.69,1.34l0,16.57l0,16.53l-35,35l-35,35l0,67.68l0,67.72l2.41,2.78l2.43,2.82l70.32,0c38.68,0 71.59,-0.33 73.09,-0.75c1.5,-0.42 4.36,-2.23 6.38,-4c7.34,-6.45 6.81,2.45 7.37,-124.03l0.5,-113.79l4.5,4.13c23.37,21.48 25.25,22.67 34.09,21.62c2.65,-0.31 6.34,-1.38 8.22,-2.37c4.74,-2.5 35.46,-35.58 37.78,-40.69c2.31,-5.08 2.39,-9.82 0.32,-15.9c-1.4,-4.09 -4.67,-7.55 -27.22,-28.44c-14.12,-13.08 -29.96,-27.8 -35.19,-32.72c-5.23,-4.92 -13.12,-12.35 -17.53,-16.5c-4.42,-4.16 -13.6,-12.74 -20.44,-19.06c-26.38,-24.4 -28.82,-26.91 -30.47,-31.75c-1.35,-3.96 -1.57,-12.63 -1.59,-62.66c-0.02,-54.39 -0.14,-58.35 -1.88,-62.09c-1.01,-2.2 -3.13,-5.2 -4.71,-6.66c-5.52,-5.08 -9.32,-5.6 -40.69,-5.69c-31.78,-0.09 -34.11,0.26 -40.41,6.16c-5.77,5.41 -6.28,7.64 -6.28,27.09c0,9.68 -0.24,17.6 -0.53,17.6c-0.29,0 -4.23,-3.55 -8.75,-7.88c-4.52,-4.33 -16.03,-15.12 -25.59,-24c-14.79,-13.72 -18.16,-16.35 -22.44,-17.62c-3.12,-0.93 -4.92,-1.38 -6.69,-1.38zm-122.09,245.16c3.8,0.08 7.71,1.32 11.34,4.06c12.64,9.55 10.62,28.29 -3.75,34.81c-4.28,1.95 -11.51,2.33 -15.28,0.82c-4.45,-1.79 -9.54,-6.47 -11.34,-10.44c-6.78,-14.91 5.44,-29.54 19.03,-29.25zm245,0c4.45,0.08 8.97,1.68 12.75,5c11.18,9.81 9.33,26.65 -3.63,33.22c-16.32,8.27 -33.74,-6.22 -28.62,-23.82c2.67,-9.2 10.99,-14.55 19.5,-14.4z" fill="#ffffff" id="path3068" transform="matrix(1 0 0 1 0 0)"/>
    <path d="m300.19,257.41c-4.9,0.02 -9.84,1.11 -14.44,3.37c-7.02,3.46 -12.16,8.69 -15.78,16.03c-1.87,3.79 -2.23,6.21 -2.22,14.07c0.01,8.34 0.32,10.1 2.66,14.5c3.5,6.58 8.84,11.9 14.81,14.72c2.99,1.41 5.08,3.12 5.44,4.46c0.32,1.2 0.55,54.92 0.53,119.38c-0.04,111.34 0.04,117.29 1.75,119.19c0.99,1.09 2.68,2.37 3.78,2.84c3.06,1.31 7.72,0.15 10.5,-2.62l2.5,-2.5l0.19,-119.07l0.19,-119.03l4.96,-2.47c6.85,-3.41 13.39,-10.68 16.13,-17.93c1.83,-4.86 2.14,-7.43 1.81,-13.97c-0.47,-9.4 -3.61,-16.31 -10.09,-22.16c-6.46,-5.83 -14.55,-8.84 -22.72,-8.81zm-0.31,12.69c1.67,-0.03 3.33,0.18 4.97,0.62c5.6,1.5 8.97,4.01 12.62,9.41c2.23,3.29 2.75,5.16 2.75,9.93c0,9.21 -4.26,15.96 -12.22,19.29c-4.14,1.72 -11,1.93 -14.75,0.43c-11.24,-4.48 -16.26,-17.56 -10.97,-28.5c3.27,-6.74 10.36,-11.06 17.6,-11.18z" fill="#ffffff" id="path3062"/>
   </g>
  </g>
 </g>
</svg>