<?xml version="1.0" standalone="no"?>
<!DOCTYPE svg PUBLIC "-//W3C//DTD SVG 20010904//EN"
 "http://www.w3.org/TR/2001/REC-SVG-20010904/DTD/svg10.dtd">
<svg version="1.0" xmlns="http://www.w3.org/2000/svg"
 width="600.000000pt" height="600.000000pt" viewBox="0 0 600.000000 600.000000"
 preserveAspectRatio="xMidYMid meet">
<metadata>
Created by potrace 1.14, written by Peter Selinger 2001-2017
</metadata>
<g transform="translate(0.000000,600.000000) scale(0.100000,-0.100000)"
fill="#000000" stroke="none">
<path d="M2950 5741 c-45 -14 -84 -39 -130 -81 -183 -170 -267 -248 -290 -270
-33 -31 -233 -216 -269 -249 -14 -13 -58 -53 -96 -90 -75 -70 -144 -135 -345
-321 -68 -63 -136 -126 -150 -140 -14 -14 -84 -79 -155 -145 -70 -66 -144
-135 -164 -154 -20 -18 -83 -77 -140 -130 -57 -53 -118 -109 -136 -126 -17
-16 -82 -77 -145 -135 -62 -58 -125 -116 -140 -130 -29 -28 -226 -210 -280
-260 -19 -18 -91 -85 -160 -150 -69 -65 -146 -136 -172 -159 -60 -54 -90 -116
-90 -185 0 -78 14 -101 157 -255 113 -122 230 -233 255 -243 56 -21 167 -8
201 24 8 7 32 28 54 47 22 18 65 57 95 85 31 28 65 59 77 70 l22 18 1 -573 c1
-876 8 -1607 15 -1678 4 -41 13 -73 26 -89 27 -35 78 -71 114 -80 16 -5 342
-8 722 -8 l693 1 25 26 26 25 -1 625 c0 343 -2 650 -3 681 -3 69 37 21 -377
441 l-315 319 -1 159 -2 160 47 23 c194 99 247 358 105 515 -113 126 -281 153
-424 68 -51 -31 -88 -74 -121 -143 -25 -52 -30 -73 -30 -143 0 -69 4 -91 26
-136 31 -63 92 -126 158 -163 l49 -27 2 -191 c1 -156 5 -195 18 -215 8 -14
165 -175 348 -359 l332 -335 0 -515 c-1 -283 -1 -541 -1 -572 l-1 -57 -615 2
c-539 2 -615 4 -616 17 -1 27 -7 1377 -9 1937 l-2 553 -30 25 c-60 50 -97 31
-289 -149 -165 -155 -183 -172 -211 -193 l-29 -21 -97 100 c-105 109 -141 147
-186 196 l-29 31 55 53 c30 29 108 102 174 163 117 108 227 211 269 250 12 11
75 70 140 130 65 61 130 121 145 135 31 29 247 230 333 310 116 108 328 305
397 370 21 19 66 62 101 94 35 33 96 89 134 125 39 36 131 122 204 191 74 69
148 139 166 155 17 17 78 73 135 125 113 105 117 108 270 250 165 154 205 190
211 190 3 0 15 -8 26 -17 35 -31 205 -187 238 -218 46 -44 220 -203 299 -273
82 -73 133 -87 188 -55 68 40 76 73 79 361 l3 192 30 1 c169 6 519 2 522 -6 1
-5 5 -266 8 -580 5 -554 7 -611 27 -662 14 -36 64 -106 107 -149 57 -58 332
-316 492 -464 19 -18 87 -81 150 -140 63 -59 129 -121 146 -136 89 -82 259
-241 334 -312 l84 -80 -39 -47 c-85 -105 -267 -285 -280 -277 -15 9 -81 68
-242 219 -187 177 -206 186 -273 141 l-33 -23 -3 -695 c-1 -382 -3 -943 -4
-1246 -1 -304 -5 -556 -9 -560 -3 -5 -281 -10 -617 -11 l-611 -2 1 574 1 575
321 322 c176 178 332 337 346 354 27 35 30 59 31 302 l0 122 46 23 c67 32 145
115 169 178 28 77 23 197 -12 267 -62 123 -177 191 -313 186 -164 -6 -302
-142 -316 -309 -4 -47 13 -127 37 -173 24 -45 109 -126 157 -147 l39 -18 0
-166 0 -166 -350 -350 -350 -350 0 -675 0 -676 28 -30 27 -30 610 2 c875 3
817 1 865 35 56 41 69 65 78 150 8 75 13 591 16 1671 1 502 3 565 16 555 13
-10 175 -153 207 -184 59 -54 129 -71 209 -48 43 13 65 29 160 127 152 157
225 241 252 290 26 49 29 112 7 165 -15 37 -125 149 -320 328 -54 50 -119 109
-144 133 -25 24 -70 66 -101 94 -30 28 -117 110 -194 182 -76 72 -148 139
-159 148 -34 31 -300 282 -335 318 -67 68 -65 49 -68 640 -2 294 -6 566 -9
604 -8 110 -59 175 -150 193 -22 4 -173 8 -335 8 -283 0 -297 -1 -335 -22 -48
-26 -80 -58 -96 -98 -11 -28 -18 -143 -19 -307 0 -38 -3 -68 -7 -68 -5 0 -33
24 -64 53 -31 28 -109 102 -174 162 -108 102 -140 130 -235 214 -65 57 -149
82 -210 62z m-1068 -2476 c61 -41 93 -99 92 -170 0 -35 -7 -73 -17 -92 -41
-78 -156 -128 -239 -104 -84 26 -148 114 -144 201 7 155 182 248 308 165z
m2435 11 c91 -47 137 -168 99 -259 -21 -50 -75 -96 -132 -113 -87 -25 -167 2
-218 74 -78 110 -22 274 105 310 43 12 111 7 146 -12z"/>
<path d="M2904 3408 c-98 -33 -160 -87 -201 -175 -34 -75 -35 -207 -2 -278 27
-57 94 -127 150 -156 21 -10 43 -28 48 -38 7 -12 11 -351 11 -982 1 -1151 4
-1378 18 -1406 26 -47 99 -48 149 -1 l21 20 1 1186 2 1187 22 17 c12 10 28 18
34 18 7 0 39 26 71 58 74 72 104 144 101 241 -4 98 -23 152 -76 211 -92 102
-226 140 -349 98z m195 -137 c55 -29 101 -101 101 -160 0 -132 -70 -210 -193
-216 -105 -5 -186 65 -201 174 -8 62 9 117 52 163 65 69 154 83 241 39z"/>
</g>
</svg>
