<svg xmlns="http://www.w3.org/2000/svg" viewBox="0 0 234 234">
    <path d="M117 0C52.4 0 0 52.4 0 117s52.4 117 117 117 117-52.4 117-117S181.6 0 117 0zm48.9 179.5c0 1.5 0 3-.1 4.5-.1 1.9-1 3.4-2.9 3.3-1.9-.1-2.7-1.7-2.7-3.6V53.2c0-8.3.3-7.5-7.7-7.5h-71c-1.8 0-4.3-1.1-5.2 1.6-.8 2.4 1.3 3.5 2.8 4.8C89.6 61 100.2 70 110.8 78.8c2.1 1.7 3 3.6 3 6.4-.1 42.3-.1 84.6-.1 127v1.5c0 1.5-.6 1.8-1.7.9-3.6-3-7.2-6-10.7-9-7.2-6.1-14.5-12.3-21.7-18.5-1.6-1.4-2.8-2.5-5-.4-1.6 1.5-3.6.6-4.1-1.5-.3-1.3-.3-2.6-.3-4V44.7c0-5.4.4-5.8 5.5-5.8h79.9c2.2 0 4.3-.2 6.5-.2 2.1 0 3.4 1.1 3.6 3.3.1 1.3.1 2.7.1 4 .1 22.3.1 44.7.1 67v66.5z" fill="#00adef"/>
    <path d="M95.9 145.5c.3-1.3.2-2.7.8-3.9.8-1.5 1.7-3.6 3-4.1 2-.8 2.9 1.4 3.9 2.9.6 1 2 1.4 2.9 2.2.7.6 1.7 1.4 1.6 2-.1.9-1 2.3-1.7 2.4-1.9.3-2.2 1.6-3.1 2.8-.8 1.1-2.3 2.8-3.1 2.6-1.3-.4-2.5-1.8-3.3-3.1-.7-1-.7-2.5-1-3.8z" fill="#00adef"/>
</svg>
