<svg xmlns="http://www.w3.org/2000/svg" viewBox="0 0 234 234">
    <g fill="#00adef">
        <path d="M137.5 138.1c-.2.4-.2 1-.4 1.3-1 1.2-1.2 3.5-3.8 2.7-.2-.1-1.1.6-1.1 1-.4 2 .1 2.6 2.3 2.9.8.1 1.6-.1 1.7 1.2.1.9.8 1.7.9 2.6.2 1.3.9 2.1 2.2 2.2 1.5.2 2.2-.7 2.9-1.9 1-1.9.7-3.8.9-6.5.3-1.5-.3-3.6-1.5-5.6-.8-1.3-3-1.6-4.1.1z"/>
        <path d="M117 0C52.4 0 0 52.4 0 117s52.4 117 117 117 117-52.4 117-117S181.6 0 117 0zm50.8 186.3c-1.8.8-2.6.8-3.6-.6s-1.7-1.5-3.3-.2c-4.6 3.9-9.1 7.8-13.7 11.7-5.9 5-12.3 9.4-17.8 14.9-.6.6-1.6.9-2.4 1.5-.8.7-1 .3-1.1-.5v-127c-1.2-4.2 1.5-6.7 4.3-8.7 3.4-2.4 6.5-5.2 9.7-7.9 3.1-2.6 5.9-5.6 9.2-8.1 4.3-3.2 8.5-6.5 12.2-10.3.6-.7 1.3-1.5 1.6-2.3.2-.6.4-1.7-1-1.7H84.4C81 47 81 47 81 50.3v130c0 1-.1 2 0 3 .3 2.3-1.7 2.5-3 3.1-1.6.8-2.5-1-2.7-1.7-.6-2.1-1.4-4.1-1.4-6.5.2-11.3.1-22.7.1-34 0-32.5.1-65-.1-97.5 0-5.8 1.8-7.9 7.8-7.8 27 .2 54 .1 81 .1 1.2 0 2.4-.1 3.5 0 1.8.3 2.8 1.6 2.8 3.5v141.1c0 .9.6 1.9-1.2 2.7z"/>
    </g>
    <path d="M143.1 143.6c-.2 2.7.2 4.6-1 6.4-.8 1.2-1.4 2.2-2.9 1.9-1.3-.2-1.9-.9-2.2-2.2-.2-.9-.8-1.7-.9-2.6-.1-1.2-.8-1.1-1.7-1.2-2.2-.3-2.7-.9-2.3-2.9.1-.4.9-1.1 1.1-1 2.5.9 2.8-1.5 3.8-2.7.3-.3.2-.9.4-1.3 1.1-1.7 3.3-1.4 4.1-.1 1.3 2.1 1.8 4.2 1.6 5.7z"
          fill="#00adef"/>
</svg>
