<svg xmlns="http://www.w3.org/2000/svg" viewBox="0 0 234 234">
    <circle cx="117" cy="117" r="117" fill="#00adef"/>
    <path d="M156.8 118.3L157 27h-37.7c-20.7 0-37.4.2-37.2.5.3.2 9.9 3.1 21.4 6.3l21 5.9.5 44.1c.4 37.6.7 44 1.9 43.3 3.3-2.1 6.7 2.1 5.1 6.3-1 2.8-4.3 3.5-5.7 1.4-.4-.7-1 11.7-1.3 27.6l-.5 29-20.4 8.2c-11.3 4.5-21.2 8.6-22 9.2-1.2.8 9.1 1 36.4.9l38-.2.3-91.2zm-53.4 64.1l12.6-4.6V45.3l-12.2-2.9c-6.8-1.6-12.9-3-13.5-3.2-.9-.2-1.3 1-1.2 4 .1 2.4.4 3.3.6 2.1.5-2.9 1.6-2.9 14.3-.2l10 2.2v129.3l-12 3.9c-7.2 2.3-12 4.4-12 5.2 0 .7.2 1.3.4 1.3s6.1-2.1 13-4.6zm16.2-50.3c0-5.5-.3-9.8-.8-9.5-1.5 1-.9 19.4.6 19.4.1 0 .1-4.5.2-9.9zm2.1-2.8c-.3-1-.5-.2-.5 1.7s.2 2.7.5 1.8c.2-1 .2-2.6 0-3.5z" fill="#fff"/>
</svg>
