<svg version="1.0" xmlns="http://www.w3.org/2000/svg" width="234" height="234" viewBox="0 0 2340 2340">
    <path d="M945 2310c-229-49-416-146-577-298C-47 1620-117 990 200 513 368 261 647 78 959 15c119-24 373-17 486 15 212 58 389 156 530 295 108 106 171 193 236 324 88 179 122 323 123 511 0 315-118 601-336 818-115 114-184 164-323 232-172 84-286 112-485 116-126 3-172 0-245-16z" fill="#FFF"/>
    <g fill="#00ADEF">
        <path d="M945 2310c-229-49-416-146-577-298C-47 1620-117 990 200 513 367 263 645 79 952 16c122-25 328-21 458 8 364 83 639 298 801 625 88 179 122 323 123 511 0 311-113 591-329 811-108 111-192 171-330 239-172 84-286 112-485 116-126 3-172 0-245-16zm489-325c155-130 186-152 196-140 17 21 37 19 50-4 15-30 14-1433-2-1449-9-9-127-12-470-12-442 0-458 1-468 19-7 13-10 258-10 725 0 627 2 706 16 720 8 9 19 16 23 16 29 0 31-41 33-711l3-684h405c317 0 405 3 405 12 0 12-122 119-309 273l-66 55 1 668c0 367 3 667 5 667s87-70 188-155z"/>
        <path d="M1363 1483c-10-18-26-33-35-33-10 0-18-7-18-15s9-15 19-15c11 0 22-9 26-19 3-11 13-25 21-32 39-32 61 77 25 122l-19 24-19-32z"/>
    </g>
</svg>
