<svg version="1.0" xmlns="http://www.w3.org/2000/svg" width="234" height="234" viewBox="0 0 2340 2340">
    <path d="M938 2321c-146-32-252-73-363-139-596-356-752-1123-344-1695C464 159 901-37 1292 10c289 34 530 151 718 346 171 177 271 370 315 609 25 132 17 366-18 496-111 421-424 735-846 846-133 36-392 42-523 14z" fill="#FFF"/>
    <path d="M938 2321c-329-72-582-247-757-525C8 1522-39 1199 46 870c67-260 251-514 480-665C731 69 940 7 1185 7c314 0 589 115 816 342 174 174 279 373 324 617 25 131 17 365-18 495-47 178-110 301-233 454-152 189-368 327-613 392-133 36-392 42-523 14zm630-1138l2-913h-377c-207 0-374 2-372 5 3 2 99 31 214 63l210 59 5 441c4 376 7 440 19 433 33-21 67 21 51 63-10 28-43 35-57 14-4-7-10 117-13 276l-5 290-204 82c-113 45-212 86-220 92-12 8 91 10 364 9l380-2 3-912zm-534 641l126-46V453l-122-29c-68-16-129-30-135-32-9-2-13 10-12 40 1 24 4 33 6 21 5-29 16-29 143-2l100 22v1293l-120 39c-72 23-120 44-120 52 0 7 2 13 4 13s61-21 130-46zm162-503c0-55-3-98-8-95-15 10-9 194 6 194 1 0 1-45 2-99zm21-28c-3-10-5-2-5 17s2 27 5 18c2-10 2-26 0-35z" fill="#00ADEF"/>
</svg>
