<svg xmlns="http://www.w3.org/2000/svg" viewBox="0 0 234 234">
    <path fill="#fff" d="M70 31h96.5v175.5H70z"/>
    <g fill="#00adef">
        <path d="M166.5 119V31.5l-48.2-.3L70 31v175.9l48.3-.2 48.2-.2V119zm67.5-2c0 64.6-52.4 117-117 117S0 181.6 0 117 52.4 0 117 0s117 52.4 117 117z"/>
        <path d="M75 119V37l43.3.2 43.2.3v163l-43.2.3-43.3.2v-82zm83.9 0l.3-78H77.5v156h81l.4-78z"/>
        <path d="M144.9 119.4c-1.9-5.3 3.7-9.6 7.5-5.8 3.3 3.2 1.1 8.4-3.5 8.4-2.3 0-3.2-.6-4-2.6z"/>
    </g>
</svg>
