<svg xmlns="http://www.w3.org/2000/svg" viewBox="0 0 234 234">
    <path d="M117 0C52.4 0 0 52.4 0 117s52.4 117 117 117 117-52.4 117-117S181.6 0 117 0zm39.8 118.3l-.3 91.2-38 .2c-27.3.1-37.6-.1-36.4-.9.8-.6 10.7-4.7 22-9.2l20.4-8.2.5-29c.3-15.9.9-28.3 1.3-27.6 1.4 2.1 4.7 1.4 5.7-1.4 1.6-4.2-1.8-8.4-5.1-6.3-1.2.7-1.5-5.7-1.9-43.3l-.5-44.1-21-5.9c-11.5-3.2-21.1-6.1-21.4-6.3-.2-.3 16.5-.5 37.2-.5H157l-.2 91.3zM104 45.1c-12.7-2.7-13.8-2.7-14.3.2-.2 1.2-.5.3-.6-2.1-.1-3 .3-4.2 1.2-4 .6.2 6.7 1.6 13.5 3.2l12.2 2.9v132.5l-12.6 4.6c-6.9 2.5-12.8 4.6-13 4.6s-.4-.6-.4-1.3c0-.8 4.8-2.9 12-5.2l12-3.9V47.3l-10-2.2zm14.8 77.5c.5-.3.8 4 .8 9.5-.1 5.4-.1 9.9-.2 9.9-1.5 0-2.1-18.4-.6-19.4zm2.4 8.4c0-1.9.2-2.7.5-1.7.2.9.2 2.5 0 3.5-.3.9-.5.1-.5-1.8z" fill="#00adef"/>
</svg>
