<svg version="1.0" xmlns="http://www.w3.org/2000/svg" width="234" height="234" viewBox="0 0 2340 2340">
    <path d="M986 2304c-238-43-446-153-622-328-457-456-459-1194-4-1646C503 189 650 100 851 34c79-25 98-27 299-31 230-5 277 0 408 44 290 97 543 319 672 588 16 34 46 111 67 171l37 109 4 217c4 208 3 220-23 315-31 115-124 312-190 398-186 246-458 412-755 461-107 17-281 17-384-2z" fill="#FFF"/>
    <g fill="#00ADEF">
        <path d="M986 2304c-238-43-446-153-622-328-455-453-459-1191-9-1641C496 193 651 99 851 34c79-25 98-27 299-31 230-5 277 0 408 44 286 95 529 305 661 569 22 44 57 129 78 189l37 110 4 217c4 208 3 220-23 315-31 115-124 312-190 398-186 246-458 412-755 461-107 17-281 17-384-2zm144-826l-1-683-184-154c-115-96-185-162-185-173 0-17 21-18 410-18h410v691c0 457 4 697 10 710 6 10 19 19 30 19s24-9 30-19c14-27 14-1435 0-1462-10-18-26-19-470-19-252 0-465 3-474 6-14 6-16 80-16 734 0 401 3 735 6 744 7 19 35 21 52 4 12-12 58 22 262 200 63 56 116 101 118 101 1 1 2-306 2-681z"/>
        <path d="M972 1498c-15-15-16-100 0-116 19-19 38-14 48 13 6 15 17 25 30 25s20 7 20 20c0 15-7 20-24 20-18 0-25 6-28 22-3 26-28 34-46 16z"/>
    </g>
</svg>
