<svg version="1.0" xmlns="http://www.w3.org/2000/svg" width="234" height="234" viewBox="0 0 2340 2340">
    <path d="M950 2314c-104-23-188-53-290-104-526-264-775-881-578-1438C209 412 472 159 850 34c81-27 95-28 314-32 223-4 231-3 330 23 387 104 710 420 822 804 23 78 24 98 24 337 0 245-1 256-26 336-122 388-436 693-820 795-87 23-121 26-289 29-140 2-207-1-255-12z" fill="#FFF"/>
    <g fill="#00ADEF">
        <path d="M935 2311C244 2149-152 1434 82 772 206 420 474 160 835 39 935 6 936 6 1161 2c219-3 229-3 330 23 391 101 721 428 830 820 16 60 19 103 19 322 0 244-1 255-26 335-122 388-436 693-820 795-87 23-122 26-289 29-158 3-203 0-270-15zm730-1121V315l-482-3-483-2v1759l483-2 482-2v-875z"/>
        <path d="M750 1190V370l433 2 432 3v1630l-432 3-433 2v-820zm839 0l3-780H775v1560h810l4-780z"/>
        <path d="M1449 1194c-19-53 37-96 75-58 33 32 11 84-35 84-23 0-32-6-40-26z"/>
    </g>
</svg>
